<svg width="588" height="387" viewBox="0 0 588 387" fill="none" xmlns="http://www.w3.org/2000/svg">
<mask id="path-1-inside-1_363_104" fill="white">
<path d="M2.40801 23.6736L24.105 2.46589C27.2138 -0.572793 32.1802 -0.572793 35.289 2.46589L53.7308 20.4919C56.8678 23.5581 61.8888 23.5263 64.9867 20.4206L82.6849 2.67813C85.8108 -0.455513 90.887 -0.455492 94.0128 2.67816L111.711 20.4209C114.809 23.5264 119.83 23.5583 122.967 20.4924L141.411 2.46534C144.52 -0.573077 149.486 -0.572958 152.595 2.46561L171.034 20.4885C174.171 23.5547 179.192 23.523 182.29 20.4173L199.984 2.67819C203.11 -0.455477 208.186 -0.45548 211.312 2.67819L229.01 20.4209C232.108 23.5264 237.129 23.5583 240.266 20.4924L258.711 2.46534C261.82 -0.573079 266.786 -0.572958 269.895 2.46561L288.337 20.4919C291.474 23.5581 296.495 23.5263 299.593 20.4206L317.291 2.67783C320.417 -0.455691 325.493 -0.455814 328.619 2.67757L346.32 20.4212C349.418 23.5266 354.438 23.5582 357.575 20.4921L376.017 2.46589C379.126 -0.572796 384.092 -0.572794 387.201 2.46589L405.711 20.5582C408.82 23.5969 413.786 23.5969 416.895 20.5582L435.405 2.46589C438.513 -0.572797 443.48 -0.572792 446.589 2.46589L465.031 20.4925C468.168 23.5585 473.188 23.527 476.286 20.422L493.992 2.67675C497.117 -0.45624 502.193 -0.455914 505.319 2.67748L523.015 20.4186C526.113 23.5243 531.134 23.5561 534.271 20.4898L552.711 2.46589C555.82 -0.572793 560.786 -0.572793 563.895 2.46589L585.592 23.6736C587.132 25.1788 588 27.2413 588 29.3946V193.5V357.605C588 359.759 587.132 361.821 585.592 363.326L563.895 384.534C560.786 387.573 555.82 387.573 552.711 384.534L534.271 366.51C531.134 363.444 526.113 363.476 523.015 366.581L505.319 384.323C502.193 387.456 497.117 387.456 493.992 384.323L476.286 366.578C473.188 363.473 468.168 363.442 465.031 366.508L446.589 384.534C443.48 387.573 438.513 387.573 435.405 384.534L416.895 366.442C413.786 363.403 408.82 363.403 405.711 366.442L387.201 384.534C384.092 387.573 379.126 387.573 376.017 384.534L357.575 366.508C354.438 363.442 349.418 363.473 346.32 366.579L328.619 384.322C325.493 387.456 320.417 387.456 317.291 384.322L299.593 366.579C296.495 363.474 291.474 363.442 288.337 366.508L269.895 384.534C266.786 387.573 261.82 387.573 258.711 384.535L240.266 366.508C237.129 363.442 232.108 363.474 229.01 366.579L211.312 384.322C208.186 387.456 203.11 387.456 199.984 384.322L182.29 366.583C179.192 363.477 174.171 363.445 171.034 366.512L152.595 384.534C149.486 387.573 144.52 387.573 141.411 384.535L122.967 366.508C119.83 363.442 114.809 363.474 111.711 366.579L94.0128 384.322C90.887 387.456 85.8108 387.456 82.6849 384.322L64.9867 366.579C61.8888 363.474 56.8678 363.442 53.7308 366.508L35.289 384.534C32.1802 387.573 27.2138 387.573 24.105 384.534L2.40801 363.326C0.868095 361.821 0 359.759 0 357.605V193.5V29.3946C0 27.2413 0.868095 25.1788 2.40801 23.6736Z"/>
</mask>
<path d="M2.40801 23.6736L24.105 2.46589C27.2138 -0.572793 32.1802 -0.572793 35.289 2.46589L53.7308 20.4919C56.8678 23.5581 61.8888 23.5263 64.9867 20.4206L82.6849 2.67813C85.8108 -0.455513 90.887 -0.455492 94.0128 2.67816L111.711 20.4209C114.809 23.5264 119.83 23.5583 122.967 20.4924L141.411 2.46534C144.52 -0.573077 149.486 -0.572958 152.595 2.46561L171.034 20.4885C174.171 23.5547 179.192 23.523 182.29 20.4173L199.984 2.67819C203.11 -0.455477 208.186 -0.45548 211.312 2.67819L229.01 20.4209C232.108 23.5264 237.129 23.5583 240.266 20.4924L258.711 2.46534C261.82 -0.573079 266.786 -0.572958 269.895 2.46561L288.337 20.4919C291.474 23.5581 296.495 23.5263 299.593 20.4206L317.291 2.67783C320.417 -0.455691 325.493 -0.455814 328.619 2.67757L346.32 20.4212C349.418 23.5266 354.438 23.5582 357.575 20.4921L376.017 2.46589C379.126 -0.572796 384.092 -0.572794 387.201 2.46589L405.711 20.5582C408.82 23.5969 413.786 23.5969 416.895 20.5582L435.405 2.46589C438.513 -0.572797 443.48 -0.572792 446.589 2.46589L465.031 20.4925C468.168 23.5585 473.188 23.527 476.286 20.422L493.992 2.67675C497.117 -0.45624 502.193 -0.455914 505.319 2.67748L523.015 20.4186C526.113 23.5243 531.134 23.5561 534.271 20.4898L552.711 2.46589C555.82 -0.572793 560.786 -0.572793 563.895 2.46589L585.592 23.6736C587.132 25.1788 588 27.2413 588 29.3946V193.5V357.605C588 359.759 587.132 361.821 585.592 363.326L563.895 384.534C560.786 387.573 555.82 387.573 552.711 384.534L534.271 366.51C531.134 363.444 526.113 363.476 523.015 366.581L505.319 384.323C502.193 387.456 497.117 387.456 493.992 384.323L476.286 366.578C473.188 363.473 468.168 363.442 465.031 366.508L446.589 384.534C443.48 387.573 438.513 387.573 435.405 384.534L416.895 366.442C413.786 363.403 408.82 363.403 405.711 366.442L387.201 384.534C384.092 387.573 379.126 387.573 376.017 384.534L357.575 366.508C354.438 363.442 349.418 363.473 346.32 366.579L328.619 384.322C325.493 387.456 320.417 387.456 317.291 384.322L299.593 366.579C296.495 363.474 291.474 363.442 288.337 366.508L269.895 384.534C266.786 387.573 261.82 387.573 258.711 384.535L240.266 366.508C237.129 363.442 232.108 363.474 229.01 366.579L211.312 384.322C208.186 387.456 203.11 387.456 199.984 384.322L182.29 366.583C179.192 363.477 174.171 363.445 171.034 366.512L152.595 384.534C149.486 387.573 144.52 387.573 141.411 384.535L122.967 366.508C119.83 363.442 114.809 363.474 111.711 366.579L94.0128 384.322C90.887 387.456 85.8108 387.456 82.6849 384.322L64.9867 366.579C61.8888 363.474 56.8678 363.442 53.7308 366.508L35.289 384.534C32.1802 387.573 27.2138 387.573 24.105 384.534L2.40801 363.326C0.868095 361.821 0 359.759 0 357.605V193.5V29.3946C0 27.2413 0.868095 25.1788 2.40801 23.6736Z" fill="#FDFDFD"/>
<path d="M24.105 2.46589L23.0565 1.3932V1.3932L24.105 2.46589ZM2.40801 23.6736L3.45651 24.7463H3.45651L2.40801 23.6736ZM53.7308 20.4919L52.6823 21.5645L53.7308 20.4919ZM35.289 2.46589L36.3375 1.3932V1.3932L35.289 2.46589ZM82.6849 2.67813L81.623 1.61879L82.6849 2.67813ZM64.9867 20.4206L66.0487 21.48L64.9867 20.4206ZM111.711 20.4209L112.773 19.3615L111.711 20.4209ZM94.0128 2.67816L95.0748 1.61884V1.61884L94.0128 2.67816ZM122.967 20.4924L121.918 19.4196V19.4196L122.967 20.4924ZM141.411 2.46534L140.363 1.3926V1.3926L141.411 2.46534ZM211.312 2.67819L210.25 3.73752L211.312 2.67819ZM229.01 20.4209L230.072 19.3615L229.01 20.4209ZM182.29 20.4173L181.228 19.3579V19.3579L182.29 20.4173ZM199.984 2.67819L201.046 3.73752L199.984 2.67819ZM152.595 2.46561L153.644 1.39293L152.595 2.46561ZM171.034 20.4885L172.082 19.4158L171.034 20.4885ZM240.266 20.4924L241.315 21.5651L240.266 20.4924ZM258.711 2.46534L257.662 1.3926V1.3926L258.711 2.46534ZM269.895 2.46561L270.943 1.39293L269.895 2.46561ZM288.337 20.4919L287.288 21.5645V21.5645L288.337 20.4919ZM317.291 2.67783L318.353 3.73717L317.291 2.67783ZM299.593 20.4206L300.655 21.48V21.48L299.593 20.4206ZM346.32 20.4212L345.258 21.4805H345.258L346.32 20.4212ZM328.619 2.67757L327.557 3.73695V3.73695L328.619 2.67757ZM357.575 20.4921L356.527 19.4194V19.4194L357.575 20.4921ZM376.017 2.46589L374.969 1.3932V1.3932L376.017 2.46589ZM446.589 2.46589L447.637 1.39321V1.3932L446.589 2.46589ZM465.031 20.4925L463.983 21.5652L465.031 20.4925ZM416.895 20.5582L415.846 19.4855V19.4855L416.895 20.5582ZM435.405 2.46589L434.356 1.3932V1.3932L435.405 2.46589ZM387.201 2.46589L388.25 1.3932V1.3932L387.201 2.46589ZM405.711 20.5582L404.662 21.6309V21.6309L405.711 20.5582ZM476.286 20.422L477.348 21.4815V21.4815L476.286 20.422ZM493.992 2.67675L492.93 1.61729V1.61729L493.992 2.67675ZM585.592 23.6736L586.641 22.601L585.592 23.6736ZM563.895 2.46589L562.846 3.53857V3.53857L563.895 2.46589ZM552.711 2.46589L553.76 3.53857V3.53857L552.711 2.46589ZM534.271 20.4898L533.223 19.4172L534.271 20.4898ZM505.319 2.67748L506.381 1.61815V1.61815L505.319 2.67748ZM523.015 20.4186L524.077 19.3593L523.015 20.4186ZM24.105 384.534L25.1535 383.461H25.1535L24.105 384.534ZM2.40801 363.326L3.45651 362.254H3.45651L2.40801 363.326ZM53.7308 366.508L54.7793 367.581L53.7308 366.508ZM35.289 384.534L34.2405 383.461H34.2405L35.289 384.534ZM82.6849 384.322L81.623 385.381H81.623L82.6849 384.322ZM64.9867 366.579L66.0487 365.52H66.0487L64.9867 366.579ZM111.711 366.579L112.773 367.638L111.711 366.579ZM94.0128 384.322L95.0748 385.381L94.0128 384.322ZM122.967 366.508L124.015 365.435L124.015 365.435L122.967 366.508ZM141.411 384.535L142.46 383.462L141.411 384.535ZM211.312 384.322L212.374 385.381L211.312 384.322ZM229.01 366.579L230.072 367.638L229.01 366.579ZM182.29 366.583L183.352 365.523L182.29 366.583ZM199.984 384.322L198.922 385.381L199.984 384.322ZM152.595 384.534L151.547 383.462L152.595 384.534ZM171.034 366.512L172.082 367.584L171.034 366.512ZM240.266 366.508L241.315 365.435V365.435L240.266 366.508ZM258.711 384.535L259.759 383.462L258.711 384.535ZM269.895 384.534L268.846 383.462L269.895 384.534ZM288.337 366.508L287.288 365.435L288.337 366.508ZM317.291 384.322L316.229 385.382L317.291 384.322ZM299.593 366.579L300.655 365.52L299.593 366.579ZM346.32 366.579L345.258 365.519H345.258L346.32 366.579ZM328.619 384.322L327.557 383.263L328.619 384.322ZM357.575 366.508L358.624 365.435L357.575 366.508ZM376.017 384.534L374.969 385.607L376.017 384.534ZM446.589 384.534L445.54 383.461L446.589 384.534ZM465.031 366.508L466.08 367.58L465.031 366.508ZM416.895 366.442L415.846 367.515L416.895 366.442ZM435.405 384.534L436.453 383.461L435.405 384.534ZM387.201 384.534L388.25 385.607L387.201 384.534ZM405.711 366.442L406.759 367.515L405.711 366.442ZM476.286 366.578L475.224 367.637L476.286 366.578ZM493.992 384.323L492.93 385.383V385.383L493.992 384.323ZM585.592 363.326L584.543 362.254L585.592 363.326ZM563.895 384.534L562.846 383.461L563.895 384.534ZM552.711 384.534L553.76 383.461L552.711 384.534ZM534.271 366.51L533.223 367.583L534.271 366.51ZM505.319 384.323L506.381 385.382L505.319 384.323ZM523.015 366.581L521.953 365.522L523.015 366.581ZM23.0565 1.3932L1.35952 22.601L3.45651 24.7463L25.1535 3.53857L23.0565 1.3932ZM54.7793 19.4192L36.3375 1.3932L34.2405 3.53857L52.6823 21.5645L54.7793 19.4192ZM81.623 1.61879L63.9247 19.3613L66.0487 21.48L83.7469 3.73746L81.623 1.61879ZM112.773 19.3615L95.0748 1.61884L92.9508 3.73749L110.649 21.4802L112.773 19.3615ZM124.015 21.5651L142.46 3.53808L140.363 1.3926L121.918 19.4196L124.015 21.5651ZM210.25 3.73752L227.948 21.4802L230.072 19.3615L212.374 1.61886L210.25 3.73752ZM183.352 21.4766L201.046 3.73752L198.922 1.61886L181.228 19.3579L183.352 21.4766ZM151.547 3.5383L169.985 21.5612L172.082 19.4158L153.644 1.39293L151.547 3.5383ZM241.315 21.5651L259.759 3.53808L257.662 1.3926L239.218 19.4196L241.315 21.5651ZM268.846 3.5383L287.288 21.5645L289.385 19.4192L270.943 1.39293L268.846 3.5383ZM316.229 1.6185L298.531 19.3613L300.655 21.48L318.353 3.73717L316.229 1.6185ZM347.382 19.3618L329.681 1.61819L327.557 3.73695L345.258 21.4805L347.382 19.3618ZM358.624 21.5648L377.066 3.53857L374.969 1.3932L356.527 19.4194L358.624 21.5648ZM445.54 3.53858L463.983 21.5652L466.08 19.4198L447.637 1.39321L445.54 3.53858ZM417.943 21.6309L436.453 3.53857L434.356 1.3932L415.846 19.4855L417.943 21.6309ZM386.153 3.53857L404.662 21.6309L406.759 19.4855L388.25 1.3932L386.153 3.53857ZM477.348 21.4815L495.053 3.73622L492.93 1.61729L475.224 19.3625L477.348 21.4815ZM586.641 22.601L564.943 1.3932L562.846 3.53857L584.543 24.7463L586.641 22.601ZM551.662 1.3932L533.223 19.4172L535.32 21.5625L553.76 3.53857L551.662 1.3932ZM504.257 3.7368L521.953 21.4779L524.077 19.3593L506.381 1.61815L504.257 3.7368ZM586.5 29.3946V193.5H589.5V29.3946H586.5ZM1.5 193.5V29.3946H-1.5V193.5H1.5ZM25.1535 383.461L3.45651 362.254L1.35952 364.399L23.0565 385.607L25.1535 383.461ZM52.6823 365.435L34.2405 383.461L36.3375 385.607L54.7793 367.581L52.6823 365.435ZM83.7469 383.263L66.0487 365.52L63.9247 367.639L81.623 385.381L83.7469 383.263ZM110.649 365.52L92.9508 383.263L95.0748 385.381L112.773 367.638L110.649 365.52ZM121.918 367.58L140.363 385.607L142.46 383.462L124.015 365.435L121.918 367.58ZM212.374 385.381L230.072 367.638L227.948 365.52L210.25 383.263L212.374 385.381ZM181.228 367.642L198.922 385.381L201.046 383.263L183.352 365.523L181.228 367.642ZM153.644 385.607L172.082 367.584L169.985 365.439L151.547 383.462L153.644 385.607ZM239.218 367.58L257.662 385.607L259.759 383.462L241.315 365.435L239.218 367.58ZM270.943 385.607L289.385 367.581L287.288 365.435L268.846 383.462L270.943 385.607ZM318.353 383.263L300.655 365.52L298.531 367.639L316.229 385.382L318.353 383.263ZM345.258 365.519L327.557 383.263L329.681 385.382L347.382 367.638L345.258 365.519ZM356.527 367.581L374.969 385.607L377.066 383.461L358.624 365.435L356.527 367.581ZM447.637 385.607L466.08 367.58L463.983 365.435L445.54 383.461L447.637 385.607ZM415.846 367.515L434.356 385.607L436.453 383.461L417.943 365.369L415.846 367.515ZM388.25 385.607L406.759 367.515L404.662 365.369L386.153 383.461L388.25 385.607ZM475.224 367.637L492.93 385.383L495.053 383.264L477.348 365.519L475.224 367.637ZM584.543 362.254L562.846 383.461L564.943 385.607L586.641 364.399L584.543 362.254ZM553.76 383.461L535.32 365.438L533.223 367.583L551.662 385.607L553.76 383.461ZM506.381 385.382L524.077 367.641L521.953 365.522L504.257 383.263L506.381 385.382ZM589.5 357.605V193.5H586.5V357.605H589.5ZM-1.5 193.5V357.605H1.5V193.5H-1.5ZM535.32 365.438C531.595 361.796 525.632 361.834 521.953 365.522L524.077 367.641C526.594 365.117 530.674 365.092 533.223 367.583L535.32 365.438ZM562.846 383.461C560.321 385.93 556.285 385.93 553.76 383.461L551.662 385.607C555.354 389.215 561.252 389.215 564.943 385.607L562.846 383.461ZM586.641 364.399C588.469 362.612 589.5 360.163 589.5 357.605H586.5C586.5 359.355 585.795 361.031 584.543 362.254L586.641 364.399ZM492.93 385.383C496.642 389.103 502.669 389.103 506.381 385.382L504.257 383.263C501.717 385.809 497.593 385.809 495.053 383.264L492.93 385.383ZM417.943 365.369C414.252 361.761 408.354 361.761 404.662 365.369L406.759 367.515C409.285 365.046 413.321 365.046 415.846 367.515L417.943 365.369ZM466.08 367.58C468.628 365.089 472.707 365.115 475.224 367.637L477.348 365.519C473.669 361.831 467.707 361.794 463.983 365.435L466.08 367.58ZM445.54 383.461C443.014 385.93 438.979 385.93 436.453 383.461L434.356 385.607C438.048 389.215 443.945 389.215 447.637 385.607L445.54 383.461ZM374.969 385.607C378.66 389.215 384.558 389.215 388.25 385.607L386.153 383.461C383.627 385.93 379.592 385.93 377.066 383.461L374.969 385.607ZM347.381 367.638C349.899 365.115 353.978 365.089 356.527 367.581L358.624 365.435C354.899 361.794 348.936 361.832 345.258 365.519L347.381 367.638ZM316.229 385.382C319.941 389.103 325.969 389.103 329.681 385.382L327.557 383.263C325.017 385.809 320.893 385.809 318.353 383.263L316.229 385.382ZM289.385 367.581C291.934 365.09 296.013 365.115 298.531 367.639L300.655 365.52C296.976 361.832 291.013 361.794 287.288 365.435L289.385 367.581ZM257.662 385.607C261.354 389.216 267.251 389.215 270.943 385.607L268.846 383.462C266.32 385.931 262.285 385.931 259.759 383.462L257.662 385.607ZM183.352 365.523C179.673 361.835 173.71 361.798 169.985 365.439L172.082 367.584C174.631 365.093 178.711 365.119 181.228 367.642L183.352 365.523ZM230.072 367.638C232.589 365.115 236.669 365.089 239.218 367.58L241.315 365.435C237.589 361.794 231.627 361.832 227.948 365.52L230.072 367.638ZM210.25 383.263C207.711 385.809 203.586 385.809 201.046 383.263L198.922 385.381C202.634 389.102 208.662 389.102 212.374 385.381L210.25 383.263ZM140.363 385.607C144.055 389.216 149.952 389.215 153.644 385.607L151.547 383.462C149.021 385.931 144.986 385.931 142.46 383.462L140.363 385.607ZM112.773 367.638C115.29 365.115 119.369 365.089 121.918 367.58L124.015 365.435C120.29 361.794 114.328 361.832 110.649 365.52L112.773 367.638ZM81.623 385.381C85.3349 389.102 91.3629 389.102 95.0748 385.381L92.9508 383.263C90.4111 385.809 86.2867 385.809 83.7469 383.263L81.623 385.381ZM54.7793 367.581C57.3281 365.09 61.4077 365.115 63.9247 367.639L66.0487 365.52C62.3699 361.832 56.4074 361.794 52.6823 365.435L54.7793 367.581ZM533.223 19.4172C530.674 21.9085 526.594 21.8826 524.077 19.3593L521.953 21.4779C525.632 25.1659 531.595 25.2037 535.32 21.5625L533.223 19.4172ZM564.943 1.39321C561.252 -2.21523 555.354 -2.21523 551.662 1.39321L553.76 3.53857C556.285 1.06965 560.321 1.06965 562.846 3.53857L564.943 1.39321ZM584.543 24.7463C585.795 25.9693 586.5 27.645 586.5 29.3946H589.5C589.5 26.8375 588.469 24.3884 586.641 22.601L584.543 24.7463ZM495.053 3.73622C497.593 1.19066 501.717 1.19092 504.257 3.73681L506.381 1.61815C502.669 -2.10275 496.642 -2.10314 492.93 1.61729L495.053 3.73622ZM415.846 19.4855C413.321 21.9544 409.285 21.9545 406.759 19.4855L404.662 21.6309C408.354 25.2393 414.252 25.2393 417.943 21.6309L415.846 19.4855ZM463.983 21.5652C467.707 25.206 473.669 25.1687 477.348 21.4815L475.224 19.3625C472.707 21.8854 468.628 21.9109 466.08 19.4198L463.983 21.5652ZM447.637 1.3932C443.945 -2.21523 438.048 -2.21524 434.356 1.3932L436.453 3.53857C438.979 1.06964 443.014 1.06964 445.54 3.53858L447.637 1.3932ZM377.066 3.53857C379.592 1.06964 383.627 1.06964 386.153 3.53857L388.25 1.3932C384.558 -2.21523 378.66 -2.21523 374.969 1.3932L377.066 3.53857ZM345.258 21.4805C348.936 25.1682 354.899 25.2058 358.624 21.5648L356.527 19.4194C353.978 21.9106 349.899 21.8849 347.381 19.3618L345.258 21.4805ZM318.353 3.73717C320.893 1.19118 325.017 1.19108 327.557 3.73695L329.681 1.61819C325.969 -2.10271 319.941 -2.10256 316.229 1.6185L318.353 3.73717ZM287.288 21.5645C291.013 25.2057 296.976 25.1679 300.655 21.48L298.531 19.3613C296.013 21.8847 291.934 21.9105 289.385 19.4192L287.288 21.5645ZM259.759 3.53808C262.285 1.06936 266.32 1.06946 268.846 3.5383L270.943 1.39293C267.251 -2.21538 261.354 -2.21552 257.662 1.3926L259.759 3.53808ZM181.228 19.3579C178.711 21.8813 174.631 21.9071 172.082 19.4158L169.985 21.5612C173.71 25.2023 179.673 25.1646 183.352 21.4766L181.228 19.3579ZM227.948 21.4802C231.627 25.1681 237.589 25.206 241.315 21.5651L239.218 19.4196C236.669 21.9107 232.589 21.8848 230.072 19.3615L227.948 21.4802ZM212.374 1.61886C208.662 -2.10237 202.634 -2.10237 198.922 1.61886L201.046 3.73752C203.586 1.19141 207.711 1.19141 210.25 3.73752L212.374 1.61886ZM142.46 3.53808C144.986 1.06936 149.021 1.06946 151.547 3.5383L153.644 1.39293C149.952 -2.21538 144.055 -2.21552 140.363 1.3926L142.46 3.53808ZM110.649 21.4802C114.328 25.1681 120.29 25.206 124.015 21.5651L121.918 19.4196C119.369 21.9107 115.29 21.8848 112.773 19.3615L110.649 21.4802ZM83.7469 3.73746C86.2867 1.19138 90.4111 1.19139 92.9508 3.73749L95.0748 1.61884C91.3629 -2.10238 85.3349 -2.10241 81.623 1.61879L83.7469 3.73746ZM52.6823 21.5645C56.4074 25.2057 62.3699 25.1679 66.0487 21.48L63.9247 19.3613C61.4077 21.8847 57.3281 21.9105 54.7793 19.4192L52.6823 21.5645ZM3.45651 362.254C2.20533 361.031 1.5 359.355 1.5 357.605H-1.5C-1.5 360.163 -0.46914 362.612 1.35952 364.399L3.45651 362.254ZM1.35952 22.601C-0.469138 24.3884 -1.5 26.8375 -1.5 29.3946H1.5C1.5 27.645 2.20533 25.9693 3.45651 24.7463L1.35952 22.601ZM23.0565 385.607C26.7482 389.215 32.6458 389.215 36.3375 385.607L34.2405 383.461C31.7146 385.93 27.6794 385.93 25.1535 383.461L23.0565 385.607ZM25.1535 3.53857C27.6794 1.06964 31.7146 1.06965 34.2405 3.53857L36.3375 1.3932C32.6458 -2.21523 26.7482 -2.21523 23.0565 1.3932L25.1535 3.53857Z" fill="#F8981D" mask="url(#path-1-inside-1_363_104)"/>
</svg>
