<svg width="476" height="332" viewBox="0 0 476 332" fill="none" xmlns="http://www.w3.org/2000/svg">
<mask id="path-1-inside-1_363_186" fill="white">
<path d="M2.23745 19.6415L18.2779 2.98418C21.4247 -0.283636 26.6562 -0.283638 29.803 2.98417L42.2449 15.9046C45.4194 19.2012 50.7072 19.1677 53.8397 15.8314L65.6883 3.21178C68.8482 -0.153728 74.1929 -0.153708 77.3528 3.21182L89.2014 15.8316C92.3338 19.1679 97.6214 19.2015 100.796 15.9052L113.24 2.98359C116.387 -0.283955 121.618 -0.283823 124.765 2.98388L137.205 15.9018C140.379 19.1983 145.667 19.1649 148.799 15.8285L160.645 3.21185C163.805 -0.153687 169.15 -0.153692 172.309 3.21185L184.158 15.8316C187.29 19.1679 192.578 19.2015 195.753 15.9052L208.197 2.98359C211.344 -0.283953 216.575 -0.283822 219.722 2.98388L232.164 15.9046C235.338 19.2012 240.626 19.1677 243.759 15.8314L255.608 3.21146C258.767 -0.153929 264.112 -0.154052 267.272 3.21119L279.122 15.8319C282.255 19.168 287.543 19.2013 290.717 15.9049L303.159 2.98418C306.306 -0.283632 311.538 -0.283638 314.684 2.98417L327.197 15.978C330.344 19.2458 335.575 19.2458 338.722 15.978L351.235 2.98418C354.381 -0.283634 359.613 -0.283634 362.76 2.98418L375.202 15.9054C378.377 19.2016 383.664 19.1685 386.797 15.8328L398.651 3.21033C401.811 -0.154524 407.155 -0.154181 410.315 3.21107L422.162 15.8296C425.294 19.166 430.582 19.1994 433.757 15.9029L446.197 2.98418C449.344 -0.283636 454.575 -0.283631 457.722 2.98418L473.763 19.6415C475.198 21.1322 476 23.1212 476 25.1906V166V306.809C476 308.879 475.198 310.868 473.763 312.358L457.722 329.016C454.575 332.284 449.344 332.284 446.197 329.016L433.757 316.097C430.582 312.801 425.294 312.834 422.162 316.17L410.315 328.789C407.155 332.154 401.811 332.155 398.651 328.79L386.797 316.167C383.664 312.831 378.377 312.798 375.202 316.095L362.76 329.016C359.613 332.284 354.381 332.284 351.235 329.016L338.722 316.022C335.575 312.754 330.344 312.754 327.197 316.022L314.684 329.016C311.538 332.284 306.306 332.284 303.159 329.016L290.717 316.095C287.543 312.799 282.255 312.832 279.122 316.168L267.272 328.789C264.112 332.154 258.767 332.154 255.608 328.789L243.759 316.169C240.626 312.832 235.338 312.799 232.164 316.095L219.722 329.016C216.575 332.284 211.344 332.284 208.197 329.016L195.753 316.095C192.578 312.799 187.29 312.832 184.158 316.168L172.309 328.788C169.15 332.154 163.805 332.154 160.645 328.788L148.799 316.172C145.667 312.835 140.379 312.802 137.205 316.098L124.765 329.016C121.618 332.284 116.387 332.284 113.24 329.016L100.796 316.095C97.6214 312.799 92.3338 312.832 89.2014 316.168L77.3528 328.788C74.1929 332.154 68.8482 332.154 65.6883 328.788L53.8397 316.169C50.7072 312.832 45.4194 312.799 42.2449 316.095L29.803 329.016C26.6562 332.284 21.4247 332.284 18.2779 329.016L2.23745 312.358C0.801963 310.868 0 308.879 0 306.809V166V25.1906C0 23.1212 0.801963 21.1322 2.23745 19.6415Z"/>
</mask>
<path d="M2.23745 19.6415L18.2779 2.98418C21.4247 -0.283636 26.6562 -0.283638 29.803 2.98417L42.2449 15.9046C45.4194 19.2012 50.7072 19.1677 53.8397 15.8314L65.6883 3.21178C68.8482 -0.153728 74.1929 -0.153708 77.3528 3.21182L89.2014 15.8316C92.3338 19.1679 97.6214 19.2015 100.796 15.9052L113.24 2.98359C116.387 -0.283955 121.618 -0.283823 124.765 2.98388L137.205 15.9018C140.379 19.1983 145.667 19.1649 148.799 15.8285L160.645 3.21185C163.805 -0.153687 169.15 -0.153692 172.309 3.21185L184.158 15.8316C187.29 19.1679 192.578 19.2015 195.753 15.9052L208.197 2.98359C211.344 -0.283953 216.575 -0.283822 219.722 2.98388L232.164 15.9046C235.338 19.2012 240.626 19.1677 243.759 15.8314L255.608 3.21146C258.767 -0.153929 264.112 -0.154052 267.272 3.21119L279.122 15.8319C282.255 19.168 287.543 19.2013 290.717 15.9049L303.159 2.98418C306.306 -0.283632 311.538 -0.283638 314.684 2.98417L327.197 15.978C330.344 19.2458 335.575 19.2458 338.722 15.978L351.235 2.98418C354.381 -0.283634 359.613 -0.283634 362.76 2.98418L375.202 15.9054C378.377 19.2016 383.664 19.1685 386.797 15.8328L398.651 3.21033C401.811 -0.154524 407.155 -0.154181 410.315 3.21107L422.162 15.8296C425.294 19.166 430.582 19.1994 433.757 15.9029L446.197 2.98418C449.344 -0.283636 454.575 -0.283631 457.722 2.98418L473.763 19.6415C475.198 21.1322 476 23.1212 476 25.1906V166V306.809C476 308.879 475.198 310.868 473.763 312.358L457.722 329.016C454.575 332.284 449.344 332.284 446.197 329.016L433.757 316.097C430.582 312.801 425.294 312.834 422.162 316.17L410.315 328.789C407.155 332.154 401.811 332.155 398.651 328.79L386.797 316.167C383.664 312.831 378.377 312.798 375.202 316.095L362.76 329.016C359.613 332.284 354.381 332.284 351.235 329.016L338.722 316.022C335.575 312.754 330.344 312.754 327.197 316.022L314.684 329.016C311.538 332.284 306.306 332.284 303.159 329.016L290.717 316.095C287.543 312.799 282.255 312.832 279.122 316.168L267.272 328.789C264.112 332.154 258.767 332.154 255.608 328.789L243.759 316.169C240.626 312.832 235.338 312.799 232.164 316.095L219.722 329.016C216.575 332.284 211.344 332.284 208.197 329.016L195.753 316.095C192.578 312.799 187.29 312.832 184.158 316.168L172.309 328.788C169.15 332.154 163.805 332.154 160.645 328.788L148.799 316.172C145.667 312.835 140.379 312.802 137.205 316.098L124.765 329.016C121.618 332.284 116.387 332.284 113.24 329.016L100.796 316.095C97.6214 312.799 92.3338 312.832 89.2014 316.168L77.3528 328.788C74.1929 332.154 68.8482 332.154 65.6883 328.788L53.8397 316.169C50.7072 312.832 45.4194 312.799 42.2449 316.095L29.803 329.016C26.6562 332.284 21.4247 332.284 18.2779 329.016L2.23745 312.358C0.801963 310.868 0 308.879 0 306.809V166V25.1906C0 23.1212 0.801963 21.1322 2.23745 19.6415Z" fill="#FDFDFD"/>
<path d="M18.2779 2.98418L17.1974 1.94371L18.2779 2.98418ZM2.23745 19.6415L1.15697 18.601L2.23745 19.6415ZM42.2449 15.9046L41.1645 16.9451L42.2449 15.9046ZM29.803 2.98417L28.7225 4.02464L29.803 2.98417ZM65.6883 3.21178L66.7818 4.23851L65.6883 3.21178ZM53.8397 15.8314L52.7462 14.8047L53.8397 15.8314ZM89.2014 15.8316L90.2949 14.8049V14.8049L89.2014 15.8316ZM77.3528 3.21182L76.2592 4.23854V4.23854L77.3528 3.21182ZM100.796 15.9052L101.876 16.9457L100.796 15.9052ZM113.24 2.98359L114.321 4.0241L113.24 2.98359ZM172.309 3.21185L173.403 2.18513V2.18513L172.309 3.21185ZM184.158 15.8316L183.064 16.8583V16.8583L184.158 15.8316ZM148.799 15.8285L147.706 14.8017V14.8017L148.799 15.8285ZM160.645 3.21185L159.551 2.18513V2.18513L160.645 3.21185ZM124.765 2.98388L123.685 4.02434L124.765 2.98388ZM137.205 15.9018L138.285 14.8613V14.8613L137.205 15.9018ZM195.753 15.9052L196.833 16.9457L195.753 15.9052ZM208.197 2.98359L209.277 4.02411V4.02411L208.197 2.98359ZM219.722 2.98388L220.802 1.94341V1.94341L219.722 2.98388ZM232.164 15.9046L231.083 16.9451V16.9451L232.164 15.9046ZM255.608 3.21146L254.514 2.18474V2.18474L255.608 3.21146ZM243.759 15.8314L244.852 16.8581L243.759 15.8314ZM279.122 15.8319L278.029 16.8587L278.029 16.8587L279.122 15.8319ZM267.272 3.21119L266.178 4.23797V4.23797L267.272 3.21119ZM290.717 15.9049L291.797 16.9454V16.9454L290.717 15.9049ZM303.159 2.98418L304.24 4.02464L303.159 2.98418ZM362.76 2.98418L361.679 4.02464V4.02464L362.76 2.98418ZM375.202 15.9054L376.283 14.8649V14.8649L375.202 15.9054ZM338.722 15.978L337.642 14.9375V14.9376L338.722 15.978ZM351.235 2.98418L352.315 4.02464L351.235 2.98418ZM314.684 2.98417L313.604 4.02464V4.02464L314.684 2.98417ZM327.197 15.978L328.277 14.9376L327.197 15.978ZM386.797 15.8328L387.89 16.8597L386.797 15.8328ZM398.651 3.21033L397.557 2.18347V2.18347L398.651 3.21033ZM473.763 19.6415L472.682 20.682L473.763 19.6415ZM457.722 2.98418L456.642 4.02465V4.02465L457.722 2.98418ZM446.197 2.98418L447.277 4.02464V4.02464L446.197 2.98418ZM433.757 15.9029L432.676 14.8624V14.8624L433.757 15.9029ZM410.315 3.21107L411.408 2.18435V2.18435L410.315 3.21107ZM422.162 15.8296L423.255 14.8029L422.162 15.8296ZM18.2779 329.016L17.1974 330.056H17.1974L18.2779 329.016ZM2.23745 312.358L1.15697 313.399L2.23745 312.358ZM42.2449 316.095L43.3254 317.136H43.3254L42.2449 316.095ZM29.803 329.016L30.8835 330.056H30.8835L29.803 329.016ZM65.6883 328.788L66.7818 327.761L65.6883 328.788ZM53.8397 316.169L52.7462 317.195L53.8397 316.169ZM89.2014 316.168L90.2949 317.195L90.2949 317.195L89.2014 316.168ZM77.3528 328.788L76.2592 327.761H76.2592L77.3528 328.788ZM100.796 316.095L101.876 315.054H101.876L100.796 316.095ZM113.24 329.016L114.321 327.976L113.24 329.016ZM172.309 328.788L173.403 329.815L172.309 328.788ZM184.158 316.168L183.064 315.142H183.064L184.158 316.168ZM148.799 316.172L147.706 317.198L148.799 316.172ZM160.645 328.788L161.739 327.761L160.645 328.788ZM124.765 329.016L123.685 327.976L124.765 329.016ZM137.205 316.098L138.285 317.139L137.205 316.098ZM195.753 316.095L196.833 315.054L195.753 316.095ZM208.197 329.016L209.277 327.976L208.197 329.016ZM219.722 329.016L218.641 327.976L219.722 329.016ZM232.164 316.095L233.244 317.136L232.164 316.095ZM255.608 328.789L254.514 329.815L255.608 328.789ZM243.759 316.169L244.852 315.142L243.759 316.169ZM279.122 316.168L278.029 315.141L278.029 315.141L279.122 316.168ZM267.272 328.789L268.365 329.816L267.272 328.789ZM290.717 316.095L291.797 315.055L290.717 316.095ZM303.159 329.016L302.079 330.056L303.159 329.016ZM362.76 329.016L361.679 327.975L362.76 329.016ZM375.202 316.095L376.283 317.135L375.202 316.095ZM338.722 316.022L337.642 317.062L338.722 316.022ZM351.235 329.016L352.315 327.975L351.235 329.016ZM314.684 329.016L315.765 330.056L314.684 329.016ZM327.197 316.022L328.277 317.062L327.197 316.022ZM386.797 316.167L387.89 315.14L386.797 316.167ZM398.651 328.79L399.744 327.763L398.651 328.79ZM473.763 312.358L472.682 311.318L473.763 312.358ZM457.722 329.016L458.803 330.056L457.722 329.016ZM446.197 329.016L445.117 330.056L446.197 329.016ZM433.757 316.097L432.676 317.138L433.757 316.097ZM410.315 328.789L411.408 329.816L410.315 328.789ZM422.162 316.17L423.255 317.197L422.162 316.17ZM17.1974 1.94371L1.15697 18.601L3.31793 20.682L19.3584 4.02464L17.1974 1.94371ZM43.3254 14.8642L30.8835 1.94371L28.7225 4.02464L41.1645 16.9451L43.3254 14.8642ZM64.5947 2.18505L52.7462 14.8047L54.9333 16.8581L66.7818 4.23851L64.5947 2.18505ZM90.2949 14.8049L78.4463 2.1851L76.2592 4.23854L88.1078 16.8583L90.2949 14.8049ZM101.876 16.9457L114.321 4.0241L112.16 1.94307L99.7155 14.8647L101.876 16.9457ZM171.216 4.23857L183.064 16.8583L185.252 14.8049L173.403 2.18513L171.216 4.23857ZM149.893 16.8552L161.738 4.23857L159.551 2.18513L147.706 14.8017L149.893 16.8552ZM123.685 4.02434L136.124 16.9422L138.285 14.8613L125.846 1.94341L123.685 4.02434ZM196.833 16.9457L209.277 4.02411L207.116 1.94307L194.672 14.8647L196.833 16.9457ZM218.641 4.02434L231.083 16.9451L233.244 14.8642L220.802 1.94341L218.641 4.02434ZM254.514 2.18474L242.665 14.8047L244.852 16.8581L256.701 4.23819L254.514 2.18474ZM280.216 14.8051L268.365 2.18442L266.178 4.23797L278.029 16.8587L280.216 14.8051ZM291.797 16.9454L304.24 4.02464L302.079 1.94372L289.637 14.8645L291.797 16.9454ZM361.679 4.02464L374.122 16.9458L376.283 14.8649L363.84 1.94372L361.679 4.02464ZM339.803 17.0185L352.315 4.02464L350.154 1.94372L337.642 14.9375L339.803 17.0185ZM313.604 4.02464L326.116 17.0185L328.277 14.9376L315.765 1.94371L313.604 4.02464ZM387.89 16.8597L399.744 4.23719L397.557 2.18347L385.703 14.806L387.89 16.8597ZM474.843 18.601L458.803 1.94372L456.642 4.02465L472.682 20.682L474.843 18.601ZM445.117 1.94371L432.676 14.8624L434.837 16.9434L447.277 4.02464L445.117 1.94371ZM409.221 4.23779L421.068 16.8563L423.255 14.8029L411.408 2.18435L409.221 4.23779ZM474.5 25.1906V166H477.5V25.1906H474.5ZM1.5 166V25.1906H-1.5V166H1.5ZM19.3584 327.975L3.31793 311.318L1.15697 313.399L17.1974 330.056L19.3584 327.975ZM41.1645 315.055L28.7225 327.975L30.8835 330.056L43.3254 317.136L41.1645 315.055ZM66.7818 327.761L54.9333 315.142L52.7462 317.195L64.5947 329.815L66.7818 327.761ZM88.1078 315.142L76.2592 327.761L78.4463 329.815L90.2949 317.195L88.1078 315.142ZM99.7155 317.135L112.16 330.057L114.321 327.976L101.876 315.054L99.7155 317.135ZM173.403 329.815L185.252 317.195L183.064 315.142L171.216 327.761L173.403 329.815ZM147.706 317.198L159.551 329.815L161.739 327.761L149.893 315.145L147.706 317.198ZM125.846 330.057L138.285 317.139L136.124 315.058L123.685 327.976L125.846 330.057ZM194.672 317.135L207.116 330.057L209.277 327.976L196.833 315.054L194.672 317.135ZM220.802 330.057L233.244 317.136L231.083 315.055L218.641 327.976L220.802 330.057ZM256.701 327.762L244.852 315.142L242.665 317.195L254.514 329.815L256.701 327.762ZM278.029 315.141L266.178 327.762L268.365 329.816L280.216 317.195L278.029 315.141ZM289.637 317.136L302.079 330.056L304.24 327.975L291.797 315.055L289.637 317.136ZM363.84 330.056L376.283 317.135L374.122 315.054L361.679 327.975L363.84 330.056ZM337.642 317.062L350.154 330.056L352.315 327.975L339.803 314.982L337.642 317.062ZM315.765 330.056L328.277 317.062L326.116 314.982L313.604 327.975L315.765 330.056ZM385.703 317.194L397.557 329.817L399.744 327.763L387.89 315.14L385.703 317.194ZM472.682 311.318L456.642 327.975L458.803 330.056L474.843 313.399L472.682 311.318ZM447.277 327.975L434.837 315.057L432.676 317.138L445.117 330.056L447.277 327.975ZM411.408 329.816L423.255 317.197L421.068 315.144L409.221 327.762L411.408 329.816ZM477.5 306.809V166H474.5V306.809H477.5ZM-1.5 166V306.809H1.5V166H-1.5ZM434.837 315.057C431.068 311.142 424.788 311.182 421.068 315.144L423.255 317.197C425.801 314.486 430.097 314.459 432.676 317.138L434.837 315.057ZM456.642 327.975C454.085 330.63 449.834 330.63 447.277 327.975L445.117 330.056C448.853 333.937 455.066 333.937 458.803 330.056L456.642 327.975ZM474.843 313.399C476.548 311.629 477.5 309.267 477.5 306.809H474.5C474.5 308.491 473.848 310.107 472.682 311.318L474.843 313.399ZM397.557 329.817C401.31 333.812 407.656 333.812 411.408 329.816L409.221 327.762C406.654 330.496 402.312 330.497 399.744 327.763L397.557 329.817ZM339.803 314.982C336.066 311.101 329.853 311.101 326.116 314.982L328.277 317.062C330.834 314.407 335.085 314.407 337.642 317.062L339.803 314.982ZM376.283 317.135C378.862 314.457 383.158 314.484 385.703 317.194L387.89 315.14C384.17 311.179 377.891 311.14 374.122 315.054L376.283 317.135ZM361.679 327.975C359.123 330.63 354.872 330.63 352.315 327.975L350.154 330.056C353.891 333.937 360.103 333.937 363.84 330.056L361.679 327.975ZM302.079 330.056C305.816 333.937 312.028 333.937 315.765 330.056L313.604 327.975C311.047 330.63 306.796 330.63 304.24 327.975L302.079 330.056ZM280.216 317.195C282.761 314.484 287.057 314.457 289.637 317.136L291.797 315.055C288.028 311.14 281.749 311.18 278.029 315.141L280.216 317.195ZM254.514 329.815C258.266 333.812 264.613 333.812 268.365 329.816L266.178 327.762C263.611 330.496 259.268 330.496 256.701 327.762L254.514 329.815ZM233.244 317.136C235.824 314.457 240.12 314.485 242.665 317.195L244.852 315.142C241.132 311.18 234.853 311.14 231.083 315.055L233.244 317.136ZM207.116 330.057C210.853 333.937 217.065 333.937 220.802 330.057L218.641 327.976C216.085 330.631 211.834 330.631 209.277 327.976L207.116 330.057ZM149.893 315.145C146.173 311.183 139.894 311.143 136.124 315.058L138.285 317.139C140.864 314.46 145.161 314.487 147.706 317.198L149.893 315.145ZM185.252 317.195C187.797 314.484 192.093 314.457 194.672 317.135L196.833 315.054C193.063 311.14 186.784 311.18 183.064 315.142L185.252 317.195ZM171.216 327.761C168.648 330.496 164.306 330.496 161.739 327.761L159.551 329.815C163.304 333.811 169.651 333.811 173.403 329.815L171.216 327.761ZM112.16 330.057C115.897 333.937 122.109 333.937 125.846 330.057L123.685 327.976C121.128 330.631 116.877 330.631 114.321 327.976L112.16 330.057ZM90.2949 317.195C92.84 314.484 97.1362 314.457 99.7155 317.135L101.876 315.054C98.1066 311.14 91.8276 311.18 88.1078 315.142L90.2949 317.195ZM64.5947 329.815C68.3471 333.811 74.694 333.811 78.4463 329.815L76.2592 327.761C73.6918 330.496 69.3492 330.496 66.7818 327.761L64.5947 329.815ZM43.3254 317.136C45.9047 314.457 50.201 314.485 52.7462 317.195L54.9333 315.142C51.2134 311.18 44.9341 311.14 41.1645 315.055L43.3254 317.136ZM432.676 14.8624C430.097 17.5409 425.801 17.5137 423.255 14.8029L421.068 16.8563C424.788 20.8183 431.068 20.858 434.837 16.9434L432.676 14.8624ZM458.803 1.94372C455.066 -1.93681 448.853 -1.93682 445.117 1.94371L447.277 4.02464C449.834 1.36954 454.085 1.36955 456.642 4.02465L458.803 1.94372ZM472.682 20.682C473.848 21.8932 474.5 23.5092 474.5 25.1906H477.5C477.5 22.7331 476.548 20.3712 474.843 18.601L472.682 20.682ZM399.744 4.23719C402.312 1.50324 406.654 1.50352 409.221 4.23779L411.408 2.18435C407.656 -1.81188 401.31 -1.81229 397.557 2.18347L399.744 4.23719ZM337.642 14.9376C335.085 17.5926 330.834 17.5926 328.277 14.9376L326.116 17.0185C329.853 20.899 336.066 20.899 339.803 17.0185L337.642 14.9376ZM374.122 16.9458C377.891 20.8601 384.17 20.8208 387.89 16.8597L385.703 14.806C383.158 17.5162 378.862 17.5431 376.283 14.8649L374.122 16.9458ZM363.84 1.94372C360.103 -1.93681 353.891 -1.93681 350.154 1.94372L352.315 4.02464C354.872 1.36954 359.123 1.36954 361.679 4.02464L363.84 1.94372ZM304.24 4.02464C306.796 1.36955 311.047 1.36954 313.604 4.02464L315.765 1.94371C312.028 -1.93682 305.816 -1.93681 302.079 1.94372L304.24 4.02464ZM278.029 16.8587C281.749 20.8203 288.028 20.8599 291.797 16.9454L289.637 14.8645C287.057 17.5428 282.761 17.5157 280.216 14.8051L278.029 16.8587ZM256.701 4.23819C259.268 1.50381 263.611 1.50371 266.178 4.23797L268.365 2.18442C264.613 -1.81182 258.266 -1.81166 254.514 2.18474L256.701 4.23819ZM231.083 16.9451C234.853 20.8597 241.132 20.82 244.852 16.8581L242.665 14.8047C240.12 17.5155 235.824 17.5426 233.244 14.8642L231.083 16.9451ZM209.277 4.02411C211.834 1.36923 216.085 1.36933 218.641 4.02434L220.802 1.94341C217.065 -1.93698 210.853 -1.93714 207.116 1.94307L209.277 4.02411ZM147.706 14.8017C145.161 17.5126 140.864 17.5397 138.285 14.8613L136.124 16.9422C139.894 20.8569 146.173 20.8172 149.893 16.8552L147.706 14.8017ZM183.064 16.8583C186.784 20.8202 193.063 20.86 196.833 16.9457L194.672 14.8647C192.093 17.5429 187.797 17.5156 185.252 14.8049L183.064 16.8583ZM173.403 2.18513C169.651 -1.81145 163.304 -1.81145 159.551 2.18513L161.738 4.23857C164.306 1.50407 168.648 1.50407 171.216 4.23857L173.403 2.18513ZM114.321 4.0241C116.877 1.36923 121.128 1.36933 123.685 4.02434L125.846 1.94341C122.109 -1.93698 115.897 -1.93714 112.16 1.94307L114.321 4.0241ZM88.1078 16.8583C91.8276 20.8202 98.1066 20.86 101.876 16.9457L99.7155 14.8647C97.1362 17.5429 92.84 17.5156 90.2949 14.8049L88.1078 16.8583ZM66.7818 4.23851C69.3492 1.50403 73.6918 1.50405 76.2592 4.23854L78.4463 2.1851C74.694 -1.81147 68.3471 -1.81149 64.5947 2.18505L66.7818 4.23851ZM41.1645 16.9451C44.9341 20.8597 51.2134 20.82 54.9333 16.8581L52.7462 14.8047C50.201 17.5155 45.9047 17.5426 43.3254 14.8642L41.1645 16.9451ZM3.31793 311.318C2.15159 310.107 1.5 308.491 1.5 306.809H-1.5C-1.5 309.267 -0.547667 311.629 1.15697 313.399L3.31793 311.318ZM1.15697 18.601C-0.547668 20.3712 -1.5 22.7331 -1.5 25.1906H1.5C1.5 23.5092 2.15159 21.8932 3.31793 20.682L1.15697 18.601ZM17.1974 330.056C20.9342 333.937 27.1466 333.937 30.8835 330.056L28.7225 327.975C26.1657 330.63 21.9151 330.63 19.3583 327.975L17.1974 330.056ZM19.3584 4.02464C21.9151 1.36954 26.1657 1.36954 28.7225 4.02464L30.8835 1.94371C27.1466 -1.93682 20.9342 -1.93681 17.1974 1.94371L19.3584 4.02464Z" fill="#F8981D" mask="url(#path-1-inside-1_363_186)"/>
</svg>
