<svg width="328" height="204" viewBox="0 0 328 204" fill="none" xmlns="http://www.w3.org/2000/svg">
<mask id="path-1-inside-1_400_285" fill="white">
<path d="M2.56007 10.9889L11.1257 3.04501C14.1941 0.199362 18.9372 0.199368 22.0056 3.04502L27.6221 8.25379C30.7191 11.1259 35.5152 11.0956 38.5756 8.18464L43.7695 3.24439C46.8582 0.30651 51.708 0.306527 54.7966 3.24443L59.9906 8.18483C63.0509 11.0957 67.8468 11.1262 70.9438 8.25429L76.562 3.04449C79.6304 0.1991 84.3733 0.199214 87.4416 3.04476L93.0564 8.25201C96.1534 11.1241 100.95 11.0938 104.01 8.18282L109.202 3.24445C112.29 0.306537 117.14 0.306539 120.229 3.24445L125.423 8.18482C128.483 11.0957 133.279 11.1262 136.376 8.25429L141.994 3.0445C145.063 0.1991 149.806 0.199214 152.874 3.04476L158.491 8.2538C161.588 11.1259 166.384 11.0956 169.444 8.18464L174.638 3.24412C177.727 0.306349 182.576 0.30624 185.665 3.24387L190.861 8.18512C193.921 11.0959 198.717 11.126 201.814 8.25403L207.431 3.04502C210.499 0.199366 215.242 0.199361 218.31 3.04501L223.994 8.31634C227.063 11.162 231.806 11.162 234.874 8.31633L240.558 3.04502C243.627 0.199362 248.37 0.199363 251.438 3.04502L257.055 8.25441C260.152 11.1263 264.948 11.0963 268.008 8.18591L273.206 3.24309C276.295 0.305841 281.144 0.306148 284.232 3.24379L289.426 8.18351C292.486 11.0945 297.282 11.1248 300.379 8.25271L305.994 3.04502C309.063 0.199363 313.806 0.199367 316.874 3.04502L325.44 10.9889C327.072 12.5027 328 14.6283 328 16.8546V102V187.145C328 189.372 327.072 191.497 325.44 193.011L316.874 200.955C313.806 203.801 309.063 203.801 305.994 200.955L300.379 195.747C297.282 192.875 292.486 192.905 289.426 195.816L284.232 200.756C281.144 203.694 276.295 203.694 273.206 200.757L268.008 195.814C264.948 192.904 260.152 192.874 257.055 195.746L251.438 200.955C248.37 203.801 243.627 203.801 240.558 200.955L234.874 195.684C231.806 192.838 227.063 192.838 223.994 195.684L218.31 200.955C215.242 203.801 210.499 203.801 207.431 200.955L201.814 195.746C198.717 192.874 193.921 192.904 190.861 195.815L185.665 200.756C182.576 203.694 177.727 203.694 174.638 200.756L169.444 195.815C166.384 192.904 161.588 192.874 158.491 195.746L152.874 200.955C149.806 203.801 145.063 203.801 141.994 200.956L136.376 195.746C133.279 192.874 128.483 192.904 125.423 195.815L120.229 200.756C117.14 203.693 112.29 203.693 109.202 200.756L104.01 195.817C100.95 192.906 96.1534 192.876 93.0564 195.748L87.4416 200.955C84.3733 203.801 79.6304 203.801 76.562 200.956L70.9438 195.746C67.8468 192.874 63.0509 192.904 59.9906 195.815L54.7966 200.756C51.708 203.693 46.8582 203.693 43.7695 200.756L38.5756 195.815C35.5152 192.904 30.7191 192.874 27.6221 195.746L22.0056 200.955C18.9372 203.801 14.1941 203.801 11.1257 200.955L2.56007 193.011C0.927708 191.497 0 189.372 0 187.145V102V16.8546C0 14.6283 0.927708 12.5027 2.56007 10.9889Z"/>
</mask>
<path d="M2.56007 10.9889L11.1257 3.04501C14.1941 0.199362 18.9372 0.199368 22.0056 3.04502L27.6221 8.25379C30.7191 11.1259 35.5152 11.0956 38.5756 8.18464L43.7695 3.24439C46.8582 0.30651 51.708 0.306527 54.7966 3.24443L59.9906 8.18483C63.0509 11.0957 67.8468 11.1262 70.9438 8.25429L76.562 3.04449C79.6304 0.1991 84.3733 0.199214 87.4416 3.04476L93.0564 8.25201C96.1534 11.1241 100.95 11.0938 104.01 8.18282L109.202 3.24445C112.29 0.306537 117.14 0.306539 120.229 3.24445L125.423 8.18482C128.483 11.0957 133.279 11.1262 136.376 8.25429L141.994 3.0445C145.063 0.1991 149.806 0.199214 152.874 3.04476L158.491 8.2538C161.588 11.1259 166.384 11.0956 169.444 8.18464L174.638 3.24412C177.727 0.306349 182.576 0.30624 185.665 3.24387L190.861 8.18512C193.921 11.0959 198.717 11.126 201.814 8.25403L207.431 3.04502C210.499 0.199366 215.242 0.199361 218.31 3.04501L223.994 8.31634C227.063 11.162 231.806 11.162 234.874 8.31633L240.558 3.04502C243.627 0.199362 248.37 0.199363 251.438 3.04502L257.055 8.25441C260.152 11.1263 264.948 11.0963 268.008 8.18591L273.206 3.24309C276.295 0.305841 281.144 0.306148 284.232 3.24379L289.426 8.18351C292.486 11.0945 297.282 11.1248 300.379 8.25271L305.994 3.04502C309.063 0.199363 313.806 0.199367 316.874 3.04502L325.44 10.9889C327.072 12.5027 328 14.6283 328 16.8546V102V187.145C328 189.372 327.072 191.497 325.44 193.011L316.874 200.955C313.806 203.801 309.063 203.801 305.994 200.955L300.379 195.747C297.282 192.875 292.486 192.905 289.426 195.816L284.232 200.756C281.144 203.694 276.295 203.694 273.206 200.757L268.008 195.814C264.948 192.904 260.152 192.874 257.055 195.746L251.438 200.955C248.37 203.801 243.627 203.801 240.558 200.955L234.874 195.684C231.806 192.838 227.063 192.838 223.994 195.684L218.31 200.955C215.242 203.801 210.499 203.801 207.431 200.955L201.814 195.746C198.717 192.874 193.921 192.904 190.861 195.815L185.665 200.756C182.576 203.694 177.727 203.694 174.638 200.756L169.444 195.815C166.384 192.904 161.588 192.874 158.491 195.746L152.874 200.955C149.806 203.801 145.063 203.801 141.994 200.956L136.376 195.746C133.279 192.874 128.483 192.904 125.423 195.815L120.229 200.756C117.14 203.693 112.29 203.693 109.202 200.756L104.01 195.817C100.95 192.906 96.1534 192.876 93.0564 195.748L87.4416 200.955C84.3733 203.801 79.6304 203.801 76.562 200.956L70.9438 195.746C67.8468 192.874 63.0509 192.904 59.9906 195.815L54.7966 200.756C51.708 203.693 46.8582 203.693 43.7695 200.756L38.5756 195.815C35.5152 192.904 30.7191 192.874 27.6221 195.746L22.0056 200.955C18.9372 203.801 14.1941 203.801 11.1257 200.955L2.56007 193.011C0.927708 191.497 0 189.372 0 187.145V102V16.8546C0 14.6283 0.927708 12.5027 2.56007 10.9889Z" fill="#FDFDFD"/>
<path d="M11.1257 3.04501L12.1457 4.14484L11.1257 3.04501ZM2.56007 10.9889L1.54009 9.88902L1.54009 9.88902L2.56007 10.9889ZM27.6221 8.25379L28.6421 7.15396L27.6221 8.25379ZM22.0056 3.04502L20.9856 4.14485L22.0056 3.04502ZM43.7695 3.24439L44.8033 4.33125V4.33125L43.7695 3.24439ZM38.5756 8.18464L37.5418 7.09777L38.5756 8.18464ZM59.9906 8.18483L58.9568 9.27168L59.9906 8.18483ZM54.7966 3.24443L55.8304 2.15757L54.7966 3.24443ZM70.9438 8.25429L71.9638 9.35417V9.35417L70.9438 8.25429ZM76.562 3.04449L75.5421 1.94461V1.94461L76.562 3.04449ZM120.229 3.24445L121.263 2.15759V2.15759L120.229 3.24445ZM125.423 8.18482L124.389 9.27168V9.27168L125.423 8.18482ZM104.01 8.18282L102.976 7.09596L104.01 8.18282ZM109.202 3.24445L108.168 2.15759V2.15759L109.202 3.24445ZM87.4416 3.04476L88.4616 1.94493V1.94493L87.4416 3.04476ZM93.0564 8.25201L92.0364 9.35184V9.35184L93.0564 8.25201ZM136.376 8.25429L137.396 9.35417V9.35417L136.376 8.25429ZM141.994 3.0445L140.974 1.94462V1.94462L141.994 3.0445ZM152.874 3.04476L153.894 1.94493V1.94493L152.874 3.04476ZM158.491 8.2538L157.471 9.35363V9.35363L158.491 8.2538ZM174.638 3.24412L173.605 2.15726V2.15726L174.638 3.24412ZM169.444 8.18464L170.478 9.2715V9.2715L169.444 8.18464ZM190.861 8.18512L189.827 9.27203V9.27203L190.861 8.18512ZM185.665 3.24387L186.699 2.15696V2.15696L185.665 3.24387ZM201.814 8.25403L200.794 7.1542V7.1542L201.814 8.25403ZM207.431 3.04502L206.411 1.94519V1.94519L207.431 3.04502ZM251.438 3.04502L252.458 1.94519V1.94518L251.438 3.04502ZM257.055 8.25441L256.035 9.35423V9.35424L257.055 8.25441ZM234.874 8.31633L233.854 7.2165L234.874 8.31633ZM240.558 3.04502L241.578 4.14485V4.14485L240.558 3.04502ZM218.31 3.04501L219.33 1.94518L218.31 3.04501ZM223.994 8.31634L222.974 9.41617V9.41617L223.994 8.31634ZM268.008 8.18591L269.042 9.2729V9.2729L268.008 8.18591ZM273.206 3.24309L272.172 2.1561V2.15611L273.206 3.24309ZM325.44 10.9889L326.46 9.88903V9.88903L325.44 10.9889ZM316.874 3.04502L315.854 4.14485V4.14485L316.874 3.04502ZM305.994 3.04502L307.014 4.14485V4.14484L305.994 3.04502ZM300.379 8.25271L299.359 7.15288L300.379 8.25271ZM284.232 3.24379L285.266 2.15694V2.15694L284.232 3.24379ZM289.426 8.18351L288.392 9.27036V9.27037L289.426 8.18351ZM11.1257 200.955L10.1058 202.055L10.1058 202.055L11.1257 200.955ZM2.56007 193.011L3.58006 191.911L3.58006 191.911L2.56007 193.011ZM27.6221 195.746L28.6421 196.846H28.6421L27.6221 195.746ZM22.0056 200.955L20.9856 199.855H20.9856L22.0056 200.955ZM43.7695 200.756L42.7357 201.842L43.7695 200.756ZM38.5756 195.815L39.6094 194.728L38.5756 195.815ZM59.9906 195.815L61.0244 196.902L59.9906 195.815ZM54.7966 200.756L55.8304 201.842H55.8304L54.7966 200.756ZM70.9438 195.746L71.9638 194.646H71.9638L70.9438 195.746ZM76.562 200.956L75.5421 202.055H75.5421L76.562 200.956ZM120.229 200.756L121.263 201.842L120.229 200.756ZM125.423 195.815L124.389 194.728L125.423 195.815ZM104.01 195.817L105.044 194.73L104.01 195.817ZM109.202 200.756L108.168 201.842L109.202 200.756ZM87.4416 200.955L86.4216 199.855L87.4416 200.955ZM93.0564 195.748L94.0764 196.848L93.0564 195.748ZM136.376 195.746L137.396 194.646L136.376 195.746ZM141.994 200.956L140.974 202.055L141.994 200.956ZM152.874 200.955L151.854 199.855V199.855L152.874 200.955ZM158.491 195.746L159.511 196.846V196.846L158.491 195.746ZM174.638 200.756L173.605 201.843L174.638 200.756ZM169.444 195.815L170.478 194.728L169.444 195.815ZM190.861 195.815L191.894 196.902L190.861 195.815ZM185.665 200.756L184.631 199.669H184.631L185.665 200.756ZM201.814 195.746L200.794 196.846V196.846L201.814 195.746ZM207.431 200.955L208.451 199.855V199.855L207.431 200.955ZM251.438 200.955L250.418 199.855V199.855L251.438 200.955ZM257.055 195.746L256.035 194.646L257.055 195.746ZM234.874 195.684L233.854 196.783L234.874 195.684ZM240.558 200.955L239.538 202.055V202.055L240.558 200.955ZM218.31 200.955L219.33 202.055V202.055L218.31 200.955ZM223.994 195.684L222.974 194.584V194.584L223.994 195.684ZM268.008 195.814L269.042 194.727L268.008 195.814ZM273.206 200.757L272.172 201.844L273.206 200.757ZM325.44 193.011L326.46 194.111V194.111L325.44 193.011ZM316.874 200.955L315.854 199.855V199.855L316.874 200.955ZM305.994 200.955L307.014 199.855V199.855L305.994 200.955ZM300.379 195.747L301.399 194.647L300.379 195.747ZM284.232 200.756L285.266 201.843L284.232 200.756ZM289.426 195.816L288.392 194.73H288.392L289.426 195.816ZM10.1058 1.94518L1.54009 9.88902L3.58006 12.0887L12.1457 4.14484L10.1058 1.94518ZM28.6421 7.15396L23.0256 1.94519L20.9856 4.14485L26.6021 9.35362L28.6421 7.15396ZM42.7357 2.15753L37.5418 7.09777L39.6094 9.2715L44.8033 4.33125L42.7357 2.15753ZM61.0244 7.09797L55.8304 2.15757L53.7628 4.33128L58.9568 9.27168L61.0244 7.09797ZM71.9638 9.35417L77.5819 4.14437L75.5421 1.94461L69.9239 7.15441L71.9638 9.35417ZM119.195 4.33131L124.389 9.27168L126.457 7.09797L121.263 2.15759L119.195 4.33131ZM105.044 9.26967L110.236 4.3313L108.168 2.15759L102.976 7.09596L105.044 9.26967ZM86.4216 4.14459L92.0364 9.35184L94.0764 7.15218L88.4616 1.94493L86.4216 4.14459ZM137.396 9.35417L143.014 4.14438L140.974 1.94462L135.356 7.15441L137.396 9.35417ZM151.854 4.14459L157.471 9.35363L159.511 7.15397L153.894 1.94493L151.854 4.14459ZM173.605 2.15726L168.41 7.09777L170.478 9.2715L175.672 4.33098L173.605 2.15726ZM191.894 7.09821L186.699 2.15696L184.631 4.33078L189.827 9.27203L191.894 7.09821ZM202.834 9.35386L208.451 4.14485L206.411 1.94519L200.794 7.1542L202.834 9.35386ZM250.418 4.14485L256.035 9.35423L258.075 7.15458L252.458 1.94519L250.418 4.14485ZM235.894 9.41616L241.578 4.14485L239.538 1.94519L233.854 7.2165L235.894 9.41616ZM217.29 4.14484L222.974 9.41617L225.014 7.21651L219.33 1.94518L217.29 4.14484ZM269.042 9.2729L274.239 4.33008L272.172 2.15611L266.974 7.09893L269.042 9.2729ZM326.46 9.88903L317.894 1.94519L315.854 4.14485L324.42 12.0887L326.46 9.88903ZM304.974 1.94518L299.359 7.15288L301.399 9.35254L307.014 4.14485L304.974 1.94518ZM283.198 4.33065L288.392 9.27036L290.459 7.09665L285.266 2.15694L283.198 4.33065ZM326.5 16.8546V102H329.5V16.8546H326.5ZM1.5 102V16.8546H-1.5V102H1.5ZM12.1457 199.855L3.58006 191.911L1.54008 194.111L10.1058 202.055L12.1457 199.855ZM26.6021 194.646L20.9856 199.855L23.0256 202.055L28.6421 196.846L26.6021 194.646ZM44.8033 199.669L39.6094 194.728L37.5418 196.902L42.7357 201.842L44.8033 199.669ZM58.9568 194.728L53.7628 199.669L55.8304 201.842L61.0244 196.902L58.9568 194.728ZM69.9239 196.846L75.5421 202.055L77.5819 199.856L71.9638 194.646L69.9239 196.846ZM121.263 201.842L126.457 196.902L124.389 194.728L119.195 199.669L121.263 201.842ZM102.976 196.904L108.168 201.842L110.236 199.669L105.044 194.73L102.976 196.904ZM88.4616 202.055L94.0764 196.848L92.0364 194.648L86.4216 199.855L88.4616 202.055ZM135.356 196.846L140.974 202.055L143.014 199.856L137.396 194.646L135.356 196.846ZM153.894 202.055L159.511 196.846L157.471 194.646L151.854 199.855L153.894 202.055ZM175.672 199.669L170.478 194.728L168.41 196.902L173.605 201.843L175.672 199.669ZM189.827 194.728L184.631 199.669L186.699 201.843L191.894 196.902L189.827 194.728ZM200.794 196.846L206.411 202.055L208.451 199.855L202.834 194.646L200.794 196.846ZM252.458 202.055L258.075 196.845L256.035 194.646L250.418 199.855L252.458 202.055ZM233.854 196.783L239.538 202.055L241.578 199.855L235.894 194.584L233.854 196.783ZM219.33 202.055L225.014 196.783L222.974 194.584L217.29 199.855L219.33 202.055ZM266.974 196.901L272.172 201.844L274.239 199.67L269.042 194.727L266.974 196.901ZM324.42 191.911L315.854 199.855L317.894 202.055L326.46 194.111L324.42 191.911ZM307.014 199.855L301.399 194.647L299.359 196.847L304.974 202.055L307.014 199.855ZM285.266 201.843L290.459 196.903L288.392 194.73L283.198 199.669L285.266 201.843ZM329.5 187.145V102H326.5V187.145H329.5ZM-1.5 102V187.145H1.5V102H-1.5ZM301.399 194.647C297.721 191.237 292.026 191.273 288.392 194.73L290.459 196.903C292.946 194.538 296.843 194.514 299.359 196.847L301.399 194.647ZM315.854 199.855C313.361 202.167 309.507 202.167 307.014 199.855L304.974 202.055C308.618 205.434 314.251 205.434 317.894 202.055L315.854 199.855ZM326.46 194.111C328.398 192.313 329.5 189.789 329.5 187.145H326.5C326.5 188.954 325.746 190.681 324.42 191.911L326.46 194.111ZM272.172 201.844C275.84 205.332 281.599 205.332 285.266 201.843L283.198 199.669C280.689 202.056 276.749 202.056 274.239 199.67L272.172 201.844ZM235.894 194.584C232.25 191.205 226.618 191.205 222.974 194.584L225.014 196.783C227.507 194.471 231.361 194.471 233.854 196.783L235.894 194.584ZM258.075 196.845C260.591 194.512 264.488 194.536 266.974 196.901L269.042 194.727C265.407 191.271 259.713 191.235 256.035 194.646L258.075 196.845ZM250.418 199.855C247.925 202.167 244.071 202.167 241.578 199.855L239.538 202.055C243.182 205.434 248.814 205.434 252.458 202.055L250.418 199.855ZM206.411 202.055C210.054 205.434 215.687 205.434 219.33 202.055L217.29 199.855C214.797 202.167 210.944 202.167 208.451 199.855L206.411 202.055ZM191.894 196.902C194.381 194.537 198.278 194.512 200.794 196.846L202.834 194.646C199.156 191.236 193.461 191.271 189.827 194.728L191.894 196.902ZM173.605 201.843C177.272 205.331 183.031 205.331 186.699 201.843L184.631 199.669C182.122 202.056 178.182 202.056 175.672 199.669L173.605 201.843ZM159.511 196.846C162.027 194.512 165.924 194.537 168.41 196.902L170.478 194.728C166.844 191.272 161.148 191.236 157.471 194.646L159.511 196.846ZM140.974 202.055C144.618 205.434 150.25 205.434 153.894 202.055L151.854 199.855C149.361 202.167 145.507 202.167 143.014 199.856L140.974 202.055ZM105.044 194.73C101.41 191.273 95.7141 191.238 92.0364 194.648L94.0764 196.848C96.5927 194.514 100.49 194.539 102.976 196.904L105.044 194.73ZM126.457 196.902C128.943 194.537 132.84 194.512 135.356 196.846L137.396 194.646C133.718 191.235 128.023 191.272 124.389 194.728L126.457 196.902ZM119.195 199.669C116.686 202.056 112.745 202.056 110.236 199.669L108.168 201.842C111.836 205.331 117.595 205.331 121.263 201.842L119.195 199.669ZM75.5421 202.055C79.1858 205.434 84.818 205.434 88.4616 202.055L86.4216 199.855C83.9286 202.167 80.075 202.167 77.5819 199.856L75.5421 202.055ZM61.0244 196.902C63.5109 194.537 67.4076 194.512 69.9239 196.846L71.9638 194.646C68.2861 191.235 62.5909 191.272 58.9568 194.728L61.0244 196.902ZM42.7357 201.842C46.4035 205.331 52.1626 205.331 55.8304 201.842L53.7628 199.669C51.2533 202.056 47.3128 202.056 44.8033 199.669L42.7357 201.842ZM28.6421 196.846C31.1584 194.512 35.0552 194.537 37.5418 196.902L39.6094 194.728C35.9752 191.272 30.2797 191.236 26.6021 194.646L28.6421 196.846ZM299.359 7.15288C296.843 9.48648 292.946 9.46186 290.459 7.09665L288.392 9.27037C292.026 12.7272 297.721 12.7632 301.399 9.35254L299.359 7.15288ZM317.894 1.94519C314.251 -1.43402 308.618 -1.43403 304.974 1.94519L307.014 4.14484C309.507 1.83276 313.361 1.83276 315.854 4.14485L317.894 1.94519ZM324.42 12.0887C325.746 13.3187 326.5 15.0458 326.5 16.8546H329.5C329.5 14.2109 328.398 11.6867 326.46 9.88903L324.42 12.0887ZM274.239 4.33009C276.749 1.94356 280.689 1.94381 283.198 4.33065L285.266 2.15694C281.599 -1.33152 275.84 -1.33188 272.172 2.1561L274.239 4.33009ZM233.854 7.2165C231.361 9.52859 227.507 9.5286 225.014 7.2165L222.974 9.41617C226.618 12.7954 232.25 12.7954 235.894 9.41616L233.854 7.2165ZM256.035 9.35424C259.713 12.7646 265.407 12.729 269.042 9.2729L266.974 7.09892C264.488 9.4636 260.591 9.48796 258.075 7.15457L256.035 9.35424ZM252.458 1.94518C248.814 -1.43402 243.182 -1.43403 239.538 1.94519L241.578 4.14485C244.071 1.83275 247.925 1.83275 250.418 4.14485L252.458 1.94518ZM208.451 4.14485C210.944 1.83275 214.797 1.83275 217.29 4.14484L219.33 1.94518C215.687 -1.43403 210.054 -1.43402 206.411 1.94519L208.451 4.14485ZM189.827 9.27203C193.461 12.7285 199.156 12.7644 202.834 9.35386L200.794 7.1542C198.278 9.48771 194.381 9.46319 191.894 7.09821L189.827 9.27203ZM175.672 4.33098C178.182 1.94404 182.122 1.94395 184.631 4.33078L186.699 2.15696C183.031 -1.33147 177.272 -1.33135 173.605 2.15726L175.672 4.33098ZM157.471 9.35363C161.148 12.7643 166.844 12.7283 170.478 9.2715L168.41 7.09777C165.924 9.46295 162.027 9.48756 159.511 7.15397L157.471 9.35363ZM143.014 4.14438C145.507 1.83249 149.361 1.83258 151.854 4.14459L153.894 1.94493C150.25 -1.43416 144.618 -1.43429 140.974 1.94462L143.014 4.14438ZM102.976 7.09596C100.49 9.46116 96.5927 9.48578 94.0764 7.15218L92.0364 9.35184C95.7141 12.7625 101.41 12.7265 105.044 9.26967L102.976 7.09596ZM124.389 9.27168C128.023 12.7284 133.718 12.7645 137.396 9.35417L135.356 7.15441C132.84 9.4878 128.943 9.46308 126.457 7.09797L124.389 9.27168ZM121.263 2.15759C117.595 -1.33117 111.836 -1.33118 108.168 2.15759L110.236 4.3313C112.745 1.94425 116.686 1.94425 119.195 4.33131L121.263 2.15759ZM77.5819 4.14438C80.075 1.83249 83.9286 1.83258 86.4216 4.14459L88.4616 1.94493C84.818 -1.43416 79.1858 -1.43429 75.5421 1.94461L77.5819 4.14438ZM58.9568 9.27168C62.5909 12.7284 68.2861 12.7645 71.9638 9.35417L69.9239 7.15441C67.4076 9.4878 63.5109 9.46309 61.0244 7.09797L58.9568 9.27168ZM44.8033 4.33125C47.3128 1.94423 51.2533 1.94424 53.7628 4.33128L55.8304 2.15757C52.1626 -1.33118 46.4035 -1.33121 42.7357 2.15753L44.8033 4.33125ZM26.6021 9.35362C30.2797 12.7643 35.9752 12.7283 39.6094 9.2715L37.5418 7.09777C35.0552 9.46295 31.1584 9.48755 28.6421 7.15396L26.6021 9.35362ZM3.58006 191.911C2.25376 190.681 1.5 188.954 1.5 187.145H-1.5C-1.5 189.789 -0.398347 192.313 1.54009 194.111L3.58006 191.911ZM1.54009 9.88902C-0.398346 11.6867 -1.5 14.2109 -1.5 16.8546H1.5C1.5 15.0457 2.25376 13.3187 3.58006 12.0887L1.54009 9.88902ZM10.1058 202.055C13.7495 205.434 19.3819 205.434 23.0256 202.055L20.9856 199.855C18.4925 202.167 14.6388 202.167 12.1457 199.855L10.1058 202.055ZM12.1457 4.14484C14.6388 1.83275 18.4925 1.83276 20.9856 4.14485L23.0256 1.94519C19.3819 -1.43402 13.7495 -1.43403 10.1058 1.94518L12.1457 4.14484Z" fill="#F8981D" mask="url(#path-1-inside-1_400_285)"/>
</svg>
