<svg width="332" height="218" viewBox="0 0 332 218" fill="none" xmlns="http://www.w3.org/2000/svg">
<mask id="path-1-inside-1_400_267" fill="white">
<path d="M2.38111 11.1954L11.1488 2.54421C14.2641 -0.529698 19.2713 -0.529692 22.3866 2.54422L27.845 7.93004C30.9884 11.0317 36.0504 10.9996 39.1543 7.85849L44.1936 2.7588C47.3253 -0.410519 52.4428 -0.410505 55.5746 2.75884L60.6139 7.85871C63.7177 10.9998 68.7796 11.032 71.923 7.93057L77.383 2.54365C80.4984 -0.529991 85.5053 -0.529866 88.6205 2.54393L94.0772 7.92812C97.2207 11.0298 102.283 10.9977 105.387 7.85654L110.424 2.75886C113.556 -0.410491 118.673 -0.410484 121.805 2.75887L126.844 7.85871C129.948 10.9998 135.01 11.032 138.153 7.93057L143.613 2.54365C146.729 -0.529991 151.736 -0.529865 154.851 2.54393L160.309 7.93003C163.453 11.0317 168.515 10.9996 171.619 7.85849L176.658 2.75851C179.79 -0.410699 184.907 -0.410813 188.039 2.75825L193.08 7.85901C196.184 10.9999 201.246 11.0318 204.389 7.9303L209.848 2.54422C212.963 -0.529693 217.97 -0.529699 221.085 2.54421L226.613 7.99878C229.729 11.0727 234.736 11.0727 237.851 7.99878L243.379 2.54422C246.495 -0.529696 251.502 -0.529695 254.617 2.54422L260.076 7.93071C263.219 11.0321 268.281 11.0004 271.385 7.85986L276.428 2.75742C279.56 -0.411256 284.677 -0.410928 287.808 2.75815L292.847 7.85729C295.951 10.9985 301.013 11.0305 304.156 7.92887L309.613 2.54421C312.729 -0.529696 317.736 -0.529692 320.851 2.54422L329.619 11.1954C331.142 12.6986 332 14.7497 332 16.89V109V201.11C332 203.25 331.142 205.301 329.619 206.805L320.851 215.456C317.736 218.53 312.729 218.53 309.613 215.456L304.156 210.071C301.013 206.969 295.951 207.002 292.847 210.143L287.808 215.242C284.677 218.411 279.56 218.411 276.428 215.243L271.385 210.14C268.281 207 263.219 206.968 260.076 210.069L254.617 215.456C251.502 218.53 246.495 218.53 243.379 215.456L237.851 210.001C234.736 206.927 229.729 206.927 226.613 210.001L221.085 215.456C217.97 218.53 212.963 218.53 209.848 215.456L204.389 210.07C201.246 206.968 196.184 207 193.08 210.141L188.039 215.242C184.907 218.411 179.79 218.411 176.658 215.242L171.619 210.142C168.515 207 163.453 206.968 160.309 210.07L154.851 215.456C151.736 218.53 146.729 218.53 143.613 215.456L138.153 210.069C135.01 206.968 129.948 207 126.844 210.141L121.805 215.241C118.673 218.41 113.556 218.41 110.424 215.241L105.387 210.143C102.283 207.002 97.2207 206.97 94.0772 210.072L88.6205 215.456C85.5053 218.53 80.4984 218.53 77.383 215.456L71.923 210.069C68.7796 206.968 63.7177 207 60.6139 210.141L55.5746 215.241C52.4428 218.411 47.3253 218.411 44.1936 215.241L39.1543 210.142C36.0504 207 30.9884 206.968 27.845 210.07L22.3866 215.456C19.2713 218.53 14.2641 218.53 11.1488 215.456L2.38111 206.805C0.857617 205.301 0 203.25 0 201.11V109V16.89C0 14.7497 0.857617 12.6986 2.38111 11.1954Z"/>
</mask>
<path d="M2.38111 11.1954L11.1488 2.54421C14.2641 -0.529698 19.2713 -0.529692 22.3866 2.54422L27.845 7.93004C30.9884 11.0317 36.0504 10.9996 39.1543 7.85849L44.1936 2.7588C47.3253 -0.410519 52.4428 -0.410505 55.5746 2.75884L60.6139 7.85871C63.7177 10.9998 68.7796 11.032 71.923 7.93057L77.383 2.54365C80.4984 -0.529991 85.5053 -0.529866 88.6205 2.54393L94.0772 7.92812C97.2207 11.0298 102.283 10.9977 105.387 7.85654L110.424 2.75886C113.556 -0.410491 118.673 -0.410484 121.805 2.75887L126.844 7.85871C129.948 10.9998 135.01 11.032 138.153 7.93057L143.613 2.54365C146.729 -0.529991 151.736 -0.529865 154.851 2.54393L160.309 7.93003C163.453 11.0317 168.515 10.9996 171.619 7.85849L176.658 2.75851C179.79 -0.410699 184.907 -0.410813 188.039 2.75825L193.08 7.85901C196.184 10.9999 201.246 11.0318 204.389 7.9303L209.848 2.54422C212.963 -0.529693 217.97 -0.529699 221.085 2.54421L226.613 7.99878C229.729 11.0727 234.736 11.0727 237.851 7.99878L243.379 2.54422C246.495 -0.529696 251.502 -0.529695 254.617 2.54422L260.076 7.93071C263.219 11.0321 268.281 11.0004 271.385 7.85986L276.428 2.75742C279.56 -0.411256 284.677 -0.410928 287.808 2.75815L292.847 7.85729C295.951 10.9985 301.013 11.0305 304.156 7.92887L309.613 2.54421C312.729 -0.529696 317.736 -0.529692 320.851 2.54422L329.619 11.1954C331.142 12.6986 332 14.7497 332 16.89V109V201.11C332 203.25 331.142 205.301 329.619 206.805L320.851 215.456C317.736 218.53 312.729 218.53 309.613 215.456L304.156 210.071C301.013 206.969 295.951 207.002 292.847 210.143L287.808 215.242C284.677 218.411 279.56 218.411 276.428 215.243L271.385 210.14C268.281 207 263.219 206.968 260.076 210.069L254.617 215.456C251.502 218.53 246.495 218.53 243.379 215.456L237.851 210.001C234.736 206.927 229.729 206.927 226.613 210.001L221.085 215.456C217.97 218.53 212.963 218.53 209.848 215.456L204.389 210.07C201.246 206.968 196.184 207 193.08 210.141L188.039 215.242C184.907 218.411 179.79 218.411 176.658 215.242L171.619 210.142C168.515 207 163.453 206.968 160.309 210.07L154.851 215.456C151.736 218.53 146.729 218.53 143.613 215.456L138.153 210.069C135.01 206.968 129.948 207 126.844 210.141L121.805 215.241C118.673 218.41 113.556 218.41 110.424 215.241L105.387 210.143C102.283 207.002 97.2207 206.97 94.0772 210.072L88.6205 215.456C85.5053 218.53 80.4984 218.53 77.383 215.456L71.923 210.069C68.7796 206.968 63.7177 207 60.6139 210.141L55.5746 215.241C52.4428 218.411 47.3253 218.411 44.1936 215.241L39.1543 210.142C36.0504 207 30.9884 206.968 27.845 210.07L22.3866 215.456C19.2713 218.53 14.2641 218.53 11.1488 215.456L2.38111 206.805C0.857617 205.301 0 203.25 0 201.11V109V16.89C0 14.7497 0.857617 12.6986 2.38111 11.1954Z" fill="#FDFDFD"/>
<path d="M11.1488 2.54421L12.2023 3.61194L11.1488 2.54421ZM2.38111 11.1954L3.43466 12.2631H3.43466L2.38111 11.1954ZM27.845 7.93004L28.8985 6.86231V6.86231L27.845 7.93004ZM22.3866 2.54422L23.4401 1.47649V1.47649L22.3866 2.54422ZM44.1936 2.7588L43.1266 1.70449L44.1936 2.7588ZM39.1543 7.85849L38.0874 6.80417L39.1543 7.85849ZM60.6139 7.85871L59.5469 8.91302H59.5469L60.6139 7.85871ZM55.5746 2.75884L56.6415 1.70453V1.70453L55.5746 2.75884ZM71.923 7.93057L70.8695 6.86279V6.86279L71.923 7.93057ZM77.383 2.54365L76.3296 1.47587V1.47587L77.383 2.54365ZM121.805 2.75887L120.738 3.81318L121.805 2.75887ZM126.844 7.85871L127.911 6.8044L126.844 7.85871ZM105.387 7.85654L106.454 8.91085V8.91085L105.387 7.85654ZM110.424 2.75886L109.357 1.70455V1.70455L110.424 2.75886ZM88.6205 2.54393L87.567 3.61166V3.61167L88.6205 2.54393ZM94.0772 7.92812L93.0237 8.99585L94.0772 7.92812ZM138.153 7.93057L137.1 6.86279V6.86279L138.153 7.93057ZM143.613 2.54365L144.667 3.61144V3.61144L143.613 2.54365ZM154.851 2.54393L155.904 1.4762L154.851 2.54393ZM160.309 7.93003L161.363 6.8623V6.8623L160.309 7.93003ZM176.658 2.75851L177.725 3.81282V3.81282L176.658 2.75851ZM171.619 7.85849L172.686 8.9128L171.619 7.85849ZM193.08 7.85901L194.147 6.80464L193.08 7.85901ZM188.039 2.75825L186.972 3.81262L188.039 2.75825ZM204.389 7.9303L205.442 8.99803V8.99803L204.389 7.9303ZM209.848 2.54422L208.794 1.47648V1.47649L209.848 2.54422ZM254.617 2.54422L253.563 3.61195V3.61195L254.617 2.54422ZM260.076 7.93071L261.13 6.86298L261.13 6.86298L260.076 7.93071ZM237.851 7.99878L236.798 6.93105V6.93105L237.851 7.99878ZM243.379 2.54422L244.433 3.61195V3.61195L243.379 2.54422ZM221.085 2.54421L220.032 3.61194V3.61194L221.085 2.54421ZM226.613 7.99878L227.667 6.93105L226.613 7.99878ZM271.385 7.85986L272.452 8.9143V8.9143L271.385 7.85986ZM276.428 2.75742L275.361 1.70297V1.70298L276.428 2.75742ZM329.619 11.1954L328.565 12.2631V12.2631L329.619 11.1954ZM320.851 2.54422L321.905 1.47649V1.47648L320.851 2.54422ZM309.613 2.54421L308.56 1.47648V1.47648L309.613 2.54421ZM304.156 7.92887L303.103 6.86114L303.103 6.86114L304.156 7.92887ZM287.808 2.75815L288.875 1.70384L287.808 2.75815ZM292.847 7.85729L293.914 6.80298V6.80298L292.847 7.85729ZM11.1488 215.456L12.2023 214.388H12.2023L11.1488 215.456ZM2.38111 206.805L3.43466 205.737L2.38111 206.805ZM27.845 210.07L26.7914 209.002H26.7914L27.845 210.07ZM22.3866 215.456L23.4401 216.524H23.4401L22.3866 215.456ZM44.1936 215.241L43.1266 216.296H43.1266L44.1936 215.241ZM39.1543 210.142L38.0874 211.196L39.1543 210.142ZM60.6139 210.141L59.5469 209.087L60.6139 210.141ZM55.5746 215.241L54.5076 214.187H54.5076L55.5746 215.241ZM71.923 210.069L70.8695 211.137L71.923 210.069ZM77.383 215.456L76.3296 216.524L77.383 215.456ZM121.805 215.241L120.738 214.187L121.805 215.241ZM126.844 210.141L125.777 209.087L126.844 210.141ZM105.387 210.143L106.454 209.089L105.387 210.143ZM110.424 215.241L109.357 216.295L110.424 215.241ZM88.6205 215.456L87.567 214.388L88.6205 215.456ZM94.0772 210.072L95.1308 211.14L94.0772 210.072ZM138.153 210.069L139.207 209.002L138.153 210.069ZM143.613 215.456L142.56 216.524L143.613 215.456ZM154.851 215.456L153.797 214.388L154.851 215.456ZM160.309 210.07L161.363 211.138L160.309 210.07ZM176.658 215.242L177.725 214.187L176.658 215.242ZM171.619 210.142L170.552 211.196L171.619 210.142ZM193.08 210.141L194.147 211.195L193.08 210.141ZM188.039 215.242L186.972 214.187L188.039 215.242ZM204.389 210.07L205.442 209.002L204.389 210.07ZM209.848 215.456L210.901 214.388L209.848 215.456ZM254.617 215.456L253.563 214.388L254.617 215.456ZM260.076 210.069L261.13 211.137L260.076 210.069ZM237.851 210.001L236.798 211.069L237.851 210.001ZM243.379 215.456L244.433 214.388L243.379 215.456ZM221.085 215.456L220.032 214.388L221.085 215.456ZM226.613 210.001L227.667 211.069L226.613 210.001ZM271.385 210.14L272.452 209.086L271.385 210.14ZM276.428 215.243L277.495 214.188L276.428 215.243ZM329.619 206.805L328.565 205.737L329.619 206.805ZM320.851 215.456L321.905 216.524L320.851 215.456ZM309.613 215.456L308.56 216.524L309.613 215.456ZM304.156 210.071L303.103 211.139H303.103L304.156 210.071ZM287.808 215.242L288.875 216.296H288.875L287.808 215.242ZM292.847 210.143L293.914 211.197L292.847 210.143ZM10.0953 1.47648L1.32757 10.1277L3.43466 12.2631L12.2023 3.61194L10.0953 1.47648ZM28.8985 6.86231L23.4401 1.47649L21.333 3.61195L26.7914 8.99777L28.8985 6.86231ZM43.1266 1.70449L38.0874 6.80417L40.2213 8.9128L45.2605 3.81312L43.1266 1.70449ZM61.6809 6.8044L56.6415 1.70453L54.5076 3.81315L59.5469 8.91302L61.6809 6.8044ZM72.9765 8.99836L78.4365 3.61144L76.3296 1.47587L70.8695 6.86279L72.9765 8.99836ZM120.738 3.81318L125.777 8.91302L127.911 6.8044L122.872 1.70456L120.738 3.81318ZM106.454 8.91085L111.491 3.81317L109.357 1.70455L104.32 6.80223L106.454 8.91085ZM87.567 3.61167L93.0237 8.99585L95.1308 6.86038L89.6741 1.4762L87.567 3.61167ZM139.207 8.99835L144.667 3.61144L142.56 1.47587L137.1 6.86279L139.207 8.99835ZM153.797 3.61167L159.256 8.99777L161.363 6.8623L155.904 1.4762L153.797 3.61167ZM175.591 1.70419L170.552 6.80417L172.686 8.9128L177.725 3.81282L175.591 1.70419ZM194.147 6.80464L189.106 1.70389L186.972 3.81262L192.013 8.91337L194.147 6.80464ZM205.442 8.99803L210.901 3.61195L208.794 1.47649L203.335 6.86257L205.442 8.99803ZM253.563 3.61195L259.022 8.99845L261.13 6.86298L255.671 1.47648L253.563 3.61195ZM238.905 9.06651L244.433 3.61195L242.326 1.47648L236.798 6.93105L238.905 9.06651ZM220.032 3.61194L225.56 9.06651L227.667 6.93105L222.139 1.47648L220.032 3.61194ZM272.452 8.9143L277.495 3.81186L275.361 1.70298L270.318 6.80541L272.452 8.9143ZM330.672 10.1277L321.905 1.47649L319.798 3.61195L328.565 12.2631L330.672 10.1277ZM308.56 1.47648L303.103 6.86114L305.21 8.9966L310.667 3.61194L308.56 1.47648ZM286.741 3.81246L291.78 8.9116L293.914 6.80298L288.875 1.70384L286.741 3.81246ZM330.5 16.89V109H333.5V16.89H330.5ZM1.5 109V16.89H-1.5V109H1.5ZM12.2023 214.388L3.43466 205.737L1.32757 207.872L10.0953 216.524L12.2023 214.388ZM26.7914 209.002L21.333 214.388L23.4401 216.524L28.8985 211.138L26.7914 209.002ZM45.2605 214.187L40.2213 209.087L38.0874 211.196L43.1266 216.296L45.2605 214.187ZM59.5469 209.087L54.5076 214.187L56.6415 216.295L61.6809 211.196L59.5469 209.087ZM70.8695 211.137L76.3296 216.524L78.4365 214.389L72.9765 209.002L70.8695 211.137ZM122.872 216.295L127.911 211.196L125.777 209.087L120.738 214.187L122.872 216.295ZM104.32 211.198L109.357 216.295L111.491 214.187L106.454 209.089L104.32 211.198ZM89.6741 216.524L95.1308 211.14L93.0237 209.004L87.567 214.388L89.6741 216.524ZM137.1 211.137L142.56 216.524L144.667 214.389L139.207 209.002L137.1 211.137ZM155.904 216.524L161.363 211.138L159.256 209.002L153.797 214.388L155.904 216.524ZM177.725 214.187L172.686 209.087L170.552 211.196L175.591 216.296L177.725 214.187ZM192.013 209.087L186.972 214.187L189.106 216.296L194.147 211.195L192.013 209.087ZM203.335 211.137L208.794 216.524L210.901 214.388L205.442 209.002L203.335 211.137ZM255.671 216.524L261.13 211.137L259.022 209.002L253.563 214.388L255.671 216.524ZM236.798 211.069L242.326 216.524L244.433 214.388L238.905 208.934L236.798 211.069ZM222.139 216.524L227.667 211.069L225.56 208.934L220.032 214.388L222.139 216.524ZM270.318 211.195L275.361 216.297L277.495 214.188L272.452 209.086L270.318 211.195ZM328.565 205.737L319.798 214.388L321.905 216.524L330.672 207.872L328.565 205.737ZM310.667 214.388L305.21 209.003L303.103 211.139L308.56 216.524L310.667 214.388ZM288.875 216.296L293.914 211.197L291.78 209.088L286.741 214.188L288.875 216.296ZM333.5 201.11V109H330.5V201.11H333.5ZM-1.5 109V201.11H1.5V109H-1.5ZM305.21 209.003C301.477 205.32 295.466 205.358 291.78 209.088L293.914 211.197C296.436 208.645 300.549 208.619 303.103 211.139L305.21 209.003ZM319.798 214.388C317.266 216.886 313.198 216.886 310.667 214.388L308.56 216.524C312.259 220.174 318.205 220.174 321.905 216.524L319.798 214.388ZM330.672 207.872C332.482 206.087 333.5 203.652 333.5 201.11H330.5C330.5 202.849 329.803 204.516 328.565 205.737L330.672 207.872ZM275.361 216.297C279.08 220.06 285.157 220.059 288.875 216.296L286.741 214.188C284.197 216.762 280.039 216.763 277.495 214.188L275.361 216.297ZM238.905 208.934C235.205 205.283 229.259 205.283 225.56 208.934L227.667 211.069C230.198 208.571 234.266 208.571 236.798 211.069L238.905 208.934ZM261.13 211.137C263.683 208.617 267.796 208.643 270.318 211.195L272.452 209.086C268.766 205.356 262.755 205.319 259.022 209.002L261.13 211.137ZM253.563 214.388C251.032 216.886 246.964 216.886 244.433 214.388L242.326 216.524C246.025 220.174 251.971 220.174 255.671 216.524L253.563 214.388ZM208.794 216.524C212.493 220.174 218.439 220.174 222.139 216.524L220.032 214.388C217.501 216.886 213.432 216.886 210.901 214.388L208.794 216.524ZM194.147 211.195C196.669 208.643 200.781 208.617 203.335 211.137L205.442 209.002C201.71 205.319 195.699 205.357 192.013 209.087L194.147 211.195ZM175.591 216.296C179.31 220.059 185.387 220.059 189.106 216.296L186.972 214.187C184.428 216.762 180.27 216.762 177.725 214.187L175.591 216.296ZM161.363 211.138C163.917 208.618 168.03 208.644 170.552 211.196L172.686 209.087C169 205.357 162.989 205.319 159.256 209.002L161.363 211.138ZM142.56 216.524C146.259 220.174 152.205 220.174 155.904 216.524L153.797 214.388C151.266 216.886 147.198 216.886 144.667 214.389L142.56 216.524ZM106.454 209.089C102.768 205.359 96.7565 205.321 93.0237 209.004L95.1308 211.14C97.6848 208.62 101.798 208.646 104.32 211.198L106.454 209.089ZM127.911 211.196C130.433 208.643 134.546 208.617 137.1 211.137L139.207 209.002C135.474 205.319 129.463 205.357 125.777 209.087L127.911 211.196ZM120.738 214.187C118.193 216.762 114.035 216.762 111.491 214.187L109.357 216.295C113.076 220.059 119.153 220.059 122.872 216.295L120.738 214.187ZM76.3296 216.524C80.029 220.174 85.9748 220.174 89.6741 216.524L87.567 214.388C85.0359 216.886 80.9678 216.886 78.4365 214.389L76.3296 216.524ZM61.6809 211.196C64.2027 208.643 68.3155 208.617 70.8695 211.137L72.9765 209.002C69.2437 205.319 63.2327 205.357 59.5469 209.087L61.6809 211.196ZM43.1266 216.296C46.8455 220.059 52.9226 220.059 56.6415 216.295L54.5076 214.187C51.9631 216.762 47.8051 216.762 45.2605 214.187L43.1266 216.296ZM28.8985 211.138C31.4525 208.618 35.5654 208.644 38.0874 211.196L40.2213 209.087C36.5354 205.357 30.5242 205.319 26.7914 209.002L28.8985 211.138ZM303.103 6.86114C300.549 9.38123 296.436 9.3552 293.914 6.80298L291.78 8.91159C295.466 12.6418 301.477 12.6798 305.21 8.9966L303.103 6.86114ZM321.905 1.47648C318.205 -2.17378 312.259 -2.17379 308.56 1.47648L310.667 3.61195C313.198 1.11439 317.266 1.1144 319.798 3.61195L321.905 1.47648ZM328.565 12.2631C329.803 13.4845 330.5 15.151 330.5 16.89H333.5C333.5 14.3484 332.482 11.9128 330.672 10.1277L328.565 12.2631ZM277.495 3.81187C280.039 1.23732 284.197 1.23758 286.741 3.81246L288.875 1.70384C285.157 -2.05944 279.08 -2.05983 275.361 1.70297L277.495 3.81187ZM236.798 6.93105C234.266 9.4286 230.198 9.4286 227.667 6.93105L225.56 9.06651C229.259 12.7168 235.205 12.7168 238.905 9.06651L236.798 6.93105ZM259.022 8.99844C262.755 12.6813 268.766 12.6437 272.452 8.9143L270.318 6.80541C267.796 9.35708 263.683 9.38284 261.13 6.86298L259.022 8.99844ZM255.671 1.47649C251.971 -2.17378 246.025 -2.17379 242.326 1.47648L244.433 3.61195C246.964 1.11439 251.032 1.11439 253.563 3.61195L255.671 1.47649ZM210.901 3.61195C213.432 1.1144 217.501 1.11439 220.032 3.61194L222.139 1.47648C218.439 -2.17379 212.493 -2.17378 208.794 1.47648L210.901 3.61195ZM192.013 8.91337C195.699 12.6432 201.71 12.6811 205.442 8.99803L203.335 6.86256C200.781 9.38256 196.669 9.35664 194.147 6.80464L192.013 8.91337ZM177.725 3.81282C180.27 1.23784 184.428 1.23775 186.972 3.81262L189.106 1.70389C185.387 -2.05938 179.31 -2.05924 175.591 1.7042L177.725 3.81282ZM159.256 8.99776C162.989 12.681 169 12.6429 172.686 8.9128L170.552 6.80417C168.03 9.35636 163.917 9.38238 161.363 6.8623L159.256 8.99776ZM144.667 3.61144C147.198 1.1141 151.266 1.1142 153.797 3.61167L155.904 1.4762C152.205 -2.17393 146.259 -2.17408 142.56 1.47587L144.667 3.61144ZM104.32 6.80223C101.798 9.35444 97.6848 9.38047 95.1308 6.86038L93.0237 8.99585C96.7565 12.6791 102.768 12.641 106.454 8.91085L104.32 6.80223ZM125.777 8.91302C129.463 12.643 135.474 12.6812 139.207 8.99835L137.1 6.86279C134.546 9.38266 130.433 9.35652 127.911 6.8044L125.777 8.91302ZM122.872 1.70456C119.153 -2.05905 113.076 -2.05905 109.357 1.70455L111.491 3.81317C114.035 1.23807 118.193 1.23808 120.738 3.81318L122.872 1.70456ZM78.4365 3.61144C80.9678 1.1141 85.0359 1.1142 87.567 3.61166L89.6741 1.4762C85.9748 -2.17394 80.029 -2.17408 76.3296 1.47587L78.4365 3.61144ZM59.5469 8.91302C63.2327 12.643 69.2437 12.6812 72.9765 8.99836L70.8695 6.86279C68.3155 9.38266 64.2027 9.35653 61.6809 6.8044L59.5469 8.91302ZM45.2605 3.81312C47.8051 1.23804 51.9631 1.23806 54.5076 3.81315L56.6415 1.70453C52.9226 -2.05907 46.8455 -2.05908 43.1266 1.70449L45.2605 3.81312ZM26.7914 8.99777C30.5242 12.681 36.5354 12.6429 40.2213 8.9128L38.0874 6.80417C35.5654 9.35636 31.4525 9.38239 28.8985 6.86231L26.7914 8.99777ZM3.43466 205.737C2.19682 204.516 1.5 202.849 1.5 201.11H-1.5C-1.5 203.652 -0.48158 206.087 1.32757 207.872L3.43466 205.737ZM1.32757 10.1277C-0.48158 11.9128 -1.5 14.3484 -1.5 16.89H1.5C1.5 15.151 2.19681 13.4845 3.43466 12.2631L1.32757 10.1277ZM10.0953 216.524C13.7947 220.174 19.7407 220.174 23.4401 216.524L21.333 214.388C18.8019 216.886 14.7335 216.886 12.2023 214.388L10.0953 216.524ZM12.2023 3.61194C14.7335 1.11439 18.8019 1.1144 21.333 3.61195L23.4401 1.47649C19.7407 -2.17378 13.7947 -2.17379 10.0953 1.47648L12.2023 3.61194Z" fill="#F8981D" mask="url(#path-1-inside-1_400_267)"/>
</svg>
