<svg width="348" height="260" viewBox="0 0 348 260" fill="none" xmlns="http://www.w3.org/2000/svg">
<mask id="path-1-inside-1_363_175" fill="white">
<path d="M2.01779 13.5222L11.5936 2.73746C14.7763 -0.847055 20.3753 -0.847059 23.558 2.73746L29.0932 8.97155C32.3027 12.5862 37.96 12.5507 41.1238 8.89609L46.2397 2.98661C49.43 -0.69854 55.1462 -0.69853 58.3365 2.98663L63.4525 8.89636C66.6163 12.5509 72.2734 12.5865 75.4829 8.97215L81.0198 2.73683C84.2026 -0.847413 89.8013 -0.847273 92.9839 2.73713L98.5174 8.96924C101.727 12.5839 107.384 12.5484 110.548 8.89375L115.662 2.98667C118.852 -0.698503 124.568 -0.698498 127.759 2.98668L132.875 8.89636C136.038 12.5509 141.695 12.5865 144.905 8.97215L150.442 2.73683C153.625 -0.847415 159.223 -0.847272 162.406 2.73713L167.942 8.97155C171.151 12.5862 176.808 12.5507 179.972 8.89609L185.088 2.98625C188.279 -0.698775 193.995 -0.698912 197.185 2.98596L202.302 8.89667C205.466 12.551 211.123 12.5864 214.333 8.97186L219.868 2.73746C223.051 -0.84706 228.65 -0.847057 231.833 2.73746L237.442 9.05504C240.625 12.6396 246.224 12.6396 249.406 9.05504L255.016 2.73747C258.198 -0.847054 263.797 -0.847052 266.98 2.73747L272.516 8.97237C275.725 12.5867 281.382 12.5516 284.546 8.89763L289.666 2.98504C292.856 -0.69943 298.572 -0.699073 301.762 2.9858L306.877 8.89465C310.041 12.5493 315.699 12.5848 318.908 8.97015L324.442 2.73747C327.625 -0.847054 333.224 -0.847057 336.406 2.73746L345.982 13.5222C347.282 14.9862 348 16.876 348 18.8338V130V241.166C348 243.124 347.282 245.014 345.982 246.478L336.406 257.263C333.224 260.847 327.625 260.847 324.442 257.263L318.908 251.03C315.699 247.415 310.041 247.451 306.877 251.105L301.762 257.014C298.572 260.699 292.856 260.699 289.666 257.015L284.546 251.102C281.382 247.448 275.725 247.413 272.516 251.028L266.98 257.263C263.797 260.847 258.198 260.847 255.016 257.263L249.406 250.945C246.224 247.36 240.625 247.36 237.442 250.945L231.833 257.263C228.65 260.847 223.051 260.847 219.868 257.263L214.333 251.028C211.123 247.414 205.466 247.449 202.302 251.103L197.185 257.014C193.995 260.699 188.279 260.699 185.088 257.014L179.972 251.104C176.808 247.449 171.151 247.414 167.942 251.028L162.406 257.263C159.223 260.847 153.625 260.847 150.442 257.263L144.905 251.028C141.695 247.413 136.038 247.449 132.875 251.104L127.759 257.013C124.568 260.698 118.852 260.698 115.662 257.013L110.548 251.106C107.384 247.452 101.727 247.416 98.5174 251.031L92.9839 257.263C89.8013 260.847 84.2026 260.847 81.0198 257.263L75.4829 251.028C72.2734 247.413 66.6163 247.449 63.4525 251.104L58.3365 257.013C55.1462 260.699 49.43 260.699 46.2397 257.013L41.1238 251.104C37.96 247.449 32.3027 247.414 29.0932 251.028L23.558 257.263C20.3753 260.847 14.7763 260.847 11.5936 257.263L2.01779 246.478C0.717913 245.014 0 243.124 0 241.166V130V18.8338C0 16.876 0.717913 14.9862 2.01779 13.5222Z"/>
</mask>
<path d="M2.01779 13.5222L11.5936 2.73746C14.7763 -0.847055 20.3753 -0.847059 23.558 2.73746L29.0932 8.97155C32.3027 12.5862 37.96 12.5507 41.1238 8.89609L46.2397 2.98661C49.43 -0.69854 55.1462 -0.69853 58.3365 2.98663L63.4525 8.89636C66.6163 12.5509 72.2734 12.5865 75.4829 8.97215L81.0198 2.73683C84.2026 -0.847413 89.8013 -0.847273 92.9839 2.73713L98.5174 8.96924C101.727 12.5839 107.384 12.5484 110.548 8.89375L115.662 2.98667C118.852 -0.698503 124.568 -0.698498 127.759 2.98668L132.875 8.89636C136.038 12.5509 141.695 12.5865 144.905 8.97215L150.442 2.73683C153.625 -0.847415 159.223 -0.847272 162.406 2.73713L167.942 8.97155C171.151 12.5862 176.808 12.5507 179.972 8.89609L185.088 2.98625C188.279 -0.698775 193.995 -0.698912 197.185 2.98596L202.302 8.89667C205.466 12.551 211.123 12.5864 214.333 8.97186L219.868 2.73746C223.051 -0.84706 228.65 -0.847057 231.833 2.73746L237.442 9.05504C240.625 12.6396 246.224 12.6396 249.406 9.05504L255.016 2.73747C258.198 -0.847054 263.797 -0.847052 266.98 2.73747L272.516 8.97237C275.725 12.5867 281.382 12.5516 284.546 8.89763L289.666 2.98504C292.856 -0.69943 298.572 -0.699073 301.762 2.9858L306.877 8.89465C310.041 12.5493 315.699 12.5848 318.908 8.97015L324.442 2.73747C327.625 -0.847054 333.224 -0.847057 336.406 2.73746L345.982 13.5222C347.282 14.9862 348 16.876 348 18.8338V130V241.166C348 243.124 347.282 245.014 345.982 246.478L336.406 257.263C333.224 260.847 327.625 260.847 324.442 257.263L318.908 251.03C315.699 247.415 310.041 247.451 306.877 251.105L301.762 257.014C298.572 260.699 292.856 260.699 289.666 257.015L284.546 251.102C281.382 247.448 275.725 247.413 272.516 251.028L266.98 257.263C263.797 260.847 258.198 260.847 255.016 257.263L249.406 250.945C246.224 247.36 240.625 247.36 237.442 250.945L231.833 257.263C228.65 260.847 223.051 260.847 219.868 257.263L214.333 251.028C211.123 247.414 205.466 247.449 202.302 251.103L197.185 257.014C193.995 260.699 188.279 260.699 185.088 257.014L179.972 251.104C176.808 247.449 171.151 247.414 167.942 251.028L162.406 257.263C159.223 260.847 153.625 260.847 150.442 257.263L144.905 251.028C141.695 247.413 136.038 247.449 132.875 251.104L127.759 257.013C124.568 260.698 118.852 260.698 115.662 257.013L110.548 251.106C107.384 247.452 101.727 247.416 98.5174 251.031L92.9839 257.263C89.8013 260.847 84.2026 260.847 81.0198 257.263L75.4829 251.028C72.2734 247.413 66.6163 247.449 63.4525 251.104L58.3365 257.013C55.1462 260.699 49.43 260.699 46.2397 257.013L41.1238 251.104C37.96 247.449 32.3027 247.414 29.0932 251.028L23.558 257.263C20.3753 260.847 14.7763 260.847 11.5936 257.263L2.01779 246.478C0.717913 245.014 0 243.124 0 241.166V130V18.8338C0 16.876 0.717913 14.9862 2.01779 13.5222Z" fill="#FDFDFD"/>
<path d="M11.5936 2.73746L10.4719 1.74154L10.4719 1.74154L11.5936 2.73746ZM2.01779 13.5222L3.13946 14.5181L2.01779 13.5222ZM29.0932 8.97155L27.9716 9.96747L29.0932 8.97155ZM23.558 2.73746L24.6796 1.74153V1.74153L23.558 2.73746ZM46.2397 2.98661L45.1057 2.00483V2.00483L46.2397 2.98661ZM41.1238 8.89609L42.2579 9.87787V9.87787L41.1238 8.89609ZM63.4525 8.89636L64.5866 7.91459L63.4525 8.89636ZM58.3365 2.98663L59.4706 2.00486V2.00486L58.3365 2.98663ZM75.4829 8.97215L76.6045 9.96813V9.96813L75.4829 8.97215ZM81.0198 2.73683L82.1414 3.73281V3.73281L81.0198 2.73683ZM127.759 2.98668L126.625 3.96845V3.96845L127.759 2.98668ZM132.875 8.89636L134.009 7.91459V7.91459L132.875 8.89636ZM110.548 8.89375L109.414 7.91198V7.91198L110.548 8.89375ZM115.662 2.98667L116.796 3.96845V3.96845L115.662 2.98667ZM92.9839 2.73713L91.8623 3.73305V3.73305L92.9839 2.73713ZM98.5174 8.96924L99.6391 7.97332V7.97332L98.5174 8.96924ZM144.905 8.97215L143.783 7.97616V7.97616L144.905 8.97215ZM150.442 2.73683L151.564 3.73281V3.73281L150.442 2.73683ZM162.406 2.73713L163.528 1.7412V1.7412L162.406 2.73713ZM167.942 8.97155L166.82 9.96748V9.96748L167.942 8.97155ZM185.088 2.98625L183.954 2.00447V2.00447L185.088 2.98625ZM179.972 8.89609L178.838 7.91431L179.972 8.89609ZM202.302 8.89667L201.168 9.8785L202.302 8.89667ZM197.185 2.98596L196.051 3.96779L197.185 2.98596ZM214.333 8.97186L213.211 7.97593V7.97593L214.333 8.97186ZM219.868 2.73746L220.99 3.73339V3.73338L219.868 2.73746ZM266.98 2.73747L268.102 1.74154V1.74154L266.98 2.73747ZM272.516 8.97237L271.395 9.9683V9.9683L272.516 8.97237ZM249.406 9.05504L248.285 8.05911V8.05911L249.406 9.05504ZM255.016 2.73747L256.137 3.73339V3.73339L255.016 2.73747ZM231.833 2.73746L232.954 1.74153V1.74153L231.833 2.73746ZM237.442 9.05504L236.32 10.051V10.051L237.442 9.05504ZM284.546 8.89763L285.68 9.87955V9.87955L284.546 8.89763ZM289.666 2.98504L288.532 2.00313V2.00313L289.666 2.98504ZM345.982 13.5222L347.104 12.5263V12.5263L345.982 13.5222ZM336.406 2.73746L337.528 1.74154V1.74153L336.406 2.73746ZM324.442 2.73747L323.32 1.74154V1.74154L324.442 2.73747ZM318.908 8.97015L320.03 9.96607L318.908 8.97015ZM301.762 2.9858L302.896 2.00403V2.00403L301.762 2.9858ZM306.877 8.89465L308.011 7.91288V7.91288L306.877 8.89465ZM11.5936 257.263L12.7152 256.267L12.7152 256.267L11.5936 257.263ZM2.01779 246.478L0.896128 247.474H0.896129L2.01779 246.478ZM29.0932 251.028L27.9716 250.033H27.9716L29.0932 251.028ZM23.558 257.263L24.6796 258.258L24.6796 258.258L23.558 257.263ZM46.2397 257.013L45.1057 257.995H45.1057L46.2397 257.013ZM41.1238 251.104L42.2579 250.122H42.2579L41.1238 251.104ZM63.4525 251.104L64.5866 252.085H64.5866L63.4525 251.104ZM58.3365 257.013L59.4706 257.995H59.4706L58.3365 257.013ZM75.4829 251.028L76.6045 250.032L75.4829 251.028ZM81.0198 257.263L82.1414 256.267H82.1414L81.0198 257.263ZM127.759 257.013L128.893 257.995L127.759 257.013ZM132.875 251.104L131.741 250.122L132.875 251.104ZM110.548 251.106L109.414 252.088L110.548 251.106ZM115.662 257.013L116.796 256.032L115.662 257.013ZM92.9839 257.263L91.8623 256.267L91.8623 256.267L92.9839 257.263ZM98.5174 251.031L99.6391 252.027H99.6391L98.5174 251.031ZM144.905 251.028L143.783 252.024L144.905 251.028ZM150.442 257.263L151.564 256.267L150.442 257.263ZM162.406 257.263L161.284 256.267L162.406 257.263ZM167.942 251.028L166.82 250.033L167.942 251.028ZM185.088 257.014L183.954 257.996L185.088 257.014ZM179.972 251.104L178.838 252.086L179.972 251.104ZM202.302 251.103L201.168 250.121L202.302 251.103ZM197.185 257.014L198.319 257.996L197.185 257.014ZM214.333 251.028L215.454 250.032L214.333 251.028ZM219.868 257.263L218.747 258.258L219.868 257.263ZM266.98 257.263L265.859 256.267L266.98 257.263ZM272.516 251.028L271.395 250.032L272.516 251.028ZM249.406 250.945L248.285 251.941L249.406 250.945ZM255.016 257.263L256.137 256.267V256.267L255.016 257.263ZM231.833 257.263L232.954 258.258V258.258L231.833 257.263ZM237.442 250.945L236.32 249.949L237.442 250.945ZM284.546 251.102L285.68 250.12L284.546 251.102ZM289.666 257.015L288.532 257.997L289.666 257.015ZM345.982 246.478L347.104 247.474L345.982 246.478ZM336.406 257.263L335.285 256.267L336.406 257.263ZM324.442 257.263L325.564 256.267L324.442 257.263ZM318.908 251.03L317.786 252.026L318.908 251.03ZM301.762 257.014L302.896 257.996L301.762 257.014ZM306.877 251.105L308.011 252.087L306.877 251.105ZM10.4719 1.74154L0.896128 12.5263L3.13946 14.5181L12.7152 3.73339L10.4719 1.74154ZM30.2149 7.97562L24.6796 1.74153L22.4363 3.73339L27.9716 9.96747L30.2149 7.97562ZM45.1057 2.00483L39.9897 7.91431L42.2579 9.87787L47.3738 3.96838L45.1057 2.00483ZM64.5866 7.91459L59.4706 2.00486L57.2024 3.9684L62.3185 9.87813L64.5866 7.91459ZM76.6045 9.96813L82.1414 3.73281L79.8982 1.74085L74.3613 7.97617L76.6045 9.96813ZM126.625 3.96845L131.741 9.87814L134.009 7.91459L128.893 2.0049L126.625 3.96845ZM111.682 9.87553L116.796 3.96845L114.528 2.0049L109.414 7.91198L111.682 9.87553ZM91.8623 3.73305L97.3958 9.96517L99.6391 7.97332L94.1056 1.7412L91.8623 3.73305ZM146.027 9.96813L151.564 3.73281L149.32 1.74084L143.783 7.97616L146.027 9.96813ZM161.284 3.73305L166.82 9.96748L169.063 7.97562L163.528 1.7412L161.284 3.73305ZM183.954 2.00447L178.838 7.91431L181.106 9.87787L186.222 3.96802L183.954 2.00447ZM203.436 7.91484L198.319 2.00413L196.051 3.96779L201.168 9.8785L203.436 7.91484ZM215.454 9.96778L220.99 3.73339L218.747 1.74153L213.211 7.97593L215.454 9.96778ZM265.859 3.7334L271.395 9.9683L273.638 7.97645L268.102 1.74154L265.859 3.7334ZM250.528 10.051L256.137 3.73339L253.894 1.74154L248.285 8.05911L250.528 10.051ZM230.711 3.73339L236.32 10.051L238.564 8.05912L232.954 1.74153L230.711 3.73339ZM285.68 9.87955L290.8 3.96696L288.532 2.00313L283.412 7.91572L285.68 9.87955ZM347.104 12.5263L337.528 1.74154L335.285 3.73339L344.861 14.5181L347.104 12.5263ZM323.32 1.74154L317.786 7.97422L320.03 9.96607L325.564 3.73339L323.32 1.74154ZM300.628 3.96757L305.743 9.87642L308.011 7.91288L302.896 2.00403L300.628 3.96757ZM346.5 18.8338V130H349.5V18.8338H346.5ZM1.5 130V18.8338H-1.5V130H1.5ZM12.7152 256.267L3.13945 245.482L0.896129 247.474L10.4719 258.258L12.7152 256.267ZM27.9716 250.033L22.4363 256.267L24.6796 258.258L30.2149 252.024L27.9716 250.033ZM47.3738 256.032L42.2579 250.122L39.9897 252.086L45.1057 257.995L47.3738 256.032ZM62.3185 250.122L57.2024 256.032L59.4706 257.995L64.5866 252.085L62.3185 250.122ZM74.3613 252.024L79.8982 258.259L82.1414 256.267L76.6045 250.032L74.3613 252.024ZM128.893 257.995L134.009 252.085L131.741 250.122L126.625 256.032L128.893 257.995ZM109.414 252.088L114.528 257.995L116.796 256.032L111.682 250.124L109.414 252.088ZM94.1056 258.259L99.6391 252.027L97.3958 250.035L91.8623 256.267L94.1056 258.259ZM143.783 252.024L149.32 258.259L151.564 256.267L146.027 250.032L143.783 252.024ZM163.528 258.259L169.063 252.024L166.82 250.033L161.284 256.267L163.528 258.259ZM186.222 256.032L181.106 250.122L178.838 252.086L183.954 257.996L186.222 256.032ZM201.168 250.121L196.051 256.032L198.319 257.996L203.436 252.085L201.168 250.121ZM213.211 252.024L218.747 258.258L220.99 256.267L215.454 250.032L213.211 252.024ZM268.102 258.258L273.638 252.024L271.395 250.032L265.859 256.267L268.102 258.258ZM248.285 251.941L253.894 258.258L256.137 256.267L250.528 249.949L248.285 251.941ZM232.954 258.258L238.564 251.941L236.32 249.949L230.711 256.267L232.954 258.258ZM283.412 252.084L288.532 257.997L290.8 256.033L285.68 250.12L283.412 252.084ZM344.861 245.482L335.285 256.267L337.528 258.258L347.104 247.474L344.861 245.482ZM325.564 256.267L320.03 250.034L317.786 252.026L323.32 258.258L325.564 256.267ZM302.896 257.996L308.011 252.087L305.743 250.124L300.628 256.032L302.896 257.996ZM349.5 241.166V130H346.5V241.166H349.5ZM-1.5 130V241.166H1.5V130H-1.5ZM320.03 250.034C316.218 245.742 309.5 245.784 305.743 250.124L308.011 252.087C310.582 249.118 315.179 249.089 317.786 252.026L320.03 250.034ZM335.285 256.267C332.699 259.179 328.15 259.179 325.564 256.267L323.32 258.258C327.1 262.515 333.749 262.515 337.528 258.258L335.285 256.267ZM347.104 247.474C348.647 245.735 349.5 243.491 349.5 241.166H346.5C346.5 242.757 345.917 244.292 344.861 245.482L347.104 247.474ZM288.532 257.997C292.321 262.372 299.108 262.372 302.896 257.996L300.628 256.032C298.036 259.026 293.392 259.027 290.8 256.033L288.532 257.997ZM250.528 249.949C246.749 245.692 240.1 245.692 236.32 249.949L238.564 251.941C241.15 249.028 245.699 249.028 248.285 251.941L250.528 249.949ZM273.638 252.024C276.245 249.087 280.841 249.115 283.412 252.084L285.68 250.12C281.923 245.781 275.205 245.74 271.395 250.032L273.638 252.024ZM265.859 256.267C263.273 259.179 258.723 259.179 256.137 256.267L253.894 258.258C257.674 262.515 264.322 262.515 268.102 258.258L265.859 256.267ZM218.747 258.258C222.526 262.515 229.175 262.515 232.954 258.258L230.711 256.267C228.125 259.179 223.576 259.179 220.99 256.267L218.747 258.258ZM203.436 252.085C206.007 249.116 210.603 249.087 213.211 252.024L215.454 250.032C211.643 245.74 204.925 245.782 201.168 250.121L203.436 252.085ZM183.954 257.996C187.743 262.371 194.53 262.372 198.319 257.996L196.051 256.032C193.459 259.026 188.814 259.026 186.222 256.032L183.954 257.996ZM169.063 252.024C171.671 249.087 176.267 249.116 178.838 252.086L181.106 250.122C177.349 245.782 170.631 245.74 166.82 250.033L169.063 252.024ZM149.32 258.259C153.1 262.515 159.748 262.515 163.528 258.259L161.284 256.267C158.699 259.179 154.15 259.179 151.564 256.267L149.32 258.259ZM111.682 250.124C107.925 245.785 101.207 245.742 97.3958 250.035L99.6391 252.027C102.247 249.09 106.843 249.119 109.414 252.088L111.682 250.124ZM134.009 252.085C136.579 249.116 141.176 249.087 143.783 252.024L146.027 250.032C142.215 245.74 135.497 245.782 131.741 250.122L134.009 252.085ZM126.625 256.032C124.032 259.026 119.388 259.026 116.796 256.032L114.528 257.995C118.316 262.371 125.104 262.371 128.893 257.995L126.625 256.032ZM79.8982 258.259C83.6777 262.515 90.3263 262.515 94.1056 258.259L91.8623 256.267C89.2764 259.179 84.7274 259.179 82.1414 256.267L79.8982 258.259ZM64.5866 252.085C67.1572 249.116 71.7535 249.087 74.3613 252.024L76.6045 250.032C72.7932 245.74 66.0754 245.782 62.3185 250.122L64.5866 252.085ZM45.1057 257.995C48.8941 262.371 55.6821 262.371 59.4706 257.995L57.2024 256.032C54.6103 259.026 49.9659 259.026 47.3738 256.032L45.1057 257.995ZM30.2149 252.024C32.8226 249.087 37.4191 249.116 39.9897 252.086L42.2579 250.122C38.5008 245.782 31.7828 245.74 27.9716 250.033L30.2149 252.024ZM317.786 7.97422C315.179 10.9111 310.582 10.8823 308.011 7.91288L305.743 9.87642C309.5 14.2163 316.218 14.2585 320.03 9.96607L317.786 7.97422ZM337.528 1.74153C333.749 -2.51508 327.1 -2.51508 323.32 1.74154L325.564 3.73339C328.15 0.820969 332.699 0.820967 335.285 3.73339L337.528 1.74153ZM344.861 14.5181C345.917 15.7076 346.5 17.2431 346.5 18.8338H349.5C349.5 16.5089 348.647 14.2647 347.104 12.5263L344.861 14.5181ZM290.8 3.96696C293.392 0.973322 298.036 0.973611 300.628 3.96758L302.896 2.00403C299.108 -2.37176 292.321 -2.37218 288.532 2.00313L290.8 3.96696ZM248.285 8.05911C245.699 10.9715 241.15 10.9715 238.564 8.05911L236.32 10.051C240.1 14.3076 246.749 14.3076 250.528 10.051L248.285 8.05911ZM271.395 9.9683C275.205 14.2603 281.923 14.2186 285.68 9.87955L283.412 7.91572C280.841 10.8845 276.245 10.9131 273.638 7.97644L271.395 9.9683ZM268.102 1.74154C264.322 -2.51507 257.674 -2.51508 253.894 1.74154L256.137 3.73339C258.723 0.820973 263.273 0.82097 265.859 3.7334L268.102 1.74154ZM220.99 3.73338C223.576 0.820967 228.125 0.820964 230.711 3.73339L232.954 1.74153C229.175 -2.51508 222.526 -2.51509 218.747 1.74153L220.99 3.73338ZM201.168 9.8785C204.925 14.218 211.643 14.26 215.454 9.96778L213.211 7.97593C210.603 10.9127 206.007 10.884 203.436 7.91484L201.168 9.8785ZM186.222 3.96803C188.814 0.97394 193.459 0.973835 196.051 3.96779L198.319 2.00413C194.53 -2.37166 187.743 -2.37149 183.954 2.00447L186.222 3.96803ZM166.82 9.96748C170.631 14.2598 177.349 14.2177 181.106 9.87787L178.838 7.91431C176.267 10.8837 171.671 10.9125 169.063 7.97562L166.82 9.96748ZM151.564 3.73281C154.15 0.820615 158.699 0.820727 161.284 3.73306L163.528 1.7412C159.748 -2.51527 153.1 -2.51545 149.32 1.74085L151.564 3.73281ZM109.414 7.91198C106.843 10.8814 102.247 10.9102 99.6391 7.97332L97.3958 9.96517C101.207 14.2576 107.925 14.2154 111.682 9.87553L109.414 7.91198ZM131.741 9.87814C135.498 14.2179 142.215 14.2602 146.027 9.96813L143.783 7.97616C141.176 10.9128 136.579 10.8839 134.009 7.91459L131.741 9.87814ZM128.893 2.0049C125.104 -2.37124 118.316 -2.37125 114.528 2.0049L116.796 3.96845C119.388 0.974241 124.032 0.974243 126.625 3.96845L128.893 2.0049ZM82.1414 3.73281C84.7274 0.820616 89.2764 0.820728 91.8623 3.73305L94.1056 1.7412C90.3263 -2.51527 83.6777 -2.51544 79.8982 1.74085L82.1414 3.73281ZM62.3185 9.87813C66.0754 14.2179 72.7932 14.2602 76.6045 9.96813L74.3613 7.97616C71.7535 10.9128 67.1572 10.8839 64.5866 7.91459L62.3185 9.87813ZM47.3738 3.96838C49.9659 0.974202 54.6103 0.974211 57.2024 3.96841L59.4706 2.00486C55.6821 -2.37127 48.8941 -2.37128 45.1057 2.00483L47.3738 3.96838ZM27.9716 9.96747C31.7828 14.2598 38.5008 14.2177 42.2579 9.87787L39.9897 7.91431C37.4191 10.8837 32.8226 10.9125 30.2149 7.97562L27.9716 9.96747ZM3.13946 245.482C2.08331 244.292 1.5 242.757 1.5 241.166H-1.5C-1.5 243.491 -0.647479 245.735 0.896128 247.474L3.13946 245.482ZM0.896128 12.5263C-0.647478 14.2648 -1.5 16.5089 -1.5 18.8338H1.5C1.5 17.2431 2.0833 15.7076 3.13946 14.5181L0.896128 12.5263ZM10.4719 258.258C14.2514 262.515 20.9002 262.515 24.6796 258.258L22.4363 256.267C19.8504 259.179 15.3012 259.179 12.7152 256.267L10.4719 258.258ZM12.7152 3.73339C15.3012 0.820968 19.8504 0.820966 22.4363 3.73339L24.6796 1.74153C20.9002 -2.51508 14.2514 -2.51508 10.4719 1.74154L12.7152 3.73339Z" fill="#F8981D" mask="url(#path-1-inside-1_363_175)"/>
</svg>
