<svg width="216" height="214" viewBox="0 0 216 214" fill="none" xmlns="http://www.w3.org/2000/svg">
<mask id="path-1-inside-1_400_22" fill="white">
<path d="M1.32118 9.54114L5.48897 3.22022C8.05476 -0.671073 13.7634 -0.671073 16.3292 3.22022L16.4389 3.38662C18.9709 7.2266 24.6154 7.19395 27.1027 3.32492C29.6073 -0.570871 35.3022 -0.57078 37.8067 3.32503C40.294 7.19404 45.9384 7.22692 48.4706 3.38707L48.5815 3.2188C51.1472 -0.67191 56.8551 -0.671775 59.4206 3.21906L59.5305 3.38569C62.0621 7.22521 67.7059 7.19254 70.193 3.32397C72.6972 -0.571366 78.3917 -0.570786 80.896 3.32455C83.3833 7.19356 89.028 7.22693 91.5601 3.38709L91.6705 3.21977C94.2364 -0.671397 99.9451 -0.671268 102.511 3.22002L102.621 3.38641C105.153 7.22649 110.797 7.19384 113.285 3.32471C115.789 -0.571076 121.484 -0.570989 123.989 3.32469C126.476 7.19381 132.121 7.22655 134.653 3.38637L134.763 3.22041C137.329 -0.670975 143.054 -0.645507 145.62 3.24588C148.202 7.16144 153.98 7.1616 156.562 3.24603C159.128 -0.645498 164.908 -0.587839 167.474 3.30369C170.006 7.14416 175.706 7.19331 178.194 3.32407C180.699 -0.571137 186.394 -0.571668 188.898 3.32383C191.385 7.19282 197.03 7.22549 199.562 3.38555L199.671 3.21964C202.237 -0.671382 207.945 -0.671384 210.511 3.21963L214.679 9.54114C215.541 10.8482 216 12.3793 216 13.9449V107V200.055C216 201.621 215.541 203.152 214.679 204.459L210.511 210.78C207.945 214.671 202.237 214.671 199.671 210.78L199.562 210.614C197.03 206.775 191.385 206.807 188.898 210.676C186.394 214.572 180.699 214.571 178.194 210.676C175.706 206.807 170.006 206.856 167.474 210.696C164.908 214.588 159.128 214.646 156.562 210.754C153.98 206.838 148.202 206.839 145.62 210.754C143.054 214.646 137.329 214.671 134.763 210.78L134.653 210.614C132.121 206.773 126.476 206.806 123.989 210.675C121.484 214.571 115.789 214.571 113.285 210.675C110.797 206.806 105.153 206.774 102.621 210.614L102.511 210.78C99.9451 214.671 94.2364 214.671 91.6705 210.78L91.5601 210.613C89.028 206.773 83.3833 206.806 80.896 210.675C78.3917 214.571 72.6972 214.571 70.193 210.676C67.7059 206.807 62.0621 206.775 59.5305 210.614L59.4206 210.781C56.8551 214.672 51.1472 214.672 48.5815 210.781L48.4706 210.613C45.9384 206.773 40.294 206.806 37.8067 210.675C35.3022 214.571 29.6073 214.571 27.1027 210.675C24.6154 206.806 18.9709 206.773 16.4389 210.613L16.3292 210.78C13.7634 214.671 8.05476 214.671 5.48897 210.78L1.32118 204.459C0.459367 203.152 0 201.621 0 200.055V107V13.9449C0 12.3793 0.459366 10.8482 1.32118 9.54114Z"/>
</mask>
<path d="M1.32118 9.54114L5.48897 3.22022C8.05476 -0.671073 13.7634 -0.671073 16.3292 3.22022L16.4389 3.38662C18.9709 7.2266 24.6154 7.19395 27.1027 3.32492C29.6073 -0.570871 35.3022 -0.57078 37.8067 3.32503C40.294 7.19404 45.9384 7.22692 48.4706 3.38707L48.5815 3.2188C51.1472 -0.67191 56.8551 -0.671775 59.4206 3.21906L59.5305 3.38569C62.0621 7.22521 67.7059 7.19254 70.193 3.32397C72.6972 -0.571366 78.3917 -0.570786 80.896 3.32455C83.3833 7.19356 89.028 7.22693 91.5601 3.38709L91.6705 3.21977C94.2364 -0.671397 99.9451 -0.671268 102.511 3.22002L102.621 3.38641C105.153 7.22649 110.797 7.19384 113.285 3.32471C115.789 -0.571076 121.484 -0.570989 123.989 3.32469C126.476 7.19381 132.121 7.22655 134.653 3.38637L134.763 3.22041C137.329 -0.670975 143.054 -0.645507 145.62 3.24588C148.202 7.16144 153.98 7.1616 156.562 3.24603C159.128 -0.645498 164.908 -0.587839 167.474 3.30369C170.006 7.14416 175.706 7.19331 178.194 3.32407C180.699 -0.571137 186.394 -0.571668 188.898 3.32383C191.385 7.19282 197.03 7.22549 199.562 3.38555L199.671 3.21964C202.237 -0.671382 207.945 -0.671384 210.511 3.21963L214.679 9.54114C215.541 10.8482 216 12.3793 216 13.9449V107V200.055C216 201.621 215.541 203.152 214.679 204.459L210.511 210.78C207.945 214.671 202.237 214.671 199.671 210.78L199.562 210.614C197.03 206.775 191.385 206.807 188.898 210.676C186.394 214.572 180.699 214.571 178.194 210.676C175.706 206.807 170.006 206.856 167.474 210.696C164.908 214.588 159.128 214.646 156.562 210.754C153.98 206.838 148.202 206.839 145.62 210.754C143.054 214.646 137.329 214.671 134.763 210.78L134.653 210.614C132.121 206.773 126.476 206.806 123.989 210.675C121.484 214.571 115.789 214.571 113.285 210.675C110.797 206.806 105.153 206.774 102.621 210.614L102.511 210.78C99.9451 214.671 94.2364 214.671 91.6705 210.78L91.5601 210.613C89.028 206.773 83.3833 206.806 80.896 210.675C78.3917 214.571 72.6972 214.571 70.193 210.676C67.7059 206.807 62.0621 206.775 59.5305 210.614L59.4206 210.781C56.8551 214.672 51.1472 214.672 48.5815 210.781L48.4706 210.613C45.9384 206.773 40.294 206.806 37.8067 210.675C35.3022 214.571 29.6073 214.571 27.1027 210.675C24.6154 206.806 18.9709 206.773 16.4389 210.613L16.3292 210.78C13.7634 214.671 8.05476 214.671 5.48897 210.78L1.32118 204.459C0.459367 203.152 0 201.621 0 200.055V107V13.9449C0 12.3793 0.459366 10.8482 1.32118 9.54114Z" fill="#FDFDFD"/>
<path d="M5.48897 3.22022L6.74125 4.04593L5.48897 3.22022ZM1.32118 9.54114L0.0688977 8.71543H0.0688976L1.32118 9.54114ZM16.4389 3.38662L17.6912 2.56091L17.6912 2.5609L16.4389 3.38662ZM16.3292 3.22022L15.077 4.04593L15.077 4.04594L16.3292 3.22022ZM48.4706 3.38707L47.2183 2.5613L47.2183 2.5613L48.4706 3.38707ZM48.5815 3.2188L49.8338 4.04457L49.8338 4.04457L48.5815 3.2188ZM59.4206 3.21906L60.6729 2.39336L60.6729 2.39335L59.4206 3.21906ZM59.5305 3.38569L58.2782 4.21139L58.2782 4.2114L59.5305 3.38569ZM91.5601 3.38709L92.8124 4.21286L92.8124 4.21282L91.5601 3.38709ZM91.6705 3.21977L90.4182 2.394L90.4182 2.39404L91.6705 3.21977ZM102.511 3.22002L103.763 2.39431V2.39431L102.511 3.22002ZM102.621 3.38641L101.368 4.21211V4.21212L102.621 3.38641ZM134.653 3.38637L133.401 2.56063L133.401 2.56066L134.653 3.38637ZM134.763 3.22041L136.015 4.04615L136.015 4.04612L134.763 3.22041ZM214.679 9.54114L215.931 8.71544L215.931 8.71543L214.679 9.54114ZM210.511 3.21963L211.763 2.39392V2.39392L210.511 3.21963ZM199.671 3.21964L198.419 2.39392L198.419 2.39397L199.671 3.21964ZM199.562 3.38555L200.814 4.21126L200.814 4.21121L199.562 3.38555ZM5.48897 210.78L4.23669 211.605H4.23669L5.48897 210.78ZM1.32118 204.459L2.57346 203.633H2.57345L1.32118 204.459ZM16.4389 210.613L15.1867 209.788L15.1867 209.788L16.4389 210.613ZM16.3292 210.78L17.5815 211.605L17.5815 211.605L16.3292 210.78ZM48.4706 210.613L49.7228 209.787L49.7228 209.787L48.4706 210.613ZM48.5815 210.781L47.3293 211.607L47.3293 211.607L48.5815 210.781ZM59.4206 210.781L60.6729 211.607L60.6729 211.607L59.4206 210.781ZM59.5305 210.614L58.2782 209.789L58.2782 209.789L59.5305 210.614ZM91.5601 210.613L92.8124 209.787L92.8124 209.787L91.5601 210.613ZM91.6705 210.78L90.4182 211.606L90.4182 211.606L91.6705 210.78ZM102.511 210.78L103.763 211.606L103.763 211.606L102.511 210.78ZM102.621 210.614L101.368 209.788L101.368 209.788L102.621 210.614ZM134.653 210.614L133.401 211.439L134.653 210.614ZM134.763 210.78L136.015 209.954L134.763 210.78ZM214.679 204.459L215.931 205.285L214.679 204.459ZM210.511 210.78L211.763 211.606L210.511 210.78ZM199.671 210.78L198.419 211.606L198.419 211.606L199.671 210.78ZM199.562 210.614L200.814 209.789L200.814 209.789L199.562 210.614ZM188.898 210.676L190.16 211.487L188.898 210.676ZM178.194 210.676L179.456 209.865V209.865L178.194 210.676ZM156.562 210.754L155.309 211.58L156.562 210.754ZM145.62 210.754L146.872 211.58L145.62 210.754ZM167.474 210.696L166.222 209.871L167.474 210.696ZM123.989 210.675L125.25 211.487L123.989 210.675ZM113.285 210.675L112.023 211.486L113.285 210.675ZM70.193 210.676L71.4547 209.865L70.193 210.676ZM80.896 210.675L79.6342 209.864L80.896 210.675ZM37.8067 210.675L36.5449 209.864L37.8067 210.675ZM27.1027 210.675L25.841 211.486L25.841 211.486L27.1027 210.675ZM188.898 3.32383L187.636 4.13498V4.13498L188.898 3.32383ZM178.194 3.32407L179.456 4.13537V4.13537L178.194 3.32407ZM156.562 3.24603L157.814 4.07174V4.07174L156.562 3.24603ZM145.62 3.24588L146.872 2.42017V2.42016L145.62 3.24588ZM167.474 3.30369L166.222 4.1294V4.1294L167.474 3.30369ZM123.989 3.32469L122.727 4.13591V4.13591L123.989 3.32469ZM113.285 3.32471L112.023 2.51354V2.51355L113.285 3.32471ZM70.193 3.32397L68.9312 2.51281V2.51281L70.193 3.32397ZM80.896 3.32455L79.6342 4.13571V4.13571L80.896 3.32455ZM37.8067 3.32503L36.5449 4.13618L37.8067 3.32503ZM27.1027 3.32492L28.3645 4.13608L27.1027 3.32492ZM4.23669 2.39451L0.0688977 8.71543L2.57346 10.3669L6.74125 4.04593L4.23669 2.39451ZM17.6912 2.5609L17.5815 2.39451L15.077 4.04594L15.1867 4.21233L17.6912 2.5609ZM49.7228 4.21284L49.8338 4.04457L47.3293 2.39303L47.2183 2.5613L49.7228 4.21284ZM58.1683 4.04475L58.2782 4.21139L60.7828 2.55999L60.6729 2.39336L58.1683 4.04475ZM92.8124 4.21282L92.9227 4.0455L90.4182 2.39404L90.3079 2.56136L92.8124 4.21282ZM101.259 4.04572L101.368 4.21211L103.873 2.5607L103.763 2.39431L101.259 4.04572ZM135.906 4.21212L136.015 4.04615L133.51 2.39467L133.401 2.56063L135.906 4.21212ZM215.931 8.71543L211.763 2.39392L209.258 4.04534L213.427 10.3669L215.931 8.71543ZM198.419 2.39397L198.309 2.55989L200.814 4.21121L200.923 4.0453L198.419 2.39397ZM214.5 13.9449V107H217.5V13.9449H214.5ZM1.5 107V13.9449H-1.5V107H1.5ZM6.74125 209.954L2.57346 203.633L0.0688974 205.285L4.23669 211.605L6.74125 209.954ZM15.1867 209.788L15.0769 209.954L17.5815 211.605L17.6912 211.439L15.1867 209.788ZM47.2183 211.439L47.3293 211.607L49.8338 209.955L49.7228 209.787L47.2183 211.439ZM60.6729 211.607L60.7828 211.44L58.2782 209.789L58.1683 209.955L60.6729 211.607ZM90.3079 211.439L90.4182 211.606L92.9227 209.954L92.8124 209.787L90.3079 211.439ZM103.763 211.606L103.873 211.439L101.368 209.788L101.259 209.954L103.763 211.606ZM133.401 211.439L133.51 211.605L136.015 209.954L135.906 209.788L133.401 211.439ZM213.427 203.633L209.258 209.955L211.763 211.606L215.931 205.285L213.427 203.633ZM200.923 209.955L200.814 209.789L198.309 211.44L198.419 211.606L200.923 209.955ZM217.5 200.055V107H214.5V200.055H217.5ZM-1.5 107V200.055H1.5V107H-1.5ZM200.814 209.789C197.685 205.044 190.71 205.084 187.636 209.865L190.16 211.487C192.061 208.531 196.374 208.506 198.309 211.44L200.814 209.789ZM209.258 209.955C207.286 212.947 202.896 212.947 200.923 209.955L198.419 211.606C201.577 216.396 208.605 216.396 211.763 211.606L209.258 209.955ZM215.931 205.285C216.954 203.732 217.5 201.914 217.5 200.055H214.5C214.5 201.327 214.127 202.571 213.427 203.633L215.931 205.285ZM176.933 211.487C180.028 216.3 187.065 216.302 190.16 211.487L187.636 209.865C185.723 212.842 181.37 212.842 179.456 209.865L176.933 211.487ZM157.814 209.928C154.639 205.114 147.542 205.114 144.368 209.928L146.872 211.58C148.861 208.563 153.32 208.563 155.309 211.58L157.814 209.928ZM168.726 211.522C170.682 208.556 175.051 208.561 176.933 211.487L179.456 209.865C176.362 205.053 169.331 205.155 166.222 209.871L168.726 211.522ZM166.222 209.871C164.235 212.884 159.773 212.9 157.814 209.928L155.309 211.58C158.482 216.391 165.581 216.292 168.726 211.522L166.222 209.871ZM133.51 211.605C136.675 216.405 143.72 216.361 146.872 211.58L144.368 209.928C142.389 212.93 137.982 212.937 136.015 209.954L133.51 211.605ZM125.25 211.487C127.152 208.529 131.466 208.505 133.401 211.439L135.906 209.788C132.777 205.042 125.801 205.083 122.727 209.864L125.25 211.487ZM112.023 211.486C115.118 216.301 122.155 216.301 125.25 211.487L122.727 209.864C120.813 212.841 116.46 212.841 114.546 209.864L112.023 211.486ZM103.873 211.439C105.808 208.505 110.122 208.529 112.023 211.486L114.546 209.864C111.473 205.083 104.497 205.043 101.368 209.788L103.873 211.439ZM90.4182 211.606C93.577 216.396 100.605 216.396 103.763 211.606L101.259 209.954C99.2856 212.947 94.8958 212.947 92.9227 209.954L90.4182 211.606ZM71.4547 209.865C68.3813 205.084 61.4068 205.044 58.2782 209.789L60.7828 211.44C62.7175 208.506 67.0306 208.531 68.9312 211.487L71.4547 209.865ZM82.1577 211.487C84.0588 208.53 88.3729 208.504 90.3079 211.439L92.8124 209.787C89.6832 205.042 82.7078 205.083 79.6342 209.864L82.1577 211.487ZM79.6342 209.864C77.7203 212.841 73.3683 212.842 71.4547 209.865L68.9312 211.487C72.026 216.301 79.0632 216.3 82.1577 211.487L79.6342 209.864ZM47.3293 211.607C50.4878 216.397 57.5146 216.397 60.6729 211.607L58.1683 209.955C56.1957 212.947 51.8066 212.947 49.8338 209.955L47.3293 211.607ZM39.0685 211.486C40.9694 208.529 45.2832 208.504 47.2183 211.439L49.7228 209.787C46.5937 205.042 39.6186 205.083 36.5449 209.864L39.0685 211.486ZM25.841 211.486C28.936 216.301 35.9735 216.3 39.0685 211.486L36.5449 209.864C34.6308 212.841 30.2785 212.841 28.3645 209.864L25.841 211.486ZM17.6912 211.439C19.6263 208.504 23.94 208.529 25.841 211.486L28.3645 209.864C25.2907 205.083 18.3155 205.042 15.1867 209.788L17.6912 211.439ZM198.309 2.55984C196.374 5.49449 192.061 5.46952 190.16 2.51267L187.636 4.13498C190.71 8.91613 197.685 8.9565 200.814 4.21126L198.309 2.55984ZM211.763 2.39392C208.605 -2.39615 201.577 -2.39614 198.419 2.39392L200.923 4.04535C202.896 1.05338 207.286 1.05338 209.258 4.04535L211.763 2.39392ZM213.427 10.3668C214.127 11.4288 214.5 12.6729 214.5 13.9449H217.5C217.5 12.0858 216.954 10.2675 215.931 8.71544L213.427 10.3668ZM179.456 4.13537C181.37 1.15816 185.723 1.15821 187.636 4.13498L190.16 2.51267C187.065 -2.30155 180.028 -2.30044 176.933 2.51276L179.456 4.13537ZM155.309 2.42032C153.32 5.43678 148.861 5.43674 146.872 2.42017L144.368 4.07159C147.542 8.88615 154.639 8.88642 157.814 4.07174L155.309 2.42032ZM166.222 4.1294C169.331 8.84452 176.362 8.94724 179.456 4.13537L176.933 2.51276C175.051 5.43937 170.682 5.4438 168.726 2.47798L166.222 4.1294ZM168.726 2.47798C165.581 -2.2916 158.482 -2.39117 155.309 2.42033L157.814 4.07174C159.773 1.10017 164.235 1.11592 166.222 4.1294L168.726 2.47798ZM136.015 4.04612C137.982 1.0631 142.389 1.06993 144.368 4.07159L146.872 2.42016C143.72 -2.36094 136.675 -2.40505 133.51 2.3947L136.015 4.04612ZM122.727 4.13591C125.801 8.91704 132.777 8.95761 135.906 4.21208L133.401 2.56066C131.466 5.4955 127.152 5.47057 125.25 2.51347L122.727 4.13591ZM114.546 4.13587C116.46 1.15859 120.813 1.15855 122.727 4.13591L125.25 2.51347C122.155 -2.30053 115.118 -2.30074 112.023 2.51354L114.546 4.13587ZM101.368 4.21212C104.497 8.95749 111.473 8.91714 114.546 4.13587L112.023 2.51355C110.122 5.47053 105.808 5.49549 103.873 2.5607L101.368 4.21212ZM92.9227 4.04554C94.8958 1.05337 99.2856 1.05347 101.259 4.04573L103.763 2.39431C100.605 -2.39601 93.577 -2.39616 90.4182 2.394L92.9227 4.04554ZM68.9312 2.51281C67.0306 5.46924 62.7175 5.49421 60.7828 2.55998L58.2782 4.2114C61.4068 8.95622 68.3813 8.91585 71.4547 4.13513L68.9312 2.51281ZM79.6342 4.13571C82.7078 8.91662 89.6832 8.95816 92.8124 4.21286L90.3079 2.56132C88.3729 5.49571 84.0588 5.47049 82.1577 2.51339L79.6342 4.13571ZM82.1577 2.51339C79.0632 -2.30018 72.026 -2.3012 68.9312 2.51281L71.4547 4.13513C73.3684 1.15847 77.7203 1.15861 79.6342 4.13571L82.1577 2.51339ZM49.8338 4.04457C51.8066 1.05286 56.1957 1.05296 58.1683 4.04476L60.6729 2.39335C57.5146 -2.39651 50.4878 -2.39668 47.3293 2.39304L49.8338 4.04457ZM36.5449 4.13618C39.6186 8.91729 46.5937 8.95796 49.7228 4.21284L47.2183 2.5613C45.2832 5.49588 40.9694 5.47079 39.0685 2.51387L36.5449 4.13618ZM28.3645 4.13608C30.2785 1.15877 34.6308 1.1588 36.5449 4.13618L39.0685 2.51387C35.9735 -2.30036 28.936 -2.30051 25.841 2.51376L28.3645 4.13608ZM15.1867 4.21233C18.3155 8.95761 25.2907 8.91725 28.3645 4.13608L25.841 2.51376C23.94 5.47064 19.6263 5.4956 17.6912 2.56091L15.1867 4.21233ZM2.57345 203.633C1.87324 202.571 1.5 201.327 1.5 200.055H-1.5C-1.5 201.914 -0.954502 203.732 0.0688999 205.285L2.57345 203.633ZM0.0688976 8.71543C-0.954502 10.2675 -1.5 12.0858 -1.5 13.9449H1.5C1.5 12.6729 1.87324 11.4288 2.57346 10.3669L0.0688976 8.71543ZM4.23669 211.605C7.39528 216.396 14.4229 216.396 17.5815 211.605L15.077 209.954C13.104 212.946 8.71423 212.946 6.74125 209.954L4.23669 211.605ZM6.74125 4.04593C8.71423 1.05369 13.104 1.05369 15.077 4.04593L17.5815 2.39451C14.4229 -2.39584 7.39528 -2.39584 4.23669 2.39451L6.74125 4.04593Z" fill="#F8981D" mask="url(#path-1-inside-1_400_22)"/>
</svg>
