<svg width="156" height="198" viewBox="0 0 156 198" fill="none" xmlns="http://www.w3.org/2000/svg">
<mask id="path-1-inside-1_400_240" fill="white">
<path d="M0.868161 8.67023L3.96423 2.63312C5.5997 -0.555921 10.193 -0.487472 11.8285 2.70157C13.4443 5.85227 17.9906 5.89735 19.5741 2.73034C21.1668 -0.45481 25.7122 -0.454724 27.3049 2.73043C28.8884 5.89745 33.4351 5.85175 35.0511 2.70112C36.6865 -0.487491 41.3148 -0.488084 42.9501 2.70059C44.5657 5.85091 49.1115 5.8961 50.6949 2.72946C52.2873 -0.45532 56.8324 -0.454781 58.4249 2.73C60.0085 5.89701 64.5552 5.8522 66.1711 2.70158C67.8067 -0.487404 72.4353 -0.487673 74.0707 2.70138C75.6866 5.85215 80.233 5.89723 81.8166 2.73014C83.4093 -0.455018 87.9547 -0.454941 89.5475 2.73016C91.1313 5.89726 95.6777 5.85242 97.2936 2.70158C98.9291 -0.487539 103.535 -0.532202 105.17 2.65691C106.816 5.86582 111.427 5.86597 113.072 2.65706C114.708 -0.532176 119.313 -0.487617 120.949 2.70162C122.565 5.85267 127.112 5.89686 128.696 2.72964C130.289 -0.455142 134.834 -0.45562 136.426 2.72932C138.01 5.89631 142.556 5.85146 144.172 2.7008C145.807 -0.488018 150.4 -0.556242 152.035 2.63257L155.132 8.67023C155.702 9.7828 156 11.0152 156 12.2656V99V185.734C156 186.985 155.702 188.217 155.132 189.33L152.035 195.367C150.4 198.556 145.807 198.488 144.172 195.299C142.556 192.149 138.01 192.104 136.426 195.271C134.834 198.456 130.289 198.455 128.696 195.27C127.112 192.103 122.565 192.147 120.949 195.298C119.313 198.488 114.708 198.532 113.072 195.343C111.427 192.134 106.816 192.134 105.17 195.343C103.535 198.532 98.9291 198.488 97.2936 195.298C95.6777 192.148 91.1313 192.103 89.5475 195.27C87.9547 198.455 83.4093 198.455 81.8166 195.27C80.233 192.103 75.6866 192.148 74.0707 195.299C72.4353 198.488 67.8067 198.487 66.1711 195.298C64.5552 192.148 60.0085 192.103 58.4249 195.27C56.8325 198.455 52.2873 198.455 50.6949 195.271C49.1115 192.104 44.5657 192.149 42.9501 195.299C41.3148 198.488 36.6865 198.487 35.0511 195.299C33.4351 192.148 28.8884 192.103 27.3049 195.27C25.7122 198.455 21.1668 198.455 19.5741 195.27C17.9906 192.103 13.4443 192.148 11.8285 195.298C10.193 198.487 5.5997 198.556 3.96423 195.367L0.86816 189.33C0.297586 188.217 0 186.985 0 185.734V99V12.2656C0 11.0152 0.297586 9.7828 0.868161 8.67023Z"/>
</mask>
<path d="M0.868161 8.67023L3.96423 2.63312C5.5997 -0.555921 10.193 -0.487472 11.8285 2.70157C13.4443 5.85227 17.9906 5.89735 19.5741 2.73034C21.1668 -0.45481 25.7122 -0.454724 27.3049 2.73043C28.8884 5.89745 33.4351 5.85175 35.0511 2.70112C36.6865 -0.487491 41.3148 -0.488084 42.9501 2.70059C44.5657 5.85091 49.1115 5.8961 50.6949 2.72946C52.2873 -0.45532 56.8324 -0.454781 58.4249 2.73C60.0085 5.89701 64.5552 5.8522 66.1711 2.70158C67.8067 -0.487404 72.4353 -0.487673 74.0707 2.70138C75.6866 5.85215 80.233 5.89723 81.8166 2.73014C83.4093 -0.455018 87.9547 -0.454941 89.5475 2.73016C91.1313 5.89726 95.6777 5.85242 97.2936 2.70158C98.9291 -0.487539 103.535 -0.532202 105.17 2.65691C106.816 5.86582 111.427 5.86597 113.072 2.65706C114.708 -0.532176 119.313 -0.487617 120.949 2.70162C122.565 5.85267 127.112 5.89686 128.696 2.72964C130.289 -0.455142 134.834 -0.45562 136.426 2.72932C138.01 5.89631 142.556 5.85146 144.172 2.7008C145.807 -0.488018 150.4 -0.556242 152.035 2.63257L155.132 8.67023C155.702 9.7828 156 11.0152 156 12.2656V99V185.734C156 186.985 155.702 188.217 155.132 189.33L152.035 195.367C150.4 198.556 145.807 198.488 144.172 195.299C142.556 192.149 138.01 192.104 136.426 195.271C134.834 198.456 130.289 198.455 128.696 195.27C127.112 192.103 122.565 192.147 120.949 195.298C119.313 198.488 114.708 198.532 113.072 195.343C111.427 192.134 106.816 192.134 105.17 195.343C103.535 198.532 98.9291 198.488 97.2936 195.298C95.6777 192.148 91.1313 192.103 89.5475 195.27C87.9547 198.455 83.4093 198.455 81.8166 195.27C80.233 192.103 75.6866 192.148 74.0707 195.299C72.4353 198.488 67.8067 198.487 66.1711 195.298C64.5552 192.148 60.0085 192.103 58.4249 195.27C56.8325 198.455 52.2873 198.455 50.6949 195.271C49.1115 192.104 44.5657 192.149 42.9501 195.299C41.3148 198.488 36.6865 198.487 35.0511 195.299C33.4351 192.148 28.8884 192.103 27.3049 195.27C25.7122 198.455 21.1668 198.455 19.5741 195.27C17.9906 192.103 13.4443 192.148 11.8285 195.298C10.193 198.487 5.5997 198.556 3.96423 195.367L0.86816 189.33C0.297586 188.217 0 186.985 0 185.734V99V12.2656C0 11.0152 0.297586 9.7828 0.868161 8.67023Z" fill="#FDFDFD"/>
<path d="M3.96423 2.63312L5.29894 3.31762L3.96423 2.63312ZM0.868161 8.67023L2.20288 9.35472L0.868161 8.67023ZM155.132 8.67023L156.467 7.98573V7.98573L155.132 8.67023ZM152.035 2.63257L153.37 1.94808V1.94807L152.035 2.63257ZM3.96423 195.367L5.29894 194.682H5.29894L3.96423 195.367ZM0.86816 189.33L-0.466556 190.014H-0.466555L0.86816 189.33ZM155.132 189.33L156.467 190.014L155.132 189.33ZM152.035 195.367L150.701 194.683L152.035 195.367ZM144.172 195.299L142.837 195.984L144.172 195.299ZM136.426 195.271L137.768 195.942L136.426 195.271ZM128.696 195.27L130.037 194.599L128.696 195.27ZM113.072 195.343L114.407 194.658L113.072 195.343ZM105.17 195.343L106.505 196.028L105.17 195.343ZM120.949 195.298L119.614 194.614L120.949 195.298ZM97.2936 195.298L98.6283 194.614L97.2936 195.298ZM89.5475 195.27L88.2059 194.599L89.5475 195.27ZM81.8166 195.27L80.475 195.941V195.941L81.8166 195.27ZM74.0707 195.299L72.736 194.614L74.0707 195.299ZM66.1711 195.298L64.8364 195.983L66.1711 195.298ZM50.6949 195.271L49.3532 195.941H49.3533L50.6949 195.271ZM42.9501 195.299L41.6154 194.615L42.9501 195.299ZM58.4249 195.27L57.0833 194.599H57.0833L58.4249 195.27ZM35.0511 195.299L36.3858 194.614H36.3858L35.0511 195.299ZM27.3049 195.27L28.6465 195.94L27.3049 195.27ZM19.5741 195.27L20.9158 194.599L19.5741 195.27ZM11.8285 195.298L10.4938 194.614H10.4938L11.8285 195.298ZM144.172 2.7008L142.837 2.0163V2.01631L144.172 2.7008ZM136.426 2.72932L135.085 3.40016V3.40017L136.426 2.72932ZM128.696 2.72964L130.037 3.40062V3.40061L128.696 2.72964ZM113.072 2.65706L114.407 3.34156V3.34155L113.072 2.65706ZM105.17 2.65691L106.505 1.97242V1.97242L105.17 2.65691ZM120.949 2.70162L119.614 3.38611V3.38612L120.949 2.70162ZM97.2936 2.70158L95.9589 2.01708V2.01708L97.2936 2.70158ZM89.5475 2.73016L88.2059 3.40106L89.5475 2.73016ZM81.8166 2.73014L80.475 2.0593V2.0593L81.8166 2.73014ZM74.0707 2.70138L75.4054 2.01688V2.01688L74.0707 2.70138ZM66.1711 2.70158L67.5058 3.38613L66.1711 2.70158ZM50.6949 2.72946L49.3533 2.05862L49.3532 2.05862L50.6949 2.72946ZM42.9501 2.70059L44.2848 2.0161L42.9501 2.70059ZM58.4249 2.73L57.0833 3.40084L58.4249 2.73ZM35.0511 2.70112L33.7164 2.01657V2.01657L35.0511 2.70112ZM27.3049 2.73043L28.6465 2.05959L27.3049 2.73043ZM19.5741 2.73034L20.9158 3.40119L19.5741 2.73034ZM11.8285 2.70157L10.4938 3.38607V3.38607L11.8285 2.70157ZM2.62951 1.94863L-0.466555 7.98573L2.20288 9.35472L5.29894 3.31762L2.62951 1.94863ZM156.467 7.98573L153.37 1.94808L150.701 3.31707L153.797 9.35472L156.467 7.98573ZM154.5 12.2656V99H157.5V12.2656H154.5ZM1.5 99V12.2656H-1.5V99H1.5ZM5.29894 194.682L2.20288 188.645L-0.466555 190.014L2.62951 196.051L5.29894 194.682ZM153.797 188.645L150.701 194.683L153.37 196.052L156.467 190.014L153.797 188.645ZM157.5 185.734V99H154.5V185.734H157.5ZM-1.5 99V185.734H1.5V99H-1.5ZM145.507 194.615C143.352 190.414 137.24 190.29 135.085 194.6L137.768 195.942C138.78 193.917 141.76 193.883 142.837 195.984L145.507 194.615ZM150.701 194.683C149.645 196.742 146.606 196.759 145.507 194.615L142.837 195.984C145.008 200.217 151.155 200.371 153.37 196.052L150.701 194.683ZM156.467 190.014C157.146 188.69 157.5 187.223 157.5 185.734H154.5C154.5 186.747 154.259 187.745 153.797 188.645L156.467 190.014ZM127.354 195.941C129.5 200.231 135.623 200.232 137.768 195.942L135.085 194.6C134.045 196.679 131.077 196.679 130.037 194.599L127.354 195.941ZM114.407 194.658C112.204 190.362 106.039 190.362 103.835 194.659L106.505 196.028C107.593 193.906 110.65 193.906 111.738 196.027L114.407 194.658ZM122.284 195.983C123.361 193.882 126.341 193.916 127.354 195.941L130.037 194.599C127.882 190.29 121.769 190.412 119.614 194.614L122.284 195.983ZM119.614 194.614C118.522 196.744 115.471 196.733 114.407 194.658L111.738 196.027C113.945 200.332 120.105 200.232 122.284 195.983L119.614 194.614ZM95.9589 195.983C98.1377 200.231 104.297 200.332 106.505 196.028L103.835 194.659C102.772 196.733 99.7205 196.744 98.6283 194.614L95.9589 195.983ZM90.8891 195.941C91.9014 193.916 94.8814 193.882 95.9589 195.983L98.6283 194.614C96.474 190.413 90.3612 190.289 88.2059 194.599L90.8891 195.941ZM80.475 195.941C82.6205 200.231 88.7435 200.231 90.8891 195.941L88.2059 194.599C87.1659 196.679 84.1981 196.679 83.1582 194.599L80.475 195.941ZM75.4054 195.983C76.483 193.882 79.4629 193.917 80.475 195.941L83.1582 194.599C81.003 190.289 74.8902 190.414 72.736 194.614L75.4054 195.983ZM64.8364 195.983C67.0295 200.259 73.2122 200.26 75.4054 195.983L72.736 194.614C71.6583 196.716 68.5838 196.716 67.5058 194.614L64.8364 195.983ZM52.0365 194.6C49.8815 190.29 43.7693 190.415 41.6154 194.615L44.2848 195.984C45.3621 193.883 48.3415 193.918 49.3532 195.941L52.0365 194.6ZM59.7665 195.941C60.7786 193.917 63.7589 193.882 64.8364 195.983L67.5058 194.614C65.3514 190.413 59.2383 190.289 57.0833 194.599L59.7665 195.941ZM57.0833 194.599C56.0434 196.679 53.076 196.679 52.0365 194.6L49.3533 195.941C51.4987 200.232 57.6215 200.231 59.7665 195.941L57.0833 194.599ZM33.7164 195.983C35.9092 200.259 42.0917 200.26 44.2848 195.984L41.6154 194.615C40.5379 196.716 37.4637 196.716 36.3858 194.614L33.7164 195.983ZM28.6465 195.94C29.6583 193.917 32.6386 193.882 33.7164 195.983L36.3858 194.614C34.2317 190.415 28.1186 190.288 25.9632 194.599L28.6465 195.94ZM18.2325 195.941C20.378 200.231 26.5011 200.231 28.6465 195.94L25.9632 194.599C24.9234 196.678 21.9556 196.678 20.9158 194.599L18.2325 195.941ZM13.1632 195.983C14.2407 193.882 17.2205 193.917 18.2325 195.941L20.9158 194.599C18.7606 190.289 12.6479 190.414 10.4938 194.614L13.1632 195.983ZM142.837 2.01631C141.76 4.1171 138.78 4.08251 137.768 2.05848L135.085 3.40017C137.24 7.7101 143.352 7.58581 145.507 3.38529L142.837 2.01631ZM153.37 1.94807C151.155 -2.37067 145.008 -2.21702 142.837 2.0163L145.507 3.38529C146.606 1.24098 149.645 1.25819 150.701 3.31707L153.37 1.94807ZM153.797 9.35472C154.259 10.2555 154.5 11.2533 154.5 12.2656H157.5C157.5 10.7772 157.146 9.31012 156.467 7.98573L153.797 9.35472ZM130.037 3.40061C131.077 1.3208 134.045 1.32116 135.085 3.40016L137.768 2.05848C135.623 -2.2324 129.5 -2.23109 127.354 2.05866L130.037 3.40061ZM111.738 1.97256C110.65 4.09404 107.593 4.09408 106.505 1.97242L103.835 3.34141C106.039 7.63757 112.204 7.63789 114.407 3.34156L111.738 1.97256ZM119.614 3.38612C121.769 7.58754 127.882 7.71009 130.037 3.40062L127.354 2.05866C126.341 4.08362 123.361 4.1178 122.284 2.01712L119.614 3.38612ZM122.284 2.01712C120.105 -2.23155 113.945 -2.33181 111.738 1.97257L114.407 3.34155C115.471 1.26746 118.522 1.25632 119.614 3.38611L122.284 2.01712ZM98.6283 3.38607C99.7205 1.25634 102.772 1.26749 103.835 3.34141L106.505 1.97242C104.297 -2.33189 98.1377 -2.23142 95.9589 2.01708L98.6283 3.38607ZM88.2059 3.40106C90.3612 7.711 96.474 7.58681 98.6283 3.38607L95.9589 2.01708C94.8814 4.11803 91.9014 4.08352 90.8891 2.05927L88.2059 3.40106ZM83.1582 3.40099C84.1981 1.32145 87.1659 1.32135 88.2059 3.40106L90.8891 2.05927C88.7435 -2.23123 82.6205 -2.23148 80.475 2.0593L83.1582 3.40099ZM72.736 3.38587C74.8902 7.58635 81.003 7.71118 83.1582 3.40099L80.475 2.0593C79.4629 4.08329 76.483 4.11795 75.4054 2.01688L72.736 3.38587ZM67.5058 3.38613C68.5838 1.28421 71.6583 1.28436 72.736 3.38587L75.4054 2.01688C73.2122 -2.25971 67.0295 -2.25902 64.8364 2.01703L67.5058 3.38613ZM49.3532 2.05862C48.3415 4.08207 45.3621 4.11679 44.2848 2.0161L41.6154 3.38509C43.7693 7.58503 49.8815 7.71012 52.0365 3.4003L49.3532 2.05862ZM57.0833 3.40084C59.2383 7.71081 65.3514 7.58653 67.5058 3.38613L64.8364 2.01703C63.7589 4.11787 60.7786 4.0832 59.7665 2.05916L57.0833 3.40084ZM59.7665 2.05916C57.6215 -2.23082 51.4987 -2.23206 49.3533 2.05862L52.0365 3.4003C53.076 1.32142 56.0434 1.32125 57.0833 3.40084L59.7665 2.05916ZM36.3858 3.38567C37.4637 1.28392 40.5379 1.28415 41.6154 3.38509L44.2848 2.0161C42.0917 -2.26032 35.9092 -2.2589 33.7164 2.01657L36.3858 3.38567ZM25.9632 3.40127C28.1186 7.71183 34.2317 7.58549 36.3858 3.38567L33.7164 2.01657C32.6386 4.118 29.6583 4.08307 28.6465 2.05959L25.9632 3.40127ZM20.9158 3.40119C21.9556 1.32163 24.9234 1.32161 25.9632 3.40127L28.6465 2.05959C26.5011 -2.23106 20.378 -2.23125 18.2325 2.05949L20.9158 3.40119ZM10.4938 3.38607C12.6479 7.58646 18.7606 7.7113 20.9158 3.40119L18.2325 2.05949C17.2205 4.0834 14.2407 4.11807 13.1632 2.01708L10.4938 3.38607ZM2.20288 188.645C1.74093 187.745 1.5 186.747 1.5 185.734H-1.5C-1.5 187.223 -1.14576 188.69 -0.466556 190.014L2.20288 188.645ZM-0.466555 7.98573C-1.14576 9.31013 -1.5 10.7772 -1.5 12.2656H1.5C1.5 11.2533 1.74093 10.2555 2.20288 9.35472L-0.466555 7.98573ZM2.62951 196.051C4.84452 200.37 10.9921 200.216 13.1632 195.983L10.4938 194.614C9.39388 196.759 6.35487 196.741 5.29894 194.682L2.62951 196.051ZM5.29894 3.31762C6.35487 1.25865 9.39388 1.24139 10.4938 3.38607L13.1632 2.01708C10.9921 -2.21633 4.84453 -2.37049 2.62951 1.94863L5.29894 3.31762Z" fill="#F8981D" mask="url(#path-1-inside-1_400_240)"/>
</svg>
