<svg width="384" height="381" viewBox="0 0 384 381" fill="none" xmlns="http://www.w3.org/2000/svg">
<mask id="path-1-inside-1_363_133" fill="white">
<path d="M1.34809 21.0096L12.742 3.95606C15.9096 -0.784838 22.8784 -0.784841 26.0459 3.95606L32.0515 12.9448C35.2412 17.7189 42.2726 17.6781 45.4066 12.8672L50.994 4.28996C54.1499 -0.554524 61.2446 -0.554508 64.4004 4.28999L69.988 12.8676C73.1219 17.6784 80.1531 17.7194 83.3429 12.9456L89.3502 3.95526C92.5179 -0.785361 99.4864 -0.785205 102.654 3.95556L108.658 12.9415C111.847 17.7156 118.879 17.6747 122.013 12.8637L127.598 4.29005C130.754 -0.554466 137.848 -0.554463 141.004 4.29005L146.592 12.8676C149.726 17.6784 156.757 17.7194 159.947 12.9456L165.954 3.95526C169.122 -0.785361 176.09 -0.785203 179.258 3.95556L185.263 12.9448C188.453 17.7189 195.485 17.6781 198.619 12.8672L204.206 4.28943C207.362 -0.554914 214.457 -0.555065 217.613 4.28915L223.201 12.8679C226.336 17.6785 233.367 17.7193 236.556 12.9453L242.562 3.95606C245.73 -0.784843 252.699 -0.784842 255.866 3.95606L261.954 13.068C265.122 17.8089 272.09 17.8089 275.258 13.068L281.346 3.95607C284.513 -0.784832 291.482 -0.784833 294.65 3.95607L300.656 12.946C303.846 17.7198 310.876 17.6793 314.011 12.8691L319.602 4.28798C322.758 -0.555838 329.852 -0.555424 333.008 4.28876L338.595 12.8651C341.729 17.676 348.76 17.7169 351.95 12.9428L357.954 3.95606C361.122 -0.784837 368.09 -0.784841 371.258 3.95606L382.652 21.0096C383.531 22.3252 384 23.8718 384 25.454V190.5V355.546C384 357.128 383.531 358.675 382.652 359.99L371.258 377.044C368.09 381.785 361.122 381.785 357.954 377.044L351.95 368.057C348.76 363.283 341.729 363.324 338.595 368.135L333.008 376.711C329.852 381.555 322.758 381.556 319.602 376.712L314.011 368.131C310.876 363.321 303.846 363.28 300.656 368.054L294.65 377.044C291.482 381.785 284.513 381.785 281.346 377.044L275.258 367.932C272.09 363.191 265.122 363.191 261.954 367.932L255.866 377.044C252.699 381.785 245.73 381.785 242.562 377.044L236.556 368.055C233.367 363.281 226.336 363.321 223.201 368.132L217.613 376.711C214.457 381.555 207.362 381.555 204.206 376.711L198.619 368.133C195.485 363.322 188.453 363.281 185.263 368.055L179.258 377.044C176.09 381.785 169.122 381.785 165.954 377.045L159.947 368.054C156.757 363.281 149.726 363.322 146.592 368.132L141.004 376.71C137.848 381.554 130.754 381.554 127.598 376.71L122.013 368.136C118.879 363.325 111.847 363.284 108.658 368.059L102.654 377.044C99.4864 381.785 92.5179 381.785 89.3502 377.045L83.3429 368.054C80.1531 363.281 73.1219 363.322 69.988 368.132L64.4004 376.71C61.2446 381.555 54.1499 381.555 50.994 376.71L45.4066 368.133C42.2726 363.322 35.2412 363.281 32.0515 368.055L26.0459 377.044C22.8784 381.785 15.9096 381.785 12.742 377.044L1.34809 359.99C0.469135 358.675 0 357.128 0 355.546V190.5V25.454C0 23.8718 0.469135 22.3252 1.34809 21.0096Z"/>
</mask>
<path d="M1.34809 21.0096L12.742 3.95606C15.9096 -0.784838 22.8784 -0.784841 26.0459 3.95606L32.0515 12.9448C35.2412 17.7189 42.2726 17.6781 45.4066 12.8672L50.994 4.28996C54.1499 -0.554524 61.2446 -0.554508 64.4004 4.28999L69.988 12.8676C73.1219 17.6784 80.1531 17.7194 83.3429 12.9456L89.3502 3.95526C92.5179 -0.785361 99.4864 -0.785205 102.654 3.95556L108.658 12.9415C111.847 17.7156 118.879 17.6747 122.013 12.8637L127.598 4.29005C130.754 -0.554466 137.848 -0.554463 141.004 4.29005L146.592 12.8676C149.726 17.6784 156.757 17.7194 159.947 12.9456L165.954 3.95526C169.122 -0.785361 176.09 -0.785203 179.258 3.95556L185.263 12.9448C188.453 17.7189 195.485 17.6781 198.619 12.8672L204.206 4.28943C207.362 -0.554914 214.457 -0.555065 217.613 4.28915L223.201 12.8679C226.336 17.6785 233.367 17.7193 236.556 12.9453L242.562 3.95606C245.73 -0.784843 252.699 -0.784842 255.866 3.95606L261.954 13.068C265.122 17.8089 272.09 17.8089 275.258 13.068L281.346 3.95607C284.513 -0.784832 291.482 -0.784833 294.65 3.95607L300.656 12.946C303.846 17.7198 310.876 17.6793 314.011 12.8691L319.602 4.28798C322.758 -0.555838 329.852 -0.555424 333.008 4.28876L338.595 12.8651C341.729 17.676 348.76 17.7169 351.95 12.9428L357.954 3.95606C361.122 -0.784837 368.09 -0.784841 371.258 3.95606L382.652 21.0096C383.531 22.3252 384 23.8718 384 25.454V190.5V355.546C384 357.128 383.531 358.675 382.652 359.99L371.258 377.044C368.09 381.785 361.122 381.785 357.954 377.044L351.95 368.057C348.76 363.283 341.729 363.324 338.595 368.135L333.008 376.711C329.852 381.555 322.758 381.556 319.602 376.712L314.011 368.131C310.876 363.321 303.846 363.28 300.656 368.054L294.65 377.044C291.482 381.785 284.513 381.785 281.346 377.044L275.258 367.932C272.09 363.191 265.122 363.191 261.954 367.932L255.866 377.044C252.699 381.785 245.73 381.785 242.562 377.044L236.556 368.055C233.367 363.281 226.336 363.321 223.201 368.132L217.613 376.711C214.457 381.555 207.362 381.555 204.206 376.711L198.619 368.133C195.485 363.322 188.453 363.281 185.263 368.055L179.258 377.044C176.09 381.785 169.122 381.785 165.954 377.045L159.947 368.054C156.757 363.281 149.726 363.322 146.592 368.132L141.004 376.71C137.848 381.554 130.754 381.554 127.598 376.71L122.013 368.136C118.879 363.325 111.847 363.284 108.658 368.059L102.654 377.044C99.4864 381.785 92.5179 381.785 89.3502 377.045L83.3429 368.054C80.1531 363.281 73.1219 363.322 69.988 368.132L64.4004 376.71C61.2446 381.555 54.1499 381.555 50.994 376.71L45.4066 368.133C42.2726 363.322 35.2412 363.281 32.0515 368.055L26.0459 377.044C22.8784 381.785 15.9096 381.785 12.742 377.044L1.34809 359.99C0.469135 358.675 0 357.128 0 355.546V190.5V25.454C0 23.8718 0.469135 22.3252 1.34809 21.0096Z" fill="#FDFDFD"/>
<path d="M12.742 3.95606L11.4948 3.12275L12.742 3.95606ZM1.34809 21.0096L0.100851 20.1763H0.100851L1.34809 21.0096ZM32.0515 12.9448L30.8043 13.7781L32.0515 12.9448ZM26.0459 3.95606L24.7986 4.78937L26.0459 3.95606ZM50.994 4.28996L52.2509 5.10871L50.994 4.28996ZM45.4066 12.8672L46.6634 13.6859L45.4066 12.8672ZM69.988 12.8676L71.2449 12.0488L69.988 12.8676ZM64.4004 4.28999L63.1435 5.10873V5.10873L64.4004 4.28999ZM83.3429 12.9456L84.5901 13.779L83.3429 12.9456ZM89.3502 3.95526L88.103 3.12189V3.12189L89.3502 3.95526ZM141.004 4.29005L142.261 3.47131V3.47131L141.004 4.29005ZM146.592 12.8676L145.335 13.6863L146.592 12.8676ZM122.013 12.8637L123.269 13.6825L123.27 13.6825L122.013 12.8637ZM127.598 4.29005L126.341 3.47131L127.598 4.29005ZM102.654 3.95556L101.407 4.78887L102.654 3.95556ZM108.658 12.9415L109.905 12.1081L109.905 12.1081L108.658 12.9415ZM159.947 12.9456L161.194 13.779V13.7789L159.947 12.9456ZM165.954 3.95526L164.707 3.12189V3.12189L165.954 3.95526ZM179.258 3.95556L180.505 3.12225V3.12225L179.258 3.95556ZM185.263 12.9448L184.016 13.7781V13.7781L185.263 12.9448ZM204.206 4.28943L202.95 3.47069L204.206 4.28943ZM198.619 12.8672L197.362 12.0484L197.362 12.0484L198.619 12.8672ZM223.201 12.8679L224.458 12.0491V12.0491L223.201 12.8679ZM217.613 4.28915L216.356 5.10795L217.613 4.28915ZM236.556 12.9453L237.804 13.7786L236.556 12.9453ZM242.562 3.95606L241.315 3.12275L242.562 3.95606ZM294.65 3.95607L295.897 3.12276V3.12275L294.65 3.95607ZM300.656 12.946L301.903 12.1127V12.1127L300.656 12.946ZM275.258 13.068L274.011 12.2347L275.258 13.068ZM281.346 3.95607L280.099 3.12276V3.12276L281.346 3.95607ZM255.866 3.95606L254.619 4.78937L255.866 3.95606ZM261.954 13.068L263.201 12.2347V12.2347L261.954 13.068ZM314.011 12.8691L312.754 12.0502V12.0502L314.011 12.8691ZM319.602 4.28798L320.859 5.10687V5.10686L319.602 4.28798ZM382.652 21.0096L381.405 21.843V21.843L382.652 21.0096ZM371.258 3.95606L372.505 3.12275V3.12275L371.258 3.95606ZM357.954 3.95606L359.201 4.78938V4.78937L357.954 3.95606ZM351.95 12.9428L350.703 12.1095L351.95 12.9428ZM333.008 4.28876L334.265 3.47002L333.008 4.28876ZM338.595 12.8651L337.338 13.6838V13.6838L338.595 12.8651ZM12.742 377.044L13.9893 376.211H13.9893L12.742 377.044ZM1.34809 359.99L0.100849 360.824H0.100852L1.34809 359.99ZM32.0515 368.055L33.2987 368.889L32.0515 368.055ZM26.0459 377.044L27.2931 377.877H27.2931L26.0459 377.044ZM50.994 376.71L52.2509 375.891L50.994 376.71ZM45.4066 368.133L44.1497 368.952L45.4066 368.133ZM69.988 368.132L71.2449 368.951H71.2449L69.988 368.132ZM64.4004 376.71L63.1435 375.891L64.4004 376.71ZM83.3429 368.054L82.0957 368.888H82.0957L83.3429 368.054ZM89.3502 377.045L88.103 377.878L89.3502 377.045ZM141.004 376.71L139.747 375.891L141.004 376.71ZM146.592 368.132L147.849 368.951L146.592 368.132ZM122.013 368.136L123.27 367.318L123.269 367.318L122.013 368.136ZM127.598 376.71L126.341 377.529H126.341L127.598 376.71ZM102.654 377.044L103.901 377.878L102.654 377.044ZM108.658 368.059L109.905 368.892H109.905L108.658 368.059ZM159.947 368.054L161.194 367.221L159.947 368.054ZM165.954 377.045L164.707 377.878L165.954 377.045ZM179.258 377.044L180.505 377.878L179.258 377.044ZM185.263 368.055L184.016 367.222L185.263 368.055ZM204.206 376.711L202.95 377.529L204.206 376.711ZM198.619 368.133L197.362 368.952H197.362L198.619 368.133ZM223.201 368.132L224.458 368.951L223.201 368.132ZM217.613 376.711L216.356 375.892L217.613 376.711ZM236.556 368.055L235.309 368.888L236.556 368.055ZM242.562 377.044L243.81 376.211L242.562 377.044ZM294.65 377.044L293.402 376.211L294.65 377.044ZM300.656 368.054L301.903 368.887L300.656 368.054ZM275.258 367.932L276.505 367.099L275.258 367.932ZM281.346 377.044L280.099 377.877L281.346 377.044ZM255.866 377.044L254.619 376.211L255.866 377.044ZM261.954 367.932L263.201 368.765L261.954 367.932ZM314.011 368.131L312.754 368.95L314.011 368.131ZM319.602 376.712L320.859 375.893L319.602 376.712ZM382.652 359.99L381.405 359.157L382.652 359.99ZM371.258 377.044L372.505 377.877L371.258 377.044ZM357.954 377.044L359.201 376.211L357.954 377.044ZM351.95 368.057L350.703 368.891L351.95 368.057ZM333.008 376.711L334.265 377.53L333.008 376.711ZM338.595 368.135L337.338 367.316V367.316L338.595 368.135ZM11.4948 3.12275L0.100851 20.1763L2.59532 21.843L13.9893 4.78937L11.4948 3.12275ZM33.2987 12.1115L27.2931 3.12275L24.7986 4.78937L30.8043 13.7781L33.2987 12.1115ZM49.7372 3.47121L44.1497 12.0484L46.6634 13.6859L52.2509 5.10871L49.7372 3.47121ZM71.2449 12.0488L65.6572 3.47125L63.1435 5.10873L68.7312 13.6863L71.2449 12.0488ZM84.5901 13.779L90.5974 4.78863L88.103 3.12189L82.0957 12.1122L84.5901 13.779ZM139.747 5.10879L145.335 13.6863L147.849 12.0488L142.261 3.47131L139.747 5.10879ZM123.27 13.6825L128.855 5.10879L126.341 3.47131L120.756 12.045L123.27 13.6825ZM101.407 4.78887L107.41 13.7748L109.905 12.1081L103.901 3.12225L101.407 4.78887ZM161.194 13.7789L167.201 4.78863L164.707 3.12189L158.699 12.1122L161.194 13.7789ZM178.01 4.78887L184.016 13.7781L186.511 12.1115L180.505 3.12225L178.01 4.78887ZM202.95 3.47069L197.362 12.0484L199.875 13.6859L205.463 5.10818L202.95 3.47069ZM224.458 12.0491L218.869 3.47035L216.356 5.10795L221.945 13.6867L224.458 12.0491ZM237.804 13.7786L243.81 4.78937L241.315 3.12275L235.309 12.112L237.804 13.7786ZM293.402 4.78938L299.409 13.7794L301.903 12.1127L295.897 3.12276L293.402 4.78938ZM276.505 13.9013L282.593 4.78938L280.099 3.12276L274.011 12.2347L276.505 13.9013ZM254.619 4.78937L260.707 13.9013L263.201 12.2347L257.113 3.12274L254.619 4.78937ZM315.267 13.688L320.859 5.10687L318.345 3.46909L312.754 12.0502L315.267 13.688ZM383.899 20.1763L372.505 3.12275L370.011 4.78937L381.405 21.843L383.899 20.1763ZM356.707 3.12275L350.703 12.1095L353.197 13.7761L359.201 4.78938L356.707 3.12275ZM331.751 5.1075L337.338 13.6838L339.852 12.0463L334.265 3.47002L331.751 5.1075ZM382.5 25.454V190.5H385.5V25.454H382.5ZM1.5 190.5V25.454H-1.5V190.5H1.5ZM13.9893 376.211L2.59532 359.157L0.100852 360.824L11.4948 377.877L13.9893 376.211ZM30.8043 367.222L24.7986 376.211L27.2931 377.877L33.2987 368.889L30.8043 367.222ZM52.2509 375.891L46.6634 367.314L44.1497 368.952L49.7372 377.529L52.2509 375.891ZM68.7312 367.314L63.1435 375.891L65.6572 377.529L71.2449 368.951L68.7312 367.314ZM82.0957 368.888L88.103 377.878L90.5974 376.211L84.5901 367.221L82.0957 368.888ZM142.261 377.529L147.849 368.951L145.335 367.314L139.747 375.891L142.261 377.529ZM120.756 368.955L126.341 377.529L128.855 375.891L123.27 367.318L120.756 368.955ZM103.901 377.878L109.905 368.892L107.41 367.225L101.407 376.211L103.901 377.878ZM158.699 368.888L164.707 377.878L167.201 376.211L161.194 367.221L158.699 368.888ZM180.505 377.878L186.511 368.888L184.016 367.222L178.01 376.211L180.505 377.878ZM205.463 375.892L199.875 367.314L197.362 368.952L202.95 377.529L205.463 375.892ZM221.945 367.313L216.356 375.892L218.869 377.53L224.458 368.951L221.945 367.313ZM235.309 368.888L241.315 377.877L243.81 376.211L237.804 367.221L235.309 368.888ZM295.897 377.877L301.903 368.887L299.409 367.221L293.402 376.211L295.897 377.877ZM274.011 368.765L280.099 377.877L282.593 376.211L276.505 367.099L274.011 368.765ZM257.113 377.877L263.201 368.765L260.707 367.099L254.619 376.211L257.113 377.877ZM312.754 368.95L318.345 377.531L320.859 375.893L315.267 367.312L312.754 368.95ZM381.405 359.157L370.011 376.211L372.505 377.877L383.899 360.824L381.405 359.157ZM359.201 376.211L353.197 367.224L350.703 368.891L356.707 377.877L359.201 376.211ZM334.265 377.53L339.852 368.954L337.338 367.316L331.751 375.893L334.265 377.53ZM385.5 355.546V190.5H382.5V355.546H385.5ZM-1.5 190.5V355.546H1.5V190.5H-1.5ZM353.197 367.224C349.409 361.555 341.06 361.603 337.338 367.316L339.852 368.954C342.398 365.045 348.111 365.012 350.703 368.891L353.197 367.224ZM370.011 376.211C367.437 380.063 361.775 380.063 359.201 376.211L356.707 377.877C360.468 383.507 368.744 383.507 372.505 377.877L370.011 376.211ZM383.899 360.824C384.943 359.261 385.5 357.425 385.5 355.546H382.5C382.5 356.832 382.119 358.088 381.405 359.157L383.899 360.824ZM318.345 377.531C322.093 383.283 330.518 383.282 334.265 377.53L331.751 375.893C329.187 379.828 323.423 379.829 320.859 375.893L318.345 377.531ZM276.505 367.099C272.744 361.469 264.468 361.469 260.707 367.099L263.201 368.765C265.775 364.913 271.437 364.913 274.011 368.765L276.505 367.099ZM301.903 368.887C304.495 365.009 310.207 365.041 312.754 368.95L315.267 367.312C311.546 361.6 303.196 361.552 299.409 367.221L301.903 368.887ZM293.402 376.211C290.829 380.063 285.167 380.063 282.593 376.211L280.099 377.877C283.86 383.507 292.135 383.507 295.897 377.877L293.402 376.211ZM241.315 377.877C245.077 383.507 253.352 383.507 257.113 377.877L254.619 376.211C252.045 380.063 246.383 380.063 243.81 376.211L241.315 377.877ZM224.458 368.951C227.005 365.042 232.718 365.009 235.309 368.888L237.804 367.221C234.016 361.552 225.666 361.601 221.945 367.313L224.458 368.951ZM202.95 377.529C206.697 383.282 215.122 383.282 218.869 377.53L216.356 375.892C213.791 379.828 208.027 379.828 205.463 375.892L202.95 377.529ZM186.511 368.888C189.102 365.01 194.815 365.043 197.362 368.952L199.875 367.314C196.154 361.601 187.804 361.553 184.016 367.222L186.511 368.888ZM164.707 377.878C168.468 383.508 176.743 383.507 180.505 377.878L178.01 376.211C175.437 380.063 169.775 380.063 167.201 376.211L164.707 377.878ZM123.269 367.318C119.548 361.605 111.198 361.556 107.41 367.225L109.905 368.892C112.496 365.013 118.209 365.046 120.756 368.955L123.269 367.318ZM147.849 368.951C150.395 365.042 156.108 365.009 158.699 368.888L161.194 367.221C157.406 361.552 149.056 361.601 145.335 367.314L147.849 368.951ZM139.747 375.891C137.183 379.827 131.419 379.827 128.855 375.891L126.341 377.529C130.088 383.282 138.513 383.282 142.261 377.529L139.747 375.891ZM88.103 377.878C91.8646 383.508 100.14 383.507 103.901 377.878L101.407 376.211C98.8331 380.063 93.1711 380.063 90.5974 376.211L88.103 377.878ZM71.2449 368.951C73.7911 365.042 79.504 365.009 82.0957 368.888L84.5901 367.221C80.8022 361.552 72.4526 361.601 68.7312 367.314L71.2449 368.951ZM49.7372 377.529C53.4848 383.282 61.9097 383.282 65.6572 377.529L63.1435 375.891C60.5794 379.827 54.815 379.827 52.2509 375.891L49.7372 377.529ZM33.2987 368.889C35.8904 365.01 41.6034 365.043 44.1497 368.952L46.6634 367.314C42.9418 361.601 34.5921 361.553 30.8043 367.222L33.2987 368.889ZM350.703 12.1095C348.111 15.9884 342.398 15.9552 339.852 12.0463L337.338 13.6838C341.06 19.3968 349.409 19.4454 353.197 13.7761L350.703 12.1095ZM372.505 3.12275C368.744 -2.50707 360.468 -2.50707 356.707 3.12276L359.201 4.78937C361.775 0.937397 367.437 0.937385 370.011 4.78937L372.505 3.12275ZM381.405 21.843C382.119 22.9118 382.5 24.1685 382.5 25.454H385.5C385.5 23.5752 384.943 21.7385 383.899 20.1763L381.405 21.843ZM320.859 5.10686C323.423 1.17127 329.187 1.1716 331.751 5.1075L334.265 3.47002C330.518 -2.28245 322.093 -2.28294 318.345 3.4691L320.859 5.10686ZM274.011 12.2347C271.437 16.0867 265.775 16.0867 263.201 12.2347L260.707 13.9013C264.468 19.5312 272.744 19.5312 276.505 13.9013L274.011 12.2347ZM299.409 13.7794C303.196 19.4482 311.546 19.4001 315.267 13.688L312.754 12.0502C310.207 15.9585 304.495 15.9914 301.903 12.1127L299.409 13.7794ZM295.897 3.12275C292.135 -2.50706 283.86 -2.50706 280.099 3.12276L282.593 4.78938C285.167 0.937396 290.829 0.937396 293.402 4.78938L295.897 3.12275ZM243.81 4.78937C246.383 0.937387 252.045 0.937387 254.619 4.78937L257.113 3.12274C253.352 -2.50707 245.077 -2.50707 241.315 3.12275L243.81 4.78937ZM221.945 13.6867C225.666 19.3993 234.016 19.4477 237.804 13.7786L235.309 12.112C232.718 15.9908 227.005 15.9577 224.458 12.0491L221.945 13.6867ZM205.463 5.10818C208.027 1.17215 213.791 1.17203 216.356 5.10795L218.869 3.47035C215.122 -2.28216 206.697 -2.28197 202.95 3.47069L205.463 5.10818ZM184.016 13.7781C187.804 19.4474 196.154 19.3988 199.875 13.6859L197.362 12.0484C194.815 15.9573 189.102 15.9905 186.511 12.1115L184.016 13.7781ZM167.201 4.78863C169.775 0.936871 175.437 0.937005 178.01 4.78888L180.505 3.12225C176.743 -2.50741 168.468 -2.50759 164.707 3.12189L167.201 4.78863ZM120.756 12.045C118.209 15.9539 112.496 15.9871 109.905 12.1081L107.41 13.7748C111.198 19.444 119.548 19.3955 123.269 13.6825L120.756 12.045ZM145.335 13.6863C149.056 19.3991 157.406 19.4479 161.194 13.779L158.699 12.1122C156.108 15.991 150.395 15.9576 147.849 12.0488L145.335 13.6863ZM142.261 3.47131C138.513 -2.28155 130.088 -2.28155 126.341 3.47131L128.855 5.10879C131.419 1.17262 137.183 1.17262 139.747 5.10879L142.261 3.47131ZM90.5974 4.78863C93.1711 0.936872 98.8331 0.937002 101.407 4.78887L103.901 3.12225C100.14 -2.50741 91.8646 -2.50759 88.103 3.12189L90.5974 4.78863ZM68.7312 13.6863C72.4526 19.3991 80.8022 19.4479 84.5901 13.779L82.0957 12.1122C79.504 15.991 73.7911 15.9576 71.2449 12.0488L68.7312 13.6863ZM52.2509 5.10871C54.815 1.17256 60.5794 1.17258 63.1435 5.10873L65.6572 3.47125C61.9097 -2.28159 53.4848 -2.28161 49.7372 3.47121L52.2509 5.10871ZM30.8043 13.7781C34.5921 19.4474 42.9418 19.3988 46.6634 13.6859L44.1497 12.0484C41.6034 15.9573 35.8904 15.9905 33.2987 12.1115L30.8043 13.7781ZM2.59532 359.157C1.88117 358.088 1.5 356.832 1.5 355.546H-1.5C-1.5 357.425 -0.942902 359.261 0.100849 360.824L2.59532 359.157ZM0.100851 20.1763C-0.942903 21.7385 -1.5 23.5752 -1.5 25.454H1.5C1.5 24.1685 1.88117 22.9118 2.59532 21.843L0.100851 20.1763ZM11.4948 377.877C15.2562 383.507 23.5317 383.507 27.2931 377.877L24.7986 376.211C22.225 380.063 16.5629 380.063 13.9893 376.211L11.4948 377.877ZM13.9893 4.78937C16.5629 0.937391 22.225 0.93739 24.7986 4.78937L27.2931 3.12275C23.5317 -2.50707 15.2562 -2.50707 11.4948 3.12275L13.9893 4.78937Z" fill="#F8981D" mask="url(#path-1-inside-1_363_133)"/>
</svg>
