<svg width="464" height="433" viewBox="0 0 464 433" fill="none" xmlns="http://www.w3.org/2000/svg">
<mask id="path-1-inside-1_357_100" fill="white">
<path d="M1.49603 25.6316L16.9304 4.08121C20.1216 -0.374588 26.7471 -0.374592 29.9383 4.08121L40.2821 18.5238C43.4968 23.0123 50.1842 22.9724 53.3452 18.4459L63.1584 4.39294C66.3424 -0.166776 73.0925 -0.166753 76.2766 4.39298L86.0899 18.4462C89.2507 22.9727 95.9379 23.0128 99.1527 18.5245L109.499 4.08045C112.69 -0.375072 119.315 -0.374911 122.506 4.08076L132.848 18.52C136.062 23.0086 142.75 22.9687 145.911 18.442L155.721 4.39303C158.905 -0.166719 165.655 -0.166723 168.839 4.39302L178.653 18.4462C181.814 22.9727 188.501 23.0128 191.716 18.5245L202.061 4.08045C205.253 -0.375071 211.878 -0.37491 215.069 4.08076L225.413 18.5238C228.628 23.0123 235.315 22.9725 238.476 18.4459L248.29 4.39245C251.474 -0.167127 258.224 -0.167262 261.408 4.39218L271.223 18.4466C274.384 22.9729 281.071 23.0126 284.286 18.5242L294.63 4.08121C297.821 -0.374595 304.447 -0.374589 307.638 4.08121L318.062 18.6355C321.253 23.0913 327.878 23.0913 331.07 18.6355L341.493 4.08121C344.685 -0.374593 351.31 -0.374584 354.501 4.08122L364.846 18.5249C368.06 23.0131 374.747 22.9736 377.908 18.4477L387.727 4.39105C390.911 -0.167987 397.66 -0.167572 400.844 4.39185L410.656 18.4435C413.817 22.9701 420.505 23.01 423.72 18.5215L434.062 4.08122C437.253 -0.374585 443.878 -0.374592 447.07 4.08121L462.504 25.6316C463.477 26.9899 464 28.6189 464 30.2897V216.5V402.71C464 404.381 463.477 406.01 462.504 407.368L447.07 428.919C443.878 433.375 437.253 433.375 434.062 428.919L423.72 414.479C420.505 409.99 413.817 410.03 410.656 414.556L400.844 428.608C397.66 433.168 390.911 433.168 387.727 428.609L377.908 414.552C374.747 410.026 368.06 409.987 364.846 414.475L354.501 428.919C351.31 433.375 344.685 433.375 341.493 428.919L331.07 414.365C327.878 409.909 321.253 409.909 318.062 414.365L307.638 428.919C304.447 433.375 297.821 433.375 294.63 428.919L284.286 414.476C281.071 409.987 274.384 410.027 271.223 414.553L261.408 428.608C258.224 433.167 251.474 433.167 248.29 428.608L238.476 414.554C235.315 410.028 228.628 409.988 225.413 414.476L215.069 428.919C211.878 433.375 205.253 433.375 202.061 428.92L191.716 414.475C188.501 409.987 181.814 410.027 178.653 414.554L168.839 428.607C165.655 433.167 158.905 433.167 155.721 428.607L145.911 414.558C142.75 410.031 136.062 409.991 132.848 414.48L122.506 428.919C119.315 433.375 112.69 433.375 109.499 428.92L99.1527 414.475C95.9379 409.987 89.2507 410.027 86.0899 414.554L76.2766 428.607C73.0925 433.167 66.3424 433.167 63.1584 428.607L53.3452 414.554C50.1842 410.028 43.4968 409.988 40.2821 414.476L29.9383 428.919C26.7471 433.375 20.1216 433.375 16.9304 428.919L1.49603 407.368C0.523147 406.01 0 404.381 0 402.71V216.5V30.2897C0 28.6189 0.523147 26.99 1.49603 25.6316Z"/>
</mask>
<path d="M1.49603 25.6316L16.9304 4.08121C20.1216 -0.374588 26.7471 -0.374592 29.9383 4.08121L40.2821 18.5238C43.4968 23.0123 50.1842 22.9724 53.3452 18.4459L63.1584 4.39294C66.3424 -0.166776 73.0925 -0.166753 76.2766 4.39298L86.0899 18.4462C89.2507 22.9727 95.9379 23.0128 99.1527 18.5245L109.499 4.08045C112.69 -0.375072 119.315 -0.374911 122.506 4.08076L132.848 18.52C136.062 23.0086 142.75 22.9687 145.911 18.442L155.721 4.39303C158.905 -0.166719 165.655 -0.166723 168.839 4.39302L178.653 18.4462C181.814 22.9727 188.501 23.0128 191.716 18.5245L202.061 4.08045C205.253 -0.375071 211.878 -0.37491 215.069 4.08076L225.413 18.5238C228.628 23.0123 235.315 22.9725 238.476 18.4459L248.29 4.39245C251.474 -0.167127 258.224 -0.167262 261.408 4.39218L271.223 18.4466C274.384 22.9729 281.071 23.0126 284.286 18.5242L294.63 4.08121C297.821 -0.374595 304.447 -0.374589 307.638 4.08121L318.062 18.6355C321.253 23.0913 327.878 23.0913 331.07 18.6355L341.493 4.08121C344.685 -0.374593 351.31 -0.374584 354.501 4.08122L364.846 18.5249C368.06 23.0131 374.747 22.9736 377.908 18.4477L387.727 4.39105C390.911 -0.167987 397.66 -0.167572 400.844 4.39185L410.656 18.4435C413.817 22.9701 420.505 23.01 423.72 18.5215L434.062 4.08122C437.253 -0.374585 443.878 -0.374592 447.07 4.08121L462.504 25.6316C463.477 26.9899 464 28.6189 464 30.2897V216.5V402.71C464 404.381 463.477 406.01 462.504 407.368L447.07 428.919C443.878 433.375 437.253 433.375 434.062 428.919L423.72 414.479C420.505 409.99 413.817 410.03 410.656 414.556L400.844 428.608C397.66 433.168 390.911 433.168 387.727 428.609L377.908 414.552C374.747 410.026 368.06 409.987 364.846 414.475L354.501 428.919C351.31 433.375 344.685 433.375 341.493 428.919L331.07 414.365C327.878 409.909 321.253 409.909 318.062 414.365L307.638 428.919C304.447 433.375 297.821 433.375 294.63 428.919L284.286 414.476C281.071 409.987 274.384 410.027 271.223 414.553L261.408 428.608C258.224 433.167 251.474 433.167 248.29 428.608L238.476 414.554C235.315 410.028 228.628 409.988 225.413 414.476L215.069 428.919C211.878 433.375 205.253 433.375 202.061 428.92L191.716 414.475C188.501 409.987 181.814 410.027 178.653 414.554L168.839 428.607C165.655 433.167 158.905 433.167 155.721 428.607L145.911 414.558C142.75 410.031 136.062 409.991 132.848 414.48L122.506 428.919C119.315 433.375 112.69 433.375 109.499 428.92L99.1527 414.475C95.9379 409.987 89.2507 410.027 86.0899 414.554L76.2766 428.607C73.0925 433.167 66.3424 433.167 63.1584 428.607L53.3452 414.554C50.1842 410.028 43.4968 409.988 40.2821 414.476L29.9383 428.919C26.7471 433.375 20.1216 433.375 16.9304 428.919L1.49603 407.368C0.523147 406.01 0 404.381 0 402.71V216.5V30.2897C0 28.6189 0.523147 26.99 1.49603 25.6316Z" fill="#FDFDFD"/>
<path d="M16.9304 4.08121L15.7109 3.20781L16.9304 4.08121ZM1.49603 25.6316L2.71552 26.505L1.49603 25.6316ZM40.2821 18.5238L39.0626 19.3972L40.2821 18.5238ZM29.9383 4.08121L31.1578 3.20781L29.9383 4.08121ZM63.1584 4.39294L64.3882 5.25173L63.1584 4.39294ZM53.3452 18.4459L54.575 19.3047L53.3452 18.4459ZM86.0899 18.4462L87.3197 17.5875L86.0899 18.4462ZM76.2766 4.39298L75.0467 5.25176L76.2766 4.39298ZM99.1527 18.5245L97.9333 17.651L99.1527 18.5245ZM109.499 4.08045L108.279 3.20699L109.499 4.08045ZM168.839 4.39302L170.069 3.53424V3.53424L168.839 4.39302ZM178.653 18.4462L179.883 17.5875L178.653 18.4462ZM145.911 18.442L147.141 19.3008V19.3008L145.911 18.442ZM155.721 4.39303L156.951 5.25181V5.25181L155.721 4.39303ZM122.506 4.08076L121.287 4.95416V4.95416L122.506 4.08076ZM132.848 18.52L134.067 17.6466V17.6466L132.848 18.52ZM191.716 18.5245L192.935 19.398V19.398L191.716 18.5245ZM202.061 4.08045L200.842 3.20699V3.20699L202.061 4.08045ZM215.069 4.08076L213.85 4.95416V4.95417L215.069 4.08076ZM225.413 18.5238L224.194 19.3972L225.413 18.5238ZM248.29 4.39245L247.06 3.53366V3.53366L248.29 4.39245ZM238.476 18.4459L239.706 19.3047V19.3047L238.476 18.4459ZM271.223 18.4466L269.993 19.3054V19.3054L271.223 18.4466ZM261.408 4.39218L262.638 3.53333V3.53333L261.408 4.39218ZM284.286 18.5242L285.505 19.3976V19.3976L284.286 18.5242ZM294.63 4.08121L293.41 3.2078V3.2078L294.63 4.08121ZM354.501 4.08122L355.721 3.20782V3.20782L354.501 4.08122ZM364.846 18.5249L363.626 19.3983L364.846 18.5249ZM331.07 18.6355L329.85 17.7621L329.85 17.7621L331.07 18.6355ZM341.493 4.08121L340.274 3.20781L341.493 4.08121ZM307.638 4.08121L308.857 3.20781V3.20781L307.638 4.08121ZM318.062 18.6355L316.842 19.5089L318.062 18.6355ZM377.908 18.4477L379.138 19.3066V19.3066L377.908 18.4477ZM387.727 4.39105L386.497 3.53212L387.727 4.39105ZM462.504 25.6316L463.723 24.7582L463.723 24.7582L462.504 25.6316ZM447.07 4.08121L448.289 3.20781L447.07 4.08121ZM434.062 4.08122L432.842 3.20781V3.20781L434.062 4.08122ZM423.72 18.5215L422.5 17.6481V17.6481L423.72 18.5215ZM400.844 4.39185L402.074 3.53306V3.53306L400.844 4.39185ZM410.656 18.4435L409.427 19.3023V19.3023L410.656 18.4435ZM16.9304 428.919L15.7109 429.792H15.7109L16.9304 428.919ZM1.49603 407.368L0.27653 408.242H0.276532L1.49603 407.368ZM40.2821 414.476L39.0626 413.603L40.2821 414.476ZM29.9383 428.919L28.7188 428.045L29.9383 428.919ZM63.1584 428.607L64.3882 427.748L63.1584 428.607ZM53.3452 414.554L52.1153 415.413L53.3452 414.554ZM86.0899 414.554L84.8601 413.695H84.8601L86.0899 414.554ZM76.2766 428.607L77.5064 429.466H77.5064L76.2766 428.607ZM99.1527 414.475L97.9333 415.349L99.1527 414.475ZM109.499 428.92L108.279 429.793L109.499 428.92ZM168.839 428.607L167.61 427.748L168.839 428.607ZM178.653 414.554L179.883 415.413L178.653 414.554ZM145.911 414.558L147.141 413.699L145.911 414.558ZM155.721 428.607L156.951 427.748L155.721 428.607ZM122.506 428.919L123.726 429.793H123.726L122.506 428.919ZM132.848 414.48L131.628 413.607L132.848 414.48ZM191.716 414.475L192.935 413.602L191.716 414.475ZM202.061 428.92L200.842 429.793L202.061 428.92ZM215.069 428.919L216.289 429.793L215.069 428.919ZM225.413 414.476L224.194 413.603L225.413 414.476ZM248.29 428.608L247.06 429.466L248.29 428.608ZM238.476 414.554L237.246 415.413L238.476 414.554ZM271.223 414.553L272.453 415.412L271.223 414.553ZM261.408 428.608L262.638 429.467L261.408 428.608ZM284.286 414.476L285.505 413.602L284.286 414.476ZM294.63 428.919L295.849 428.045L294.63 428.919ZM354.501 428.919L355.721 429.792L354.501 428.919ZM364.846 414.475L363.626 413.602L364.846 414.475ZM331.07 414.365L329.85 415.238L329.85 415.238L331.07 414.365ZM341.493 428.919L340.274 429.792L341.493 428.919ZM307.638 428.919L306.418 428.045L307.638 428.919ZM318.062 414.365L319.281 415.238L318.062 414.365ZM377.908 414.552L379.138 413.693V413.693L377.908 414.552ZM387.727 428.609L388.956 427.75L387.727 428.609ZM462.504 407.368L463.723 408.242L463.723 408.242L462.504 407.368ZM447.07 428.919L445.85 428.045L445.85 428.045L447.07 428.919ZM434.062 428.919L432.842 429.792L434.062 428.919ZM423.72 414.479L422.5 415.352L423.72 414.479ZM400.844 428.608L402.074 429.467L400.844 428.608ZM410.656 414.556L409.427 413.698L410.656 414.556ZM15.7109 3.20781L0.276532 24.7582L2.71552 26.505L18.1499 4.95462L15.7109 3.20781ZM41.5016 17.6504L31.1578 3.20781L28.7188 4.95461L39.0626 19.3972L41.5016 17.6504ZM61.9286 3.53415L52.1153 17.5871L54.575 19.3047L64.3882 5.25173L61.9286 3.53415ZM87.3197 17.5875L77.5064 3.53419L75.0467 5.25176L84.8601 19.305L87.3197 17.5875ZM100.372 19.398L110.718 4.95391L108.279 3.20699L97.9333 17.651L100.372 19.398ZM167.61 5.25181L177.423 19.305L179.883 17.5875L170.069 3.53424L167.61 5.25181ZM147.141 19.3008L156.951 5.25181L154.491 3.53424L144.681 17.5833L147.141 19.3008ZM121.287 4.95416L131.628 19.3934L134.067 17.6466L123.726 3.20736L121.287 4.95416ZM192.935 19.398L203.281 4.95391L200.842 3.20699L190.496 17.651L192.935 19.398ZM213.85 4.95417L224.194 19.3972L226.633 17.6504L216.289 3.20736L213.85 4.95417ZM247.06 3.53366L237.246 17.5871L239.706 19.3047L249.52 5.25124L247.06 3.53366ZM272.453 17.5877L262.638 3.53333L260.178 5.25103L269.993 19.3054L272.453 17.5877ZM285.505 19.3976L295.849 4.95461L293.41 3.2078L283.066 17.6508L285.505 19.3976ZM353.282 4.95462L363.626 19.3983L366.065 17.6515L355.721 3.20782L353.282 4.95462ZM332.289 19.5089L342.713 4.95461L340.274 3.20781L329.85 17.7621L332.289 19.5089ZM306.418 4.95461L316.842 19.5089L319.281 17.7621L308.857 3.20781L306.418 4.95461ZM379.138 19.3066L388.956 5.24998L386.497 3.53212L376.679 17.5888L379.138 19.3066ZM463.723 24.7582L448.289 3.20781L445.85 4.95461L461.284 26.505L463.723 24.7582ZM432.842 3.20781L422.5 17.6481L424.939 19.3949L435.281 4.95462L432.842 3.20781ZM399.614 5.25063L409.427 19.3023L411.886 17.5847L402.074 3.53306L399.614 5.25063ZM462.5 30.2897V216.5H465.5V30.2897H462.5ZM1.5 216.5V30.2897H-1.5V216.5H1.5ZM18.1499 428.045L2.71552 406.495L0.276532 408.242L15.7109 429.792L18.1499 428.045ZM39.0626 413.603L28.7188 428.045L31.1578 429.792L41.5016 415.35L39.0626 413.603ZM64.3882 427.748L54.575 413.695L52.1153 415.413L61.9286 429.466L64.3882 427.748ZM84.8601 413.695L75.0467 427.748L77.5064 429.466L87.3197 415.413L84.8601 413.695ZM97.9333 415.349L108.279 429.793L110.718 428.046L100.372 413.602L97.9333 415.349ZM170.069 429.466L179.883 415.413L177.423 413.695L167.61 427.748L170.069 429.466ZM144.681 415.417L154.491 429.466L156.951 427.748L147.141 413.699L144.681 415.417ZM123.726 429.793L134.067 415.353L131.628 413.607L121.287 428.046L123.726 429.793ZM190.496 415.349L200.842 429.793L203.281 428.046L192.935 413.602L190.496 415.349ZM216.289 429.793L226.633 415.35L224.194 413.603L213.85 428.046L216.289 429.793ZM249.52 427.749L239.706 413.695L237.246 415.413L247.06 429.466L249.52 427.749ZM269.993 413.695L260.178 427.749L262.638 429.467L272.453 415.412L269.993 413.695ZM283.066 415.349L293.41 429.792L295.849 428.045L285.505 413.602L283.066 415.349ZM355.721 429.792L366.065 415.349L363.626 413.602L353.282 428.045L355.721 429.792ZM329.85 415.238L340.274 429.792L342.713 428.045L332.289 413.491L329.85 415.238ZM308.857 429.792L319.281 415.238L316.842 413.491L306.418 428.045L308.857 429.792ZM376.679 415.411L386.497 429.468L388.956 427.75L379.138 413.693L376.679 415.411ZM461.284 406.495L445.85 428.045L448.289 429.792L463.723 408.242L461.284 406.495ZM435.281 428.045L424.939 413.605L422.5 415.352L432.842 429.792L435.281 428.045ZM402.074 429.467L411.886 415.415L409.427 413.698L399.614 427.749L402.074 429.467ZM465.5 402.71V216.5H462.5V402.71H465.5ZM-1.5 216.5V402.71H1.5V216.5H-1.5ZM424.939 413.605C421.122 408.275 413.18 408.322 409.427 413.698L411.886 415.415C414.454 411.737 419.888 411.705 422.5 415.352L424.939 413.605ZM445.85 428.045C443.257 431.666 437.874 431.666 435.281 428.045L432.842 429.792C436.632 435.083 444.499 435.083 448.289 429.792L445.85 428.045ZM463.723 408.242C464.879 406.629 465.5 404.694 465.5 402.71H462.5C462.5 404.068 462.075 405.391 461.284 406.495L463.723 408.242ZM386.497 429.468C390.278 434.882 398.293 434.881 402.074 429.467L399.614 427.749C397.028 431.454 391.544 431.454 388.956 427.75L386.497 429.468ZM332.289 413.491C328.499 408.2 320.632 408.2 316.842 413.491L319.281 415.238C321.874 411.618 327.257 411.618 329.85 415.238L332.289 413.491ZM366.065 415.349C368.677 411.702 374.11 411.734 376.679 415.411L379.138 413.693C375.384 408.319 367.444 408.272 363.626 413.602L366.065 415.349ZM353.282 428.045C350.689 431.666 345.306 431.666 342.713 428.045L340.274 429.792C344.063 435.083 351.931 435.083 355.721 429.792L353.282 428.045ZM293.41 429.792C297.2 435.083 305.068 435.083 308.857 429.792L306.418 428.045C303.825 431.666 298.442 431.666 295.849 428.045L293.41 429.792ZM272.453 415.412C275.021 411.735 280.454 411.702 283.066 415.349L285.505 413.602C281.688 408.272 273.747 408.32 269.993 413.695L272.453 415.412ZM247.06 429.466C250.841 434.881 258.856 434.881 262.638 429.467L260.178 427.749C257.591 431.454 252.107 431.453 249.52 427.749L247.06 429.466ZM226.633 415.35C229.245 411.703 234.678 411.735 237.246 415.413L239.706 413.695C235.953 408.32 228.011 408.273 224.194 413.603L226.633 415.35ZM200.842 429.793C204.632 435.084 212.499 435.084 216.289 429.793L213.85 428.046C211.257 431.666 205.874 431.666 203.281 428.046L200.842 429.793ZM147.141 413.699C143.387 408.324 135.446 408.276 131.628 413.607L134.067 415.353C136.679 411.706 142.113 411.739 144.681 415.417L147.141 413.699ZM179.883 415.413C182.451 411.735 187.884 411.702 190.496 415.349L192.935 413.602C189.117 408.272 181.176 408.32 177.423 413.695L179.883 415.413ZM167.61 427.748C165.023 431.453 159.538 431.453 156.951 427.748L154.491 429.466C158.272 434.88 166.288 434.88 170.069 429.466L167.61 427.748ZM108.279 429.793C112.069 435.084 119.936 435.084 123.726 429.793L121.287 428.046C118.694 431.666 113.311 431.666 110.718 428.046L108.279 429.793ZM87.3197 415.413C89.8879 411.735 95.3212 411.702 97.9333 415.349L100.372 413.602C96.5546 408.272 88.6135 408.32 84.8601 413.695L87.3197 415.413ZM61.9286 429.466C65.7096 434.881 73.7254 434.88 77.5064 429.466L75.0467 427.748C72.4597 431.453 66.9753 431.453 64.3882 427.748L61.9286 429.466ZM41.5016 415.35C44.1136 411.703 49.5471 411.735 52.1153 415.413L54.575 413.695C50.8214 408.32 42.8801 408.273 39.0626 413.603L41.5016 415.35ZM422.5 17.6481C419.888 21.295 414.455 21.2626 411.886 17.5847L409.427 19.3023C413.18 24.6777 421.122 24.7251 424.939 19.3949L422.5 17.6481ZM448.289 3.20781C444.499 -2.08346 436.632 -2.08345 432.842 3.20781L435.281 4.95462C437.874 1.33428 443.257 1.33428 445.85 4.95461L448.289 3.20781ZM461.284 26.505C462.075 27.6086 462.5 28.9321 462.5 30.2897H465.5C465.5 28.3056 464.879 26.3713 463.723 24.7582L461.284 26.505ZM388.956 5.24998C391.544 1.54577 397.028 1.5461 399.614 5.25064L402.074 3.53306C398.293 -1.88124 390.278 -1.88175 386.497 3.53212L388.956 5.24998ZM329.85 17.7621C327.257 21.3824 321.874 21.3824 319.281 17.7621L316.842 19.5089C320.632 24.8002 328.499 24.8002 332.289 19.5089L329.85 17.7621ZM363.626 19.3983C367.444 24.7281 375.384 24.6812 379.138 19.3066L376.679 17.5888C374.11 21.2661 368.677 21.2982 366.065 17.6515L363.626 19.3983ZM355.721 3.20782C351.931 -2.08345 344.063 -2.08346 340.274 3.20781L342.713 4.95461C345.306 1.33428 350.689 1.33428 353.282 4.95462L355.721 3.20782ZM295.849 4.95461C298.442 1.33427 303.825 1.33427 306.418 4.95461L308.857 3.20781C305.068 -2.08345 297.2 -2.08346 293.41 3.2078L295.849 4.95461ZM269.993 19.3054C273.747 24.6804 281.688 24.7276 285.505 19.3976L283.066 17.6508C280.454 21.2977 275.021 21.2654 272.453 17.5877L269.993 19.3054ZM249.52 5.25125C252.107 1.54659 257.591 1.54648 260.178 5.25103L262.638 3.53333C258.856 -1.881 250.841 -1.88084 247.06 3.53366L249.52 5.25125ZM224.194 19.3972C228.011 24.7273 235.953 24.68 239.706 19.3047L237.246 17.5871C234.678 21.2649 229.245 21.2973 226.633 17.6504L224.194 19.3972ZM203.281 4.95391C205.874 1.3338 211.257 1.33393 213.85 4.95416L216.289 3.20736C212.499 -2.08375 204.632 -2.08394 200.842 3.20699L203.281 4.95391ZM144.681 17.5833C142.113 21.2611 136.679 21.2936 134.067 17.6466L131.628 19.3934C135.446 24.7236 143.387 24.6762 147.141 19.3008L144.681 17.5833ZM177.423 19.305C181.176 24.6802 189.117 24.7278 192.935 19.398L190.496 17.651C187.884 21.2978 182.451 21.2652 179.883 17.5875L177.423 19.305ZM170.069 3.53424C166.288 -1.88046 158.272 -1.88046 154.491 3.53424L156.951 5.25181C159.538 1.54702 165.023 1.54701 167.61 5.25181L170.069 3.53424ZM110.718 4.95391C113.311 1.3338 118.694 1.33393 121.287 4.95416L123.726 3.20736C119.936 -2.08375 112.069 -2.08394 108.279 3.20699L110.718 4.95391ZM84.8601 19.305C88.6135 24.6802 96.5546 24.7278 100.372 19.398L97.9333 17.651C95.3212 21.2978 89.8879 21.2652 87.3197 17.5875L84.8601 19.305ZM64.3882 5.25173C66.9753 1.54696 72.4597 1.54698 75.0467 5.25176L77.5064 3.53419C73.7254 -1.88049 65.7096 -1.88052 61.9286 3.53415L64.3882 5.25173ZM39.0626 19.3972C42.8801 24.7273 50.8214 24.68 54.575 19.3047L52.1153 17.5871C49.5471 21.2649 44.1136 21.2973 41.5016 17.6504L39.0626 19.3972ZM2.71552 406.495C1.92506 405.391 1.5 404.068 1.5 402.71H-1.5C-1.5 404.694 -0.878762 406.629 0.27653 408.242L2.71552 406.495ZM0.276532 24.7582C-0.878763 26.3712 -1.5 28.3056 -1.5 30.2897H1.5C1.5 28.9321 1.92506 27.6087 2.71552 26.505L0.276532 24.7582ZM15.7109 429.792C19.5005 435.083 27.3682 435.083 31.1578 429.792L28.7188 428.045C26.126 431.666 20.7428 431.666 18.1499 428.045L15.7109 429.792ZM18.1499 4.95462C20.7428 1.33428 26.126 1.33428 28.7188 4.95461L31.1578 3.20781C27.3682 -2.08346 19.5005 -2.08345 15.7109 3.20781L18.1499 4.95462Z" fill="#F8981D" mask="url(#path-1-inside-1_357_100)"/>
</svg>
