<svg width="309" height="324" viewBox="0 0 309 324" fill="none" xmlns="http://www.w3.org/2000/svg">
<mask id="path-1-inside-1_363_194" fill="white">
<path d="M1.21638 16.0192L8.82245 3.85175C11.9559 -1.16083 19.2563 -1.16082 22.3897 3.85175L24.3424 6.97546C27.4968 12.0215 34.8601 11.9799 37.9572 6.89846L39.5971 4.20792C42.7148 -0.907333 50.1417 -0.907303 53.2594 4.20797L54.8995 6.89892C57.9965 11.9802 65.3596 12.0221 68.5141 6.97626L70.468 3.85089C73.6016 -1.16141 80.9017 -1.16124 84.0351 3.8512L85.9863 6.97255C89.1407 12.0186 96.504 11.977 99.6011 6.89552L101.239 4.20802C104.357 -0.907271 111.784 -0.907269 114.901 4.20802L116.542 6.89893C119.639 11.9802 127.002 12.0221 130.156 6.97625L132.11 3.8509C135.244 -1.16141 142.544 -1.16124 145.677 3.8512L147.63 6.97546C150.785 12.0215 158.148 11.9799 161.245 6.89846L162.885 4.20735C166.003 -0.907774 173.429 -0.907928 176.547 4.20706L178.188 6.89924C181.286 11.9804 188.649 12.0219 191.803 6.97596L193.756 3.85175C196.889 -1.16083 204.19 -1.16083 207.323 3.85174L209.36 7.11044C212.494 12.123 219.794 12.123 222.928 7.11044L224.965 3.85175C228.098 -1.16083 235.398 -1.16082 238.532 3.85175L240.485 6.97678C243.64 12.0225 251.002 11.9813 254.1 6.90052L255.742 4.20585C258.861 -0.908754 266.287 -0.908342 269.404 4.20661L271.044 6.89666C274.141 11.9781 281.504 12.0198 284.659 6.97368L286.61 3.85175C289.744 -1.16083 297.044 -1.16082 300.178 3.85176L307.784 16.0192C308.579 17.2907 309 18.7601 309 20.2597V162V303.74C309 305.24 308.579 306.709 307.784 307.981L300.178 320.148C297.044 325.161 289.744 325.161 286.61 320.148L284.659 317.026C281.504 311.98 274.141 312.022 271.044 317.103L269.404 319.793C266.287 324.908 258.861 324.909 255.742 319.794L254.1 317.099C251.002 312.019 243.64 311.977 240.485 317.023L238.532 320.148C235.398 325.161 228.098 325.161 224.965 320.148L222.928 316.89C219.794 311.877 212.494 311.877 209.36 316.89L207.323 320.148C204.19 325.161 196.889 325.161 193.756 320.148L191.803 317.024C188.649 311.978 181.286 312.02 178.188 317.101L176.547 319.793C173.429 324.908 166.003 324.908 162.885 319.793L161.245 317.102C158.148 312.02 150.785 311.978 147.63 317.025L145.677 320.149C142.544 325.161 135.244 325.161 132.11 320.149L130.156 317.024C127.002 311.978 119.639 312.02 116.542 317.101L114.901 319.792C111.784 324.907 104.357 324.907 101.239 319.792L99.6011 317.104C96.504 312.023 89.1407 311.981 85.9863 317.027L84.0351 320.149C80.9017 325.161 73.6016 325.161 70.468 320.149L68.5141 317.024C65.3596 311.978 57.9965 312.02 54.8995 317.101L53.2594 319.792C50.1417 324.907 42.7148 324.907 39.5971 319.792L37.9572 317.102C34.8601 312.02 27.4968 311.978 24.3424 317.025L22.3897 320.148C19.2563 325.161 11.9559 325.161 8.82245 320.148L1.21638 307.981C0.421487 306.709 0 305.24 0 303.74V162V20.2597C0 18.7601 0.421487 17.2907 1.21638 16.0192Z"/>
</mask>
<path d="M1.21638 16.0192L8.82245 3.85175C11.9559 -1.16083 19.2563 -1.16082 22.3897 3.85175L24.3424 6.97546C27.4968 12.0215 34.8601 11.9799 37.9572 6.89846L39.5971 4.20792C42.7148 -0.907333 50.1417 -0.907303 53.2594 4.20797L54.8995 6.89892C57.9965 11.9802 65.3596 12.0221 68.5141 6.97626L70.468 3.85089C73.6016 -1.16141 80.9017 -1.16124 84.0351 3.8512L85.9863 6.97255C89.1407 12.0186 96.504 11.977 99.6011 6.89552L101.239 4.20802C104.357 -0.907271 111.784 -0.907269 114.901 4.20802L116.542 6.89893C119.639 11.9802 127.002 12.0221 130.156 6.97625L132.11 3.8509C135.244 -1.16141 142.544 -1.16124 145.677 3.8512L147.63 6.97546C150.785 12.0215 158.148 11.9799 161.245 6.89846L162.885 4.20735C166.003 -0.907774 173.429 -0.907928 176.547 4.20706L178.188 6.89924C181.286 11.9804 188.649 12.0219 191.803 6.97596L193.756 3.85175C196.889 -1.16083 204.19 -1.16083 207.323 3.85174L209.36 7.11044C212.494 12.123 219.794 12.123 222.928 7.11044L224.965 3.85175C228.098 -1.16083 235.398 -1.16082 238.532 3.85175L240.485 6.97678C243.64 12.0225 251.002 11.9813 254.1 6.90052L255.742 4.20585C258.861 -0.908754 266.287 -0.908342 269.404 4.20661L271.044 6.89666C274.141 11.9781 281.504 12.0198 284.659 6.97368L286.61 3.85175C289.744 -1.16083 297.044 -1.16082 300.178 3.85176L307.784 16.0192C308.579 17.2907 309 18.7601 309 20.2597V162V303.74C309 305.24 308.579 306.709 307.784 307.981L300.178 320.148C297.044 325.161 289.744 325.161 286.61 320.148L284.659 317.026C281.504 311.98 274.141 312.022 271.044 317.103L269.404 319.793C266.287 324.908 258.861 324.909 255.742 319.794L254.1 317.099C251.002 312.019 243.64 311.977 240.485 317.023L238.532 320.148C235.398 325.161 228.098 325.161 224.965 320.148L222.928 316.89C219.794 311.877 212.494 311.877 209.36 316.89L207.323 320.148C204.19 325.161 196.889 325.161 193.756 320.148L191.803 317.024C188.649 311.978 181.286 312.02 178.188 317.101L176.547 319.793C173.429 324.908 166.003 324.908 162.885 319.793L161.245 317.102C158.148 312.02 150.785 311.978 147.63 317.025L145.677 320.149C142.544 325.161 135.244 325.161 132.11 320.149L130.156 317.024C127.002 311.978 119.639 312.02 116.542 317.101L114.901 319.792C111.784 324.907 104.357 324.907 101.239 319.792L99.6011 317.104C96.504 312.023 89.1407 311.981 85.9863 317.027L84.0351 320.149C80.9017 325.161 73.6016 325.161 70.468 320.149L68.5141 317.024C65.3596 311.978 57.9965 312.02 54.8995 317.101L53.2594 319.792C50.1417 324.907 42.7148 324.907 39.5971 319.792L37.9572 317.102C34.8601 312.02 27.4968 311.978 24.3424 317.025L22.3897 320.148C19.2563 325.161 11.9559 325.161 8.82245 320.148L1.21638 307.981C0.421487 306.709 0 305.24 0 303.74V162V20.2597C0 18.7601 0.421487 17.2907 1.21638 16.0192Z" fill="#FDFDFD"/>
<path d="M8.82245 3.85175L10.0944 4.64686L8.82245 3.85175ZM1.21638 16.0192L-0.0555542 15.2241H-0.0555543L1.21638 16.0192ZM24.3424 6.97546L25.6143 6.18035H25.6143L24.3424 6.97546ZM22.3897 3.85175L21.1178 4.64686H21.1178L22.3897 3.85175ZM39.5971 4.20792L40.8779 4.98859L39.5971 4.20792ZM37.9572 6.89846L36.6763 6.11779L37.9572 6.89846ZM54.8995 6.89892L53.6187 7.67958V7.67958L54.8995 6.89892ZM53.2594 4.20797L54.5402 3.42731L53.2594 4.20797ZM68.5141 6.97626L67.2422 6.1811V6.1811L68.5141 6.97626ZM70.468 3.85089L71.7399 4.64606V4.64606L70.468 3.85089ZM114.901 4.20802L116.182 3.42736V3.42735L114.901 4.20802ZM116.542 6.89893L115.261 7.67959V7.67959L116.542 6.89893ZM99.6011 6.89552L100.882 7.67618V7.67618L99.6011 6.89552ZM101.239 4.20802L99.9583 3.42735V3.42735L101.239 4.20802ZM84.0351 3.8512L82.7632 4.64631L84.0351 3.8512ZM85.9863 6.97255L87.2582 6.17744L85.9863 6.97255ZM130.156 6.97625L131.428 7.77142V7.77141L130.156 6.97625ZM132.11 3.8509L130.838 3.05573V3.05574L132.11 3.8509ZM145.677 3.8512L146.949 3.0561V3.0561L145.677 3.8512ZM147.63 6.97546L146.358 7.77056V7.77057L147.63 6.97546ZM162.885 4.20735L164.166 4.98802V4.98801L162.885 4.20735ZM161.245 6.89846L162.526 7.67913L161.245 6.89846ZM178.188 6.89924L176.908 7.67996V7.67996L178.188 6.89924ZM176.547 4.20706L177.828 3.42634V3.42634L176.547 4.20706ZM191.803 6.97596L190.531 6.18085V6.18085L191.803 6.97596ZM193.756 3.85175L195.028 4.64686L193.756 3.85175ZM238.532 3.85175L239.804 3.05665V3.05665L238.532 3.85175ZM240.485 6.97678L241.757 6.18167V6.18167L240.485 6.97678ZM222.928 7.11044L224.199 7.90555V7.90555L222.928 7.11044ZM224.965 3.85175L223.693 3.05664V3.05665L224.965 3.85175ZM207.323 3.85174L206.051 4.64685V4.64685L207.323 3.85174ZM209.36 7.11044L210.632 6.31534V6.31534L209.36 7.11044ZM254.1 6.90052L252.819 6.11971V6.11971L254.1 6.90052ZM255.742 4.20585L257.023 4.98665V4.98665L255.742 4.20585ZM307.784 16.0192L306.512 16.8143V16.8143L307.784 16.0192ZM300.178 3.85176L298.906 4.64686L300.178 3.85176ZM286.61 3.85175L285.338 3.05664V3.05665L286.61 3.85175ZM284.659 6.97368L285.931 7.76878V7.76878L284.659 6.97368ZM269.404 4.20661L268.124 4.98727V4.98728L269.404 4.20661ZM271.044 6.89666L269.763 7.67732V7.67732L271.044 6.89666ZM8.82245 320.148L7.55052 320.943L8.82245 320.148ZM1.21638 307.981L2.48831 307.186H2.4883L1.21638 307.981ZM24.3424 317.025L23.0705 316.229H23.0705L24.3424 317.025ZM22.3897 320.148L23.6616 320.943H23.6616L22.3897 320.148ZM39.5971 319.792L38.3162 320.573L39.5971 319.792ZM37.9572 317.102L39.238 316.321L37.9572 317.102ZM54.8995 317.101L53.6187 316.32L54.8995 317.101ZM53.2594 319.792L51.9785 319.011L53.2594 319.792ZM68.5141 317.024L69.786 316.229L68.5141 317.024ZM70.468 320.149L69.1961 320.944L70.468 320.149ZM114.901 319.792L116.182 320.573L114.901 319.792ZM116.542 317.101L115.261 316.32L116.542 317.101ZM99.6011 317.104L100.882 316.324L99.6011 317.104ZM101.239 319.792L99.9583 320.573L101.239 319.792ZM84.0351 320.149L82.7632 319.354L84.0351 320.149ZM85.9863 317.027L87.2582 317.823H87.2582L85.9863 317.027ZM130.156 317.024L131.428 316.229L130.156 317.024ZM132.11 320.149L130.838 320.944L132.11 320.149ZM145.677 320.149L146.949 320.944L145.677 320.149ZM147.63 317.025L146.358 316.229L147.63 317.025ZM162.885 319.793L161.604 320.573L162.885 319.793ZM161.245 317.102L162.526 316.321L161.245 317.102ZM178.188 317.101L179.469 317.882L178.188 317.101ZM176.547 319.793L175.266 319.012L176.547 319.793ZM191.803 317.024L190.531 317.819L191.803 317.024ZM193.756 320.148L195.028 319.353L193.756 320.148ZM238.532 320.148L239.804 320.943L238.532 320.148ZM240.485 317.023L241.757 317.818L240.485 317.023ZM222.928 316.89L224.199 316.094L222.928 316.89ZM224.965 320.148L223.693 320.943L224.965 320.148ZM207.323 320.148L206.051 319.353L207.323 320.148ZM209.36 316.89L210.632 317.685L209.36 316.89ZM254.1 317.099L255.38 316.319V316.319L254.1 317.099ZM255.742 319.794L254.462 320.575V320.575L255.742 319.794ZM307.784 307.981L306.512 307.186L307.784 307.981ZM300.178 320.148L301.449 320.943L300.178 320.148ZM286.61 320.148L285.338 320.943L286.61 320.148ZM284.659 317.026L283.387 317.821L284.659 317.026ZM269.404 319.793L268.124 319.013L269.404 319.793ZM271.044 317.103L269.763 316.323L271.044 317.103ZM7.55052 3.05664L-0.0555542 15.2241L2.48831 16.8143L10.0944 4.64686L7.55052 3.05664ZM25.6143 6.18035L23.6616 3.05664L21.1178 4.64686L23.0705 7.77057L25.6143 6.18035ZM38.3162 3.42725L36.6763 6.11779L39.238 7.67913L40.8779 4.98859L38.3162 3.42725ZM56.1803 6.11826L54.5402 3.42731L51.9785 4.98863L53.6187 7.67958L56.1803 6.11826ZM69.786 7.77143L71.7399 4.64606L69.1961 3.05573L67.2422 6.1811L69.786 7.77143ZM113.621 4.98868L115.261 7.67959L117.822 6.11827L116.182 3.42736L113.621 4.98868ZM100.882 7.67618L102.52 4.98868L99.9583 3.42735L98.3203 6.11486L100.882 7.67618ZM82.7632 4.64631L84.7144 7.76765L87.2582 6.17744L85.307 3.0561L82.7632 4.64631ZM131.428 7.77141L133.382 4.64606L130.838 3.05574L128.884 6.18109L131.428 7.77141ZM144.405 4.64631L146.358 7.77056L148.902 6.18035L146.949 3.0561L144.405 4.64631ZM161.604 3.42668L159.964 6.11779L162.526 7.67913L164.166 4.98802L161.604 3.42668ZM179.469 6.11852L177.828 3.42634L175.266 4.98779L176.908 7.67996L179.469 6.11852ZM193.075 7.77107L195.028 4.64686L192.484 3.05664L190.531 6.18085L193.075 7.77107ZM237.26 4.64686L239.213 7.77188L241.757 6.18167L239.804 3.05665L237.26 4.64686ZM224.199 7.90555L226.237 4.64686L223.693 3.05665L221.656 6.31534L224.199 7.90555ZM206.051 4.64685L208.088 7.90555L210.632 6.31534L208.595 3.05664L206.051 4.64685ZM255.38 7.68132L257.023 4.98665L254.462 3.42504L252.819 6.11971L255.38 7.68132ZM309.056 15.2241L301.449 3.05665L298.906 4.64686L306.512 16.8143L309.056 15.2241ZM285.338 3.05665L283.387 6.17857L285.931 7.76878L287.882 4.64686L285.338 3.05665ZM268.124 4.98728L269.763 7.67732L272.325 6.11599L270.685 3.42595L268.124 4.98728ZM307.5 20.2597V162H310.5V20.2597H307.5ZM1.5 162V20.2597H-1.5V162H1.5ZM10.0944 319.353L2.48831 307.186L-0.0555543 308.776L7.55052 320.943L10.0944 319.353ZM23.0705 316.229L21.1178 319.353L23.6616 320.943L25.6143 317.82L23.0705 316.229ZM40.8779 319.011L39.238 316.321L36.6763 317.882L38.3162 320.573L40.8779 319.011ZM53.6187 316.32L51.9785 319.011L54.5402 320.573L56.1803 317.882L53.6187 316.32ZM67.2422 317.819L69.1961 320.944L71.7399 319.354L69.786 316.229L67.2422 317.819ZM116.182 320.573L117.822 317.882L115.261 316.32L113.621 319.011L116.182 320.573ZM98.3203 317.885L99.9583 320.573L102.52 319.011L100.882 316.324L98.3203 317.885ZM85.307 320.944L87.2582 317.823L84.7144 316.232L82.7632 319.354L85.307 320.944ZM128.884 317.819L130.838 320.944L133.382 319.354L131.428 316.229L128.884 317.819ZM146.949 320.944L148.902 317.82L146.358 316.229L144.405 319.354L146.949 320.944ZM164.166 319.012L162.526 316.321L159.964 317.882L161.604 320.573L164.166 319.012ZM176.908 316.32L175.266 319.012L177.828 320.574L179.469 317.882L176.908 316.32ZM190.531 317.819L192.484 320.943L195.028 319.353L193.075 316.229L190.531 317.819ZM239.804 320.943L241.757 317.818L239.213 316.228L237.26 319.353L239.804 320.943ZM221.656 317.685L223.693 320.943L226.237 319.353L224.199 316.094L221.656 317.685ZM208.595 320.943L210.632 317.685L208.088 316.094L206.051 319.353L208.595 320.943ZM252.819 317.88L254.462 320.575L257.023 319.013L255.38 316.319L252.819 317.88ZM306.512 307.186L298.906 319.353L301.449 320.943L309.056 308.776L306.512 307.186ZM287.882 319.353L285.931 316.231L283.387 317.821L285.338 320.943L287.882 319.353ZM270.685 320.574L272.325 317.884L269.763 316.323L268.124 319.013L270.685 320.574ZM310.5 303.74V162H307.5V303.74H310.5ZM-1.5 162V303.74H1.5V162H-1.5ZM285.931 316.231C282.185 310.239 273.441 310.288 269.763 316.323L272.325 317.884C274.841 313.755 280.824 313.721 283.387 317.821L285.931 316.231ZM298.906 319.353C296.36 323.426 290.428 323.426 287.882 319.353L285.338 320.943C289.059 326.896 297.729 326.896 301.449 320.943L298.906 319.353ZM309.056 308.776C309.999 307.266 310.5 305.521 310.5 303.74H307.5C307.5 304.959 307.158 306.153 306.512 307.186L309.056 308.776ZM254.462 320.575C258.164 326.649 266.983 326.648 270.685 320.574L268.124 319.013C265.591 323.169 259.557 323.169 257.023 319.013L254.462 320.575ZM224.199 316.094C220.478 310.142 211.809 310.142 208.088 316.094L210.632 317.685C213.178 313.612 219.11 313.612 221.656 317.685L224.199 316.094ZM241.757 317.818C244.32 313.719 250.302 313.752 252.819 317.88L255.38 316.319C251.702 310.285 242.959 310.236 239.213 316.228L241.757 317.818ZM237.26 319.353C234.714 323.426 228.782 323.426 226.237 319.353L223.693 320.943C227.414 326.896 236.083 326.896 239.804 320.943L237.26 319.353ZM192.484 320.943C196.205 326.896 204.874 326.896 208.595 320.943L206.051 319.353C203.505 323.426 197.574 323.426 195.028 319.353L192.484 320.943ZM179.469 317.882C181.986 313.753 187.968 313.719 190.531 317.819L193.075 316.229C189.329 310.237 180.585 310.286 176.908 316.32L179.469 317.882ZM161.604 320.573C165.307 326.648 174.126 326.648 177.828 320.574L175.266 319.012C172.733 323.168 166.699 323.168 164.166 319.012L161.604 320.573ZM148.902 317.82C151.465 313.72 157.448 313.754 159.964 317.882L162.526 316.321C158.848 310.287 150.104 310.237 146.358 316.229L148.902 317.82ZM130.838 320.944C134.559 326.896 143.228 326.896 146.949 320.944L144.405 319.354C141.859 323.426 135.928 323.426 133.382 319.354L130.838 320.944ZM100.882 316.324C97.2042 310.29 88.4602 310.24 84.7144 316.232L87.2582 317.823C89.8212 313.723 95.8039 313.756 98.3203 317.885L100.882 316.324ZM117.822 317.882C120.339 313.753 126.321 313.719 128.884 317.819L131.428 316.229C127.682 310.237 118.938 310.286 115.261 316.32L117.822 317.882ZM113.621 319.011C111.087 323.167 105.053 323.167 102.52 319.011L99.9583 320.573C103.661 326.647 112.48 326.647 116.182 320.573L113.621 319.011ZM69.1961 320.944C72.9173 326.896 81.5861 326.896 85.307 320.944L82.7632 319.354C80.2173 323.426 74.286 323.426 71.7399 319.354L69.1961 320.944ZM56.1803 317.882C58.6967 313.753 64.6792 313.719 67.2422 317.819L69.786 316.229C66.04 310.237 57.2964 310.286 53.6187 316.32L56.1803 317.882ZM38.3162 320.573C42.0185 326.647 50.838 326.647 54.5402 320.573L51.9785 319.011C49.4454 323.168 43.4111 323.168 40.8779 319.011L38.3162 320.573ZM25.6143 317.82C28.1773 313.72 34.1599 313.754 36.6763 317.882L39.238 316.321C35.5602 310.287 26.8163 310.237 23.0705 316.229L25.6143 317.82ZM283.387 6.17857C280.824 10.2785 274.841 10.2447 272.325 6.11599L269.763 7.67732C273.441 13.7115 282.185 13.761 285.931 7.76878L283.387 6.17857ZM301.449 3.05665C297.729 -2.89578 289.059 -2.89579 285.338 3.05664L287.882 4.64686C290.428 0.574141 296.36 0.574142 298.906 4.64686L301.449 3.05665ZM306.512 16.8143C307.158 17.8474 307.5 19.0413 307.5 20.2597H310.5C310.5 18.479 309.999 16.7341 309.056 15.2241L306.512 16.8143ZM257.023 4.98665C259.557 0.831035 265.591 0.83138 268.124 4.98727L270.685 3.42595C266.983 -2.64806 258.164 -2.64854 254.462 3.42504L257.023 4.98665ZM221.656 6.31534C219.11 10.3881 213.178 10.3881 210.632 6.31534L208.088 7.90555C211.809 13.858 220.478 13.858 224.199 7.90555L221.656 6.31534ZM239.213 7.77188C242.959 13.7637 251.702 13.7147 255.38 7.68132L252.819 6.11971C250.302 10.2478 244.32 10.2813 241.757 6.18167L239.213 7.77188ZM239.804 3.05665C236.083 -2.89579 227.414 -2.89579 223.693 3.05664L226.237 4.64686C228.782 0.574139 234.714 0.574141 237.26 4.64686L239.804 3.05665ZM195.028 4.64686C197.574 0.574137 203.505 0.574136 206.051 4.64685L208.595 3.05664C204.874 -2.8958 196.205 -2.89579 192.484 3.05664L195.028 4.64686ZM176.908 7.67996C180.585 13.7138 189.329 13.7631 193.075 7.77106L190.531 6.18085C187.968 10.2807 181.986 10.247 179.469 6.11852L176.908 7.67996ZM164.166 4.98801C166.699 0.83198 172.733 0.831854 175.266 4.98779L177.828 3.42634C174.126 -2.64771 165.307 -2.64753 161.604 3.42668L164.166 4.98801ZM146.358 7.77057C150.104 13.7628 158.848 13.7133 162.526 7.67913L159.964 6.11779C157.448 10.2464 151.465 10.2803 148.902 6.18035L146.358 7.77057ZM133.382 4.64606C135.928 0.573567 141.859 0.573698 144.405 4.64631L146.949 3.0561C143.228 -2.89617 134.559 -2.89638 130.838 3.05573L133.382 4.64606ZM98.3203 6.11486C95.8039 10.2435 89.8212 10.2774 87.2582 6.17744L84.7144 7.76765C88.4602 13.7599 97.2042 13.7104 100.882 7.67618L98.3203 6.11486ZM115.261 7.67959C118.938 13.7137 127.682 13.7633 131.428 7.77142L128.884 6.18109C126.321 10.2808 120.339 10.2468 117.822 6.11827L115.261 7.67959ZM116.182 3.42735C112.48 -2.64705 103.661 -2.64705 99.9583 3.42735L102.52 4.98868C105.053 0.832507 111.087 0.83251 113.621 4.98868L116.182 3.42735ZM71.7399 4.64606C74.286 0.573565 80.2173 0.5737 82.7632 4.64631L85.307 3.0561C81.5861 -2.89617 72.9173 -2.89638 69.1961 3.05573L71.7399 4.64606ZM53.6187 7.67958C57.2964 13.7136 66.04 13.7633 69.786 7.77142L67.2422 6.1811C64.6792 10.2808 58.6967 10.2468 56.1803 6.11826L53.6187 7.67958ZM40.8779 4.98859C43.4111 0.83245 49.4454 0.832469 51.9785 4.98863L54.5402 3.42731C50.838 -2.64708 42.0185 -2.64712 38.3162 3.42725L40.8779 4.98859ZM23.0705 7.77057C26.8163 13.7628 35.5602 13.7133 39.238 7.67913L36.6763 6.11779C34.1599 10.2464 28.1773 10.2803 25.6143 6.18035L23.0705 7.77057ZM2.4883 307.186C1.84246 306.153 1.5 304.959 1.5 303.74H-1.5C-1.5 305.521 -0.999484 307.266 -0.0555528 308.776L2.4883 307.186ZM-0.0555543 15.2241C-0.999484 16.7341 -1.5 18.479 -1.5 20.2597H1.5C1.5 19.0413 1.84246 17.8474 2.48831 16.8143L-0.0555543 15.2241ZM7.55052 320.943C11.2715 326.896 19.9407 326.896 23.6616 320.943L21.1178 319.353C18.5718 323.426 12.6403 323.426 10.0944 319.353L7.55052 320.943ZM10.0944 4.64686C12.6403 0.574139 18.5718 0.57414 21.1178 4.64686L23.6616 3.05664C19.9407 -2.89579 11.2715 -2.89579 7.55052 3.05664L10.0944 4.64686Z" fill="#F8981D" mask="url(#path-1-inside-1_363_194)"/>
</svg>
