<svg width="224" height="256" viewBox="0 0 224 256" fill="none" xmlns="http://www.w3.org/2000/svg">
<mask id="path-1-inside-1_363_232" fill="white">
<path d="M1.05434 11.9499L5.69224 3.83496C8.17773 -0.513937 14.5016 -0.421054 16.9871 3.92784C19.4416 8.22253 25.6986 8.28124 28.1065 3.96022C30.5293 -0.387735 36.7841 -0.387624 39.207 3.96034C41.6148 8.28137 47.8724 8.22184 50.3271 3.92726C52.8125 -0.421018 59.1894 -0.421804 61.6746 3.92658C64.1288 8.22076 70.3851 8.2796 72.7927 3.95908C75.2152 -0.388365 81.4696 -0.387669 83.8921 3.95978C86.3 8.28079 92.5575 8.22242 95.0122 3.92785C97.4979 -0.420934 103.875 -0.421305 106.361 3.92759C108.815 8.22239 115.072 8.2811 117.48 3.95996C119.903 -0.387994 126.158 -0.387895 128.581 3.95997C130.989 8.28111 137.246 8.22272 139.701 3.92782C142.187 -0.421164 148.528 -0.483366 151.013 3.86562C153.514 8.24162 159.859 8.24181 162.36 3.86581C164.846 -0.483343 171.187 -0.4213 173.673 3.92785C176.128 8.22305 182.385 8.28056 184.794 3.95927C187.217 -0.388119 193.472 -0.388741 195.894 3.95891C198.302 8.2799 204.559 8.22149 207.013 3.92684C209.499 -0.421737 215.822 -0.514321 218.307 3.83426L222.946 11.9499C223.637 13.1588 224 14.5271 224 15.9196V128V240.08C224 241.473 223.637 242.841 222.946 244.05L218.307 252.166C215.822 256.514 209.499 256.422 207.013 252.073C204.559 247.779 198.302 247.72 195.894 252.041C193.472 256.389 187.217 256.388 184.794 252.041C182.385 247.719 176.128 247.777 173.673 252.072C171.187 256.421 164.846 256.483 162.36 252.134C159.859 247.758 153.514 247.758 151.013 252.134C148.528 256.483 142.187 256.421 139.701 252.072C137.246 247.777 130.989 247.719 128.581 252.04C126.158 256.388 119.903 256.388 117.48 252.04C115.072 247.719 108.815 247.778 106.361 252.072C103.875 256.421 97.4979 256.421 95.0122 252.072C92.5575 247.778 86.3 247.719 83.8921 252.04C81.4696 256.388 75.2152 256.388 72.7927 252.041C70.3851 247.72 64.1288 247.779 61.6746 252.073C59.1894 256.422 52.8125 256.421 50.3271 252.073C47.8724 247.778 41.6148 247.719 39.207 252.04C36.7841 256.388 30.5293 256.388 28.1065 252.04C25.6986 247.719 19.4416 247.777 16.9871 252.072C14.5016 256.421 8.17773 256.514 5.69224 252.165L1.05434 244.05C0.363422 242.841 0 241.473 0 240.08V128V15.9195C0 14.5271 0.363422 13.1588 1.05434 11.9499Z"/>
</mask>
<path d="M1.05434 11.9499L5.69224 3.83496C8.17773 -0.513937 14.5016 -0.421054 16.9871 3.92784C19.4416 8.22253 25.6986 8.28124 28.1065 3.96022C30.5293 -0.387735 36.7841 -0.387624 39.207 3.96034C41.6148 8.28137 47.8724 8.22184 50.3271 3.92726C52.8125 -0.421018 59.1894 -0.421804 61.6746 3.92658C64.1288 8.22076 70.3851 8.2796 72.7927 3.95908C75.2152 -0.388365 81.4696 -0.387669 83.8921 3.95978C86.3 8.28079 92.5575 8.22242 95.0122 3.92785C97.4979 -0.420934 103.875 -0.421305 106.361 3.92759C108.815 8.22239 115.072 8.2811 117.48 3.95996C119.903 -0.387994 126.158 -0.387895 128.581 3.95997C130.989 8.28111 137.246 8.22272 139.701 3.92782C142.187 -0.421164 148.528 -0.483366 151.013 3.86562C153.514 8.24162 159.859 8.24181 162.36 3.86581C164.846 -0.483343 171.187 -0.4213 173.673 3.92785C176.128 8.22305 182.385 8.28056 184.794 3.95927C187.217 -0.388119 193.472 -0.388741 195.894 3.95891C198.302 8.2799 204.559 8.22149 207.013 3.92684C209.499 -0.421737 215.822 -0.514321 218.307 3.83426L222.946 11.9499C223.637 13.1588 224 14.5271 224 15.9196V128V240.08C224 241.473 223.637 242.841 222.946 244.05L218.307 252.166C215.822 256.514 209.499 256.422 207.013 252.073C204.559 247.779 198.302 247.72 195.894 252.041C193.472 256.389 187.217 256.388 184.794 252.041C182.385 247.719 176.128 247.777 173.673 252.072C171.187 256.421 164.846 256.483 162.36 252.134C159.859 247.758 153.514 247.758 151.013 252.134C148.528 256.483 142.187 256.421 139.701 252.072C137.246 247.777 130.989 247.719 128.581 252.04C126.158 256.388 119.903 256.388 117.48 252.04C115.072 247.719 108.815 247.778 106.361 252.072C103.875 256.421 97.4979 256.421 95.0122 252.072C92.5575 247.778 86.3 247.719 83.8921 252.04C81.4696 256.388 75.2152 256.388 72.7927 252.041C70.3851 247.72 64.1288 247.779 61.6746 252.073C59.1894 256.422 52.8125 256.421 50.3271 252.073C47.8724 247.778 41.6148 247.719 39.207 252.04C36.7841 256.388 30.5293 256.388 28.1065 252.04C25.6986 247.719 19.4416 247.777 16.9871 252.072C14.5016 256.421 8.17773 256.514 5.69224 252.165L1.05434 244.05C0.363422 242.841 0 241.473 0 240.08V128V15.9195C0 14.5271 0.363422 13.1588 1.05434 11.9499Z" fill="#FDFDFD"/>
<path d="M5.69224 3.83496L6.99455 4.57926L5.69224 3.83496ZM1.05434 11.9499L-0.247976 11.2056H-0.247976L1.05434 11.9499ZM222.946 11.9499L221.643 12.6942V12.6943L222.946 11.9499ZM218.307 3.83426L217.005 4.57856V4.57856L218.307 3.83426ZM5.69224 252.165L4.38993 252.909H4.38993L5.69224 252.165ZM1.05434 244.05L2.35665 243.306L2.35665 243.306L1.05434 244.05ZM222.946 244.05L224.248 244.794V244.794L222.946 244.05ZM218.307 252.166L219.61 252.91L218.307 252.166ZM207.013 252.073L208.316 251.329L207.013 252.073ZM195.894 252.041L194.584 251.311L195.894 252.041ZM184.794 252.041L186.104 251.31L184.794 252.041ZM162.36 252.134L161.058 252.878L162.36 252.134ZM151.013 252.134L152.316 252.879L151.013 252.134ZM173.673 252.072L174.975 252.816L173.673 252.072ZM139.701 252.072L138.399 252.816L139.701 252.072ZM128.581 252.04L127.271 251.31H127.271L128.581 252.04ZM117.48 252.04L116.17 252.77L117.48 252.04ZM106.361 252.072L105.058 251.328H105.058L106.361 252.072ZM95.0122 252.072L93.7099 252.816H93.71L95.0122 252.072ZM72.7927 252.041L74.103 251.311L72.7927 252.041ZM61.6746 252.073L60.3723 251.329L61.6746 252.073ZM83.8921 252.04L85.2024 252.77L83.8921 252.04ZM50.3271 252.073L51.6294 251.328L50.3271 252.073ZM39.207 252.04L40.5173 252.77H40.5173L39.207 252.04ZM28.1065 252.04L29.4168 251.31L28.1065 252.04ZM16.9871 252.072L15.6848 251.328H15.6848L16.9871 252.072ZM207.013 3.92684L208.316 4.67115V4.67114L207.013 3.92684ZM195.894 3.95891L194.584 4.68905V4.68905L195.894 3.95891ZM184.794 3.95927L186.104 4.68955V4.68955L184.794 3.95927ZM162.36 3.86581L161.058 3.12151V3.12151L162.36 3.86581ZM151.013 3.86562L152.316 3.12132V3.12132L151.013 3.86562ZM173.673 3.92785L174.975 3.18355L173.673 3.92785ZM139.701 3.92782L141.003 4.67213V4.67212L139.701 3.92782ZM128.581 3.95997L127.271 4.69017L127.271 4.69017L128.581 3.95997ZM117.48 3.95996L116.17 3.22981L117.48 3.95996ZM106.361 3.92759L107.663 3.18329V3.18329L106.361 3.92759ZM95.0122 3.92785L93.71 3.1835L93.7099 3.1835L95.0122 3.92785ZM72.7927 3.95908L74.103 4.68922L72.7927 3.95908ZM61.6746 3.92658L60.3723 4.67088L61.6746 3.92658ZM83.8921 3.95978L82.5818 4.68992V4.68992L83.8921 3.95978ZM50.3271 3.92726L49.0248 3.1829L50.3271 3.92726ZM39.207 3.96034L40.5173 3.2302V3.2302L39.207 3.96034ZM28.1065 3.96022L26.7962 3.23007L28.1065 3.96022ZM16.9871 3.92784L15.6848 4.67214L16.9871 3.92784ZM4.38993 3.09066L-0.247976 11.2056L2.35665 12.6942L6.99455 4.57926L4.38993 3.09066ZM224.248 11.2056L219.61 3.08996L217.005 4.57856L221.643 12.6942L224.248 11.2056ZM222.5 15.9196V128H225.5V15.9196H222.5ZM1.5 128V15.9195H-1.5V128H1.5ZM6.99455 251.421L2.35665 243.306L-0.247976 244.794L4.38993 252.909L6.99455 251.421ZM221.643 243.306L217.005 251.421L219.61 252.91L224.248 244.794L221.643 243.306ZM225.5 240.08V128H222.5V240.08H225.5ZM-1.5 128V240.08H1.5V128H-1.5ZM208.316 251.329C205.303 246.058 197.581 245.932 194.584 251.311L197.205 252.771C199.023 249.508 203.815 249.499 205.711 252.817L208.316 251.329ZM217.005 251.421C215.117 254.726 210.246 254.707 208.316 251.329L205.711 252.817C208.751 258.137 216.528 258.303 219.61 252.91L217.005 251.421ZM224.248 244.794C225.068 243.359 225.5 241.734 225.5 240.08H222.5C222.5 241.212 222.205 242.324 221.643 243.306L224.248 244.794ZM183.484 252.771C186.479 258.144 194.21 258.146 197.205 252.771L194.584 251.311C192.734 254.632 187.955 254.632 186.104 251.31L183.484 252.771ZM163.662 251.39C160.586 246.006 152.788 246.007 149.711 251.39L152.316 252.879C154.241 249.51 159.133 249.51 161.058 252.878L163.662 251.39ZM174.975 252.816C176.872 249.498 181.664 249.507 183.484 252.771L186.104 251.31C183.106 245.932 175.383 246.056 172.37 251.328L174.975 252.816ZM172.37 251.328C170.447 254.694 165.558 254.707 163.662 251.39L161.058 252.878C164.133 258.26 171.928 258.149 174.975 252.816L172.37 251.328ZM138.399 252.816C141.446 258.148 149.24 258.26 152.316 252.879L149.711 251.39C147.815 254.707 142.927 254.694 141.003 251.328L138.399 252.816ZM129.891 252.77C131.71 249.507 136.502 249.498 138.399 252.816L141.003 251.328C137.991 246.057 130.268 245.931 127.271 251.31L129.891 252.77ZM116.17 252.77C119.165 258.145 126.896 258.144 129.891 252.77L127.271 251.31C125.42 254.631 120.641 254.631 118.791 251.31L116.17 252.77ZM107.663 252.817C109.56 249.498 114.352 249.507 116.17 252.77L118.791 251.31C115.793 245.931 108.071 246.057 105.058 251.328L107.663 252.817ZM93.71 252.816C96.7714 258.173 104.601 258.173 107.663 252.817L105.058 251.328C103.149 254.669 98.2244 254.669 96.3145 251.328L93.71 252.816ZM74.103 251.311C71.1059 245.932 63.3843 246.059 60.3723 251.329L62.9769 252.818C64.8733 249.5 69.6644 249.508 71.4824 252.771L74.103 251.311ZM85.2024 252.77C87.0208 249.507 91.8132 249.498 93.7099 252.816L96.3145 251.328C93.3019 246.057 85.5791 245.931 82.5818 251.31L85.2024 252.77ZM82.5818 251.31C80.7311 254.631 75.9534 254.631 74.103 251.311L71.4824 252.771C74.4771 258.145 82.2081 258.144 85.2024 252.77L82.5818 251.31ZM49.0248 252.817C52.0859 258.173 59.9156 258.174 62.9769 252.818L60.3723 251.329C58.4631 254.67 53.5391 254.669 51.6294 251.328L49.0248 252.817ZM40.5173 252.77C42.3354 249.507 47.1278 249.498 49.0248 252.817L51.6294 251.328C48.617 246.058 40.8942 245.93 37.8967 251.31L40.5173 252.77ZM26.7962 252.77C29.7911 258.144 37.5225 258.144 40.5173 252.77L37.8967 251.31C36.0458 254.631 31.2676 254.631 29.4168 251.31L26.7962 252.77ZM18.2894 252.816C20.1861 249.498 24.9778 249.507 26.7962 252.77L29.4168 251.31C26.4194 245.931 18.6972 246.057 15.6848 251.328L18.2894 252.816ZM205.711 3.18254C203.815 6.50094 199.023 6.49198 197.205 3.22876L194.584 4.68905C197.581 10.0678 205.303 9.94203 208.316 4.67115L205.711 3.18254ZM219.61 3.08996C216.528 -2.30289 208.751 -2.13675 205.711 3.18254L208.316 4.67114C210.246 1.29327 215.117 1.27425 217.005 4.57856L219.61 3.08996ZM221.643 12.6943C222.205 13.6765 222.5 14.7882 222.5 15.9196H225.5C225.5 14.2661 225.068 12.6412 224.248 11.2056L221.643 12.6943ZM186.104 4.68955C187.955 1.36812 192.734 1.36821 194.584 4.68905L197.205 3.22876C194.21 -2.14569 186.479 -2.14436 183.484 3.22898L186.104 4.68955ZM161.058 3.12151C159.133 6.48983 154.241 6.48979 152.316 3.12132L149.711 4.60992C152.788 9.99344 160.586 9.99378 163.662 4.61011L161.058 3.12151ZM172.37 4.67215C175.383 9.94405 183.106 10.068 186.104 4.68955L183.484 3.22898C181.664 6.49314 176.872 6.50205 174.975 3.18355L172.37 4.67215ZM174.975 3.18355C171.928 -2.14855 164.133 -2.25979 161.058 3.12151L163.662 4.61011C165.558 1.2931 170.447 1.30595 172.37 4.67215L174.975 3.18355ZM141.003 4.67212C142.927 1.30603 147.815 1.29314 149.711 4.60992L152.316 3.12132C149.24 -2.25987 141.446 -2.14836 138.399 3.18353L141.003 4.67212ZM127.271 4.69017C130.268 10.069 137.991 9.94332 141.003 4.67213L138.399 3.18352C136.502 6.50213 131.71 6.49325 129.891 3.22976L127.271 4.69017ZM118.791 4.69011C120.641 1.36869 125.42 1.36864 127.271 4.69017L129.891 3.22976C126.896 -2.14443 119.165 -2.14468 116.17 3.22981L118.791 4.69011ZM105.058 4.67189C108.071 9.94282 115.793 10.0691 118.791 4.69011L116.17 3.22981C114.352 6.49307 109.56 6.50196 107.663 3.18329L105.058 4.67189ZM96.3145 4.67221C98.2244 1.33077 103.149 1.33077 105.058 4.67189L107.663 3.18329C104.601 -2.17338 96.7714 -2.17264 93.71 3.1835L96.3145 4.67221ZM71.4824 3.22893C69.6644 6.49151 64.8733 6.50039 62.9769 3.18228L60.3723 4.67088C63.3843 9.94113 71.1059 10.0677 74.103 4.68922L71.4824 3.22893ZM82.5818 4.68992C85.5791 10.0687 93.3019 9.94294 96.3145 4.67221L93.7099 3.1835C91.8132 6.5019 87.0208 6.49287 85.2024 3.22963L82.5818 4.68992ZM85.2024 3.22963C82.2081 -2.144 74.4771 -2.14527 71.4824 3.22893L74.103 4.68922C75.9534 1.36854 80.7311 1.36866 82.5818 4.68992L85.2024 3.22963ZM51.6294 4.67162C53.5391 1.33052 58.4631 1.33044 60.3723 4.67088L62.9769 3.18228C59.9156 -2.17404 52.0859 -2.17256 49.0248 3.1829L51.6294 4.67162ZM37.8967 4.69049C40.8942 10.0698 48.617 9.94188 51.6294 4.67162L49.0248 3.1829C47.1278 6.50179 42.3354 6.49297 40.5173 3.2302L37.8967 4.69049ZM29.4168 4.69037C31.2676 1.36892 36.0458 1.36895 37.8967 4.69049L40.5173 3.2302C37.5225 -2.1442 29.7911 -2.14439 26.7962 3.23007L29.4168 4.69037ZM15.6848 4.67214C18.6972 9.94296 26.4194 10.0693 29.4168 4.69037L26.7962 3.23007C24.9778 6.49321 20.1861 6.5021 18.2894 3.18354L15.6848 4.67214ZM2.35665 243.306C1.79528 242.324 1.5 241.212 1.5 240.08H-1.5C-1.5 241.734 -1.06844 243.359 -0.247974 244.794L2.35665 243.306ZM-0.247976 11.2056C-1.06844 12.6412 -1.5 14.2661 -1.5 15.9195H1.5C1.5 14.7882 1.79528 13.6765 2.35665 12.6942L-0.247976 11.2056ZM4.38993 252.909C7.47231 258.303 15.2492 258.136 18.2894 252.816L15.6848 251.328C13.754 254.706 8.88316 254.725 6.99455 251.421L4.38993 252.909ZM6.99455 4.57926C8.88316 1.27475 13.754 1.29384 15.6848 4.67214L18.2894 3.18354C15.2492 -2.13595 7.47231 -2.30262 4.38993 3.09066L6.99455 4.57926Z" fill="#F8981D" mask="url(#path-1-inside-1_363_232)"/>
</svg>
