<svg width="708" height="439" viewBox="0 0 708 439" fill="none" xmlns="http://www.w3.org/2000/svg">
<mask id="path-1-inside-1_357_236" fill="white">
<path d="M2.59936 28.3418L30.357 2.94192C33.414 0.144521 38.1012 0.144521 41.1583 2.94192L66.0458 25.7155C69.1314 28.5391 73.8713 28.5092 76.9211 25.6469L100.905 3.13809C103.983 0.249204 108.776 0.249224 111.854 3.13813L135.837 25.6471C138.887 28.5093 143.627 28.5393 146.712 25.716L171.604 2.9414C174.661 0.144256 179.348 0.144377 182.405 2.94167L207.288 25.7118C210.374 28.5353 215.114 28.5054 218.164 25.6431L242.143 3.13814C245.221 0.249231 250.014 0.249234 253.092 3.13815L277.075 25.6471C280.125 28.5093 284.865 28.5393 287.95 25.716L312.842 2.94141C315.899 0.144267 320.586 0.144377 323.643 2.94167L348.53 25.7155C351.616 28.5391 356.356 28.5092 359.406 25.6469L383.389 3.13782C386.467 0.249048 391.26 0.248938 394.339 3.13757L418.325 25.6474C421.375 28.5094 426.115 28.5392 429.2 25.7157L454.088 2.94192C457.145 0.14452 461.832 0.14452 464.889 2.94192L489.842 25.7748C492.899 28.5722 497.586 28.5722 500.643 25.7748L525.595 2.94193C528.652 0.144528 533.339 0.144524 536.397 2.94192L561.285 25.7161C564.37 28.5394 569.109 28.5098 572.159 25.6482L596.151 3.13681C599.23 0.248554 604.022 0.248854 607.1 3.1375L631.081 25.6446C634.131 28.5069 638.871 28.5368 641.957 25.7132L666.842 2.94192C669.899 0.144522 674.586 0.144521 677.643 2.94192L705.401 28.3418C707.057 29.8573 708 31.9989 708 34.2438V219.5V404.756C708 407.001 707.057 409.143 705.401 410.658L677.643 436.058C674.586 438.855 669.899 438.855 666.842 436.058L641.957 413.287C638.871 410.463 634.131 410.493 631.081 413.355L607.1 435.862C604.022 438.751 599.23 438.751 596.151 435.863L572.159 413.352C569.109 410.49 564.37 410.461 561.285 413.284L536.397 436.058C533.339 438.855 528.652 438.855 525.595 436.058L500.643 413.225C497.586 410.428 492.899 410.428 489.842 413.225L464.889 436.058C461.832 438.855 457.145 438.855 454.088 436.058L429.2 413.284C426.115 410.461 421.375 410.491 418.325 413.353L394.339 435.862C391.26 438.751 386.467 438.751 383.389 435.862L359.406 413.353C356.356 410.491 351.616 410.461 348.53 413.284L323.643 436.058C320.586 438.856 315.899 438.856 312.842 436.059L287.95 413.284C284.865 410.461 280.125 410.491 277.075 413.353L253.092 435.862C250.014 438.751 245.221 438.751 242.143 435.862L218.164 413.357C215.114 410.495 210.374 410.465 207.288 413.288L182.405 436.058C179.348 438.856 174.661 438.856 171.604 436.059L146.712 413.284C143.627 410.461 138.887 410.491 135.837 413.353L111.854 435.862C108.776 438.751 103.983 438.751 100.905 435.862L76.9211 413.353C73.8713 410.491 69.1314 410.461 66.0458 413.284L41.1583 436.058C38.1012 438.855 33.414 438.855 30.357 436.058L2.59936 410.658C0.943207 409.143 0 407.001 0 404.756V219.5V34.2438C0 31.9989 0.943207 29.8573 2.59936 28.3418Z"/>
</mask>
<path d="M2.59936 28.3418L30.357 2.94192C33.414 0.144521 38.1012 0.144521 41.1583 2.94192L66.0458 25.7155C69.1314 28.5391 73.8713 28.5092 76.9211 25.6469L100.905 3.13809C103.983 0.249204 108.776 0.249224 111.854 3.13813L135.837 25.6471C138.887 28.5093 143.627 28.5393 146.712 25.716L171.604 2.9414C174.661 0.144256 179.348 0.144377 182.405 2.94167L207.288 25.7118C210.374 28.5353 215.114 28.5054 218.164 25.6431L242.143 3.13814C245.221 0.249231 250.014 0.249234 253.092 3.13815L277.075 25.6471C280.125 28.5093 284.865 28.5393 287.95 25.716L312.842 2.94141C315.899 0.144267 320.586 0.144377 323.643 2.94167L348.53 25.7155C351.616 28.5391 356.356 28.5092 359.406 25.6469L383.389 3.13782C386.467 0.249048 391.26 0.248938 394.339 3.13757L418.325 25.6474C421.375 28.5094 426.115 28.5392 429.2 25.7157L454.088 2.94192C457.145 0.14452 461.832 0.14452 464.889 2.94192L489.842 25.7748C492.899 28.5722 497.586 28.5722 500.643 25.7748L525.595 2.94193C528.652 0.144528 533.339 0.144524 536.397 2.94192L561.285 25.7161C564.37 28.5394 569.109 28.5098 572.159 25.6482L596.151 3.13681C599.23 0.248554 604.022 0.248854 607.1 3.1375L631.081 25.6446C634.131 28.5069 638.871 28.5368 641.957 25.7132L666.842 2.94192C669.899 0.144522 674.586 0.144521 677.643 2.94192L705.401 28.3418C707.057 29.8573 708 31.9989 708 34.2438V219.5V404.756C708 407.001 707.057 409.143 705.401 410.658L677.643 436.058C674.586 438.855 669.899 438.855 666.842 436.058L641.957 413.287C638.871 410.463 634.131 410.493 631.081 413.355L607.1 435.862C604.022 438.751 599.23 438.751 596.151 435.863L572.159 413.352C569.109 410.49 564.37 410.461 561.285 413.284L536.397 436.058C533.339 438.855 528.652 438.855 525.595 436.058L500.643 413.225C497.586 410.428 492.899 410.428 489.842 413.225L464.889 436.058C461.832 438.855 457.145 438.855 454.088 436.058L429.2 413.284C426.115 410.461 421.375 410.491 418.325 413.353L394.339 435.862C391.26 438.751 386.467 438.751 383.389 435.862L359.406 413.353C356.356 410.491 351.616 410.461 348.53 413.284L323.643 436.058C320.586 438.856 315.899 438.856 312.842 436.059L287.95 413.284C284.865 410.461 280.125 410.491 277.075 413.353L253.092 435.862C250.014 438.751 245.221 438.751 242.143 435.862L218.164 413.357C215.114 410.495 210.374 410.465 207.288 413.288L182.405 436.058C179.348 438.856 174.661 438.856 171.604 436.059L146.712 413.284C143.627 410.461 138.887 410.491 135.837 413.353L111.854 435.862C108.776 438.751 103.983 438.751 100.905 435.862L76.9211 413.353C73.8713 410.491 69.1314 410.461 66.0458 413.284L41.1583 436.058C38.1012 438.855 33.414 438.855 30.357 436.058L2.59936 410.658C0.943207 409.143 0 407.001 0 404.756V219.5V34.2438C0 31.9989 0.943207 29.8573 2.59936 28.3418Z" fill="#FDFDFD"/>
<path d="M30.357 2.94192L31.3696 4.04854L30.357 2.94192ZM2.59936 28.3418L3.61198 29.4484L3.61198 29.4484L2.59936 28.3418ZM66.0458 25.7155L67.0584 24.6089L66.0458 25.7155ZM41.1583 2.94192L40.1456 4.04854L40.1456 4.04854L41.1583 2.94192ZM100.905 3.13809L101.931 4.23184L100.905 3.13809ZM76.9211 25.6469L75.8946 24.5532L76.9211 25.6469ZM135.837 25.6471L136.864 24.5534V24.5534L135.837 25.6471ZM111.854 3.13813L112.88 2.04438L111.854 3.13813ZM146.712 25.716L147.725 26.8227H147.725L146.712 25.716ZM171.604 2.9414L172.616 4.04807V4.04806L171.604 2.9414ZM253.092 3.13815L252.066 4.23189V4.23189L253.092 3.13815ZM277.075 25.6471L276.049 26.7409L277.075 25.6471ZM218.164 25.6431L219.19 26.7369L218.164 25.6431ZM242.143 3.13814L241.116 2.0444V2.0444L242.143 3.13814ZM182.405 2.94167L183.417 1.83506V1.83505L182.405 2.94167ZM207.288 25.7118L206.276 26.8184V26.8184L207.288 25.7118ZM287.95 25.716L286.938 24.6093V24.6093L287.95 25.716ZM312.842 2.94141L311.829 1.83474V1.83474L312.842 2.94141ZM323.643 2.94167L322.63 4.04829V4.04829L323.643 2.94167ZM348.53 25.7155L349.543 24.6089L348.53 25.7155ZM383.389 3.13782L382.363 2.04407L383.389 3.13782ZM359.406 25.6469L358.379 24.5532L358.379 24.5532L359.406 25.6469ZM418.325 25.6474L417.299 26.7412V26.7412L418.325 25.6474ZM394.339 3.13757L395.365 2.04377V2.04377L394.339 3.13757ZM429.2 25.7157L430.213 26.8224L430.213 26.8224L429.2 25.7157ZM454.088 2.94192L453.075 1.8353V1.8353L454.088 2.94192ZM536.397 2.94192L537.409 1.83531V1.83531L536.397 2.94192ZM561.285 25.7161L562.297 24.6095L561.285 25.7161ZM500.643 25.7748L499.63 24.6682V24.6682L500.643 25.7748ZM525.595 2.94193L524.583 1.83531V1.83531L525.595 2.94193ZM464.889 2.94192L465.902 1.8353V1.8353L464.889 2.94192ZM489.842 25.7748L488.829 26.8814L489.842 25.7748ZM572.159 25.6482L573.186 26.7421L572.159 25.6482ZM596.151 3.13681L595.125 2.04293V2.04294L596.151 3.13681ZM705.401 28.3418L704.388 29.4484V29.4485L705.401 28.3418ZM677.643 2.94192L678.656 1.8353V1.8353L677.643 2.94192ZM666.842 2.94192L665.829 1.8353V1.8353L666.842 2.94192ZM641.957 25.7132L642.969 26.8199V26.8199L641.957 25.7132ZM607.1 3.1375L608.127 2.04376V2.04375L607.1 3.1375ZM631.081 25.6446L630.055 26.7383V26.7383L631.081 25.6446ZM30.357 436.058L29.3443 437.165L30.357 436.058ZM2.59936 410.658L3.61198 409.552H3.61197L2.59936 410.658ZM66.0458 413.284L67.0584 414.391L66.0458 413.284ZM41.1583 436.058L42.1709 437.165L41.1583 436.058ZM100.905 435.862L101.931 434.768L100.905 435.862ZM76.9211 413.353L75.8946 414.447L76.9211 413.353ZM135.837 413.353L136.864 414.447H136.864L135.837 413.353ZM111.854 435.862L112.88 436.956L111.854 435.862ZM146.712 413.284L145.7 414.391H145.7L146.712 413.284ZM171.604 436.059L172.616 434.952H172.616L171.604 436.059ZM253.092 435.862L252.066 434.768L253.092 435.862ZM277.075 413.353L276.049 412.259H276.049L277.075 413.353ZM218.164 413.357L217.137 414.451L218.164 413.357ZM242.143 435.862L243.169 434.768L242.143 435.862ZM182.405 436.058L183.417 437.165L182.405 436.058ZM207.288 413.288L206.276 412.182L207.288 413.288ZM287.95 413.284L286.938 414.391L287.95 413.284ZM312.842 436.059L311.829 437.165L312.842 436.059ZM323.643 436.058L322.63 434.952L323.643 436.058ZM348.53 413.284L349.543 414.391L348.53 413.284ZM383.389 435.862L382.363 436.956L383.389 435.862ZM359.406 413.353L358.379 414.447H358.379L359.406 413.353ZM418.325 413.353L417.299 412.259L418.325 413.353ZM394.339 435.862L395.365 436.956L394.339 435.862ZM429.2 413.284L430.213 412.178H430.213L429.2 413.284ZM454.088 436.058L453.075 437.165L454.088 436.058ZM536.397 436.058L537.409 437.165L536.397 436.058ZM561.285 413.284L562.297 414.391V414.39L561.285 413.284ZM500.643 413.225L499.63 414.332V414.332L500.643 413.225ZM525.595 436.058L524.583 437.165L525.595 436.058ZM464.889 436.058L465.902 437.165L464.889 436.058ZM489.842 413.225L490.854 414.332V414.332L489.842 413.225ZM572.159 413.352L573.186 412.258L572.159 413.352ZM596.151 435.863L595.125 436.957L596.151 435.863ZM705.401 410.658L704.388 409.552L705.401 410.658ZM677.643 436.058L678.656 437.165L677.643 436.058ZM666.842 436.058L665.829 437.165L666.842 436.058ZM641.957 413.287L642.969 412.18L641.957 413.287ZM607.1 435.862L608.127 436.956L607.1 435.862ZM631.081 413.355L630.055 412.262L631.081 413.355ZM29.3443 1.8353L1.58673 27.2352L3.61198 29.4484L31.3696 4.04854L29.3443 1.8353ZM67.0584 24.6089L42.1709 1.8353L40.1456 4.04854L65.0332 26.8221L67.0584 24.6089ZM99.8781 2.04434L75.8946 24.5532L77.9476 26.7407L101.931 4.23184L99.8781 2.04434ZM136.864 24.5534L112.88 2.04438L110.827 4.23187L134.811 26.7409L136.864 24.5534ZM147.725 26.8227L172.616 4.04807L170.591 1.83473L145.7 24.6093L147.725 26.8227ZM252.066 4.23189L276.049 26.7409L278.102 24.5534L254.119 2.0444L252.066 4.23189ZM219.19 26.7369L243.169 4.23189L241.116 2.0444L217.137 24.5494L219.19 26.7369ZM181.392 4.04829L206.276 26.8184L208.301 24.6051L183.417 1.83506L181.392 4.04829ZM288.963 26.8227L313.854 4.04808L311.829 1.83474L286.938 24.6093L288.963 26.8227ZM322.63 4.04829L347.518 26.8221L349.543 24.6089L324.655 1.83506L322.63 4.04829ZM382.363 2.04407L358.379 24.5532L360.432 26.7407L384.416 4.23158L382.363 2.04407ZM419.352 24.5536L395.365 2.04377L393.312 4.23137L417.299 26.7412L419.352 24.5536ZM430.213 26.8224L455.101 4.04853L453.075 1.8353L428.188 24.6091L430.213 26.8224ZM535.384 4.04854L560.272 26.8227L562.297 24.6095L537.409 1.83531L535.384 4.04854ZM501.656 26.8814L526.608 4.04854L524.583 1.83531L499.63 24.6682L501.656 26.8814ZM463.877 4.04853L488.829 26.8814L490.854 24.6682L465.902 1.8353L463.877 4.04853ZM573.186 26.7421L597.178 4.23069L595.125 2.04294L571.133 24.5543L573.186 26.7421ZM706.413 27.2352L678.656 1.8353L676.63 4.04853L704.388 29.4484L706.413 27.2352ZM665.829 1.8353L640.944 24.6066L642.969 26.8199L667.854 4.04854L665.829 1.8353ZM606.074 4.23125L630.055 26.7383L632.108 24.5509L608.127 2.04376L606.074 4.23125ZM706.5 34.2438V219.5H709.5V34.2438H706.5ZM1.5 219.5V34.2438H-1.5V219.5H1.5ZM31.3696 434.951L3.61198 409.552L1.58673 411.765L29.3443 437.165L31.3696 434.951ZM65.0332 412.178L40.1456 434.951L42.1709 437.165L67.0584 414.391L65.0332 412.178ZM101.931 434.768L77.9476 412.259L75.8946 414.447L99.8781 436.956L101.931 434.768ZM134.811 412.259L110.827 434.768L112.88 436.956L136.864 414.447L134.811 412.259ZM145.7 414.391L170.591 437.165L172.616 434.952L147.725 412.177L145.7 414.391ZM254.119 436.956L278.102 414.447L276.049 412.259L252.066 434.768L254.119 436.956ZM217.137 414.451L241.116 436.956L243.169 434.768L219.19 412.263L217.137 414.451ZM183.417 437.165L208.301 414.395L206.276 412.182L181.392 434.952L183.417 437.165ZM286.938 414.391L311.829 437.165L313.854 434.952L288.963 412.177L286.938 414.391ZM324.655 437.165L349.543 414.391L347.518 412.178L322.63 434.952L324.655 437.165ZM384.416 434.768L360.432 412.259L358.379 414.447L382.363 436.956L384.416 434.768ZM417.299 412.259L393.312 434.769L395.365 436.956L419.352 414.446L417.299 412.259ZM428.188 414.391L453.075 437.165L455.101 434.951L430.213 412.178L428.188 414.391ZM537.409 437.165L562.297 414.391L560.272 412.177L535.384 434.951L537.409 437.165ZM499.63 414.332L524.583 437.165L526.608 434.951L501.656 412.119L499.63 414.332ZM465.902 437.165L490.854 414.332L488.829 412.119L463.877 434.951L465.902 437.165ZM571.133 414.446L595.125 436.957L597.178 434.769L573.186 412.258L571.133 414.446ZM704.388 409.552L676.63 434.951L678.656 437.165L706.413 411.765L704.388 409.552ZM667.854 434.951L642.969 412.18L640.944 414.393L665.829 437.165L667.854 434.951ZM608.127 436.956L632.108 414.449L630.055 412.262L606.074 434.769L608.127 436.956ZM709.5 404.756V219.5H706.5V404.756H709.5ZM-1.5 219.5V404.756H1.5V219.5H-1.5ZM642.969 412.18C639.305 408.827 633.677 408.863 630.055 412.262L632.108 414.449C634.586 412.124 638.437 412.099 640.944 414.393L642.969 412.18ZM676.63 434.951C674.147 437.224 670.338 437.224 667.854 434.951L665.829 437.165C669.459 440.487 675.025 440.487 678.656 437.165L676.63 434.951ZM706.413 411.765C708.38 409.965 709.5 407.422 709.5 404.756H706.5C706.5 406.58 705.734 408.32 704.388 409.552L706.413 411.765ZM595.125 436.957C598.78 440.387 604.472 440.387 608.127 436.956L606.074 434.769C603.573 437.116 599.679 437.116 597.178 434.769L595.125 436.957ZM501.656 412.119C498.025 408.797 492.459 408.797 488.829 412.119L490.854 414.332C493.338 412.059 497.147 412.059 499.63 414.332L501.656 412.119ZM562.297 414.39C564.804 412.097 568.655 412.121 571.133 414.446L573.186 412.258C569.564 408.86 563.936 408.825 560.272 412.177L562.297 414.39ZM535.384 434.951C532.9 437.224 529.092 437.224 526.608 434.951L524.583 437.165C528.213 440.487 533.779 440.487 537.409 437.165L535.384 434.951ZM453.075 437.165C456.706 440.487 462.272 440.487 465.902 437.165L463.877 434.951C461.393 437.224 457.585 437.224 455.101 434.951L453.075 437.165ZM419.352 414.446C421.83 412.121 425.681 412.097 428.188 414.391L430.213 412.178C426.549 408.825 420.92 408.86 417.299 412.259L419.352 414.446ZM382.363 436.956C386.018 440.386 391.71 440.386 395.365 436.956L393.312 434.769C390.811 437.116 386.917 437.116 384.416 434.768L382.363 436.956ZM349.543 414.391C352.05 412.097 355.901 412.121 358.379 414.447L360.432 412.259C356.811 408.86 351.182 408.825 347.518 412.178L349.543 414.391ZM311.829 437.165C315.459 440.487 321.025 440.487 324.655 437.165L322.63 434.952C320.146 437.225 316.338 437.225 313.854 434.952L311.829 437.165ZM219.19 412.263C215.568 408.864 209.94 408.829 206.276 412.182L208.301 414.395C210.808 412.101 214.659 412.125 217.137 414.451L219.19 412.263ZM278.102 414.447C280.58 412.121 284.431 412.097 286.938 414.391L288.963 412.177C285.299 408.825 279.67 408.86 276.049 412.259L278.102 414.447ZM252.066 434.768C249.565 437.115 245.67 437.115 243.169 434.768L241.116 436.956C244.771 440.386 250.463 440.386 254.119 436.956L252.066 434.768ZM170.591 437.165C174.221 440.487 179.787 440.487 183.417 437.165L181.392 434.952C178.908 437.225 175.1 437.225 172.616 434.952L170.591 437.165ZM136.864 414.447C139.342 412.121 143.193 412.097 145.7 414.391L147.725 412.177C144.061 408.825 138.432 408.86 134.811 412.259L136.864 414.447ZM99.8781 436.956C103.533 440.386 109.225 440.386 112.88 436.956L110.827 434.768C108.326 437.115 104.432 437.115 101.931 434.768L99.8781 436.956ZM67.0584 414.391C69.5655 412.097 73.4166 412.121 75.8946 414.447L77.9476 412.259C74.326 408.86 68.6974 408.825 65.0332 412.178L67.0584 414.391ZM640.944 24.6066C638.437 26.9008 634.586 26.8765 632.108 24.5509L630.055 26.7383C633.677 30.1373 639.305 30.1729 642.969 26.8199L640.944 24.6066ZM678.656 1.8353C675.025 -1.48661 669.459 -1.48661 665.829 1.8353L667.854 4.04854C670.338 1.77565 674.147 1.77565 676.63 4.04854L678.656 1.8353ZM704.388 29.4485C705.734 30.6798 706.5 32.4198 706.5 34.2438H709.5C709.5 31.578 708.38 29.0348 706.413 27.2352L704.388 29.4485ZM597.178 4.23069C599.679 1.88398 603.573 1.88422 606.074 4.23125L608.127 2.04375C604.472 -1.38651 598.78 -1.38687 595.125 2.04293L597.178 4.23069ZM499.63 24.6682C497.147 26.9411 493.338 26.9411 490.854 24.6682L488.829 26.8814C492.459 30.2033 498.025 30.2033 501.656 26.8814L499.63 24.6682ZM560.272 26.8227C563.936 30.1754 569.564 30.1403 573.186 26.7421L571.133 24.5543C568.655 26.8794 564.804 26.9035 562.297 24.6095L560.272 26.8227ZM537.409 1.83531C533.779 -1.48661 528.213 -1.4866 524.583 1.83531L526.608 4.04854C529.092 1.77565 532.9 1.77565 535.384 4.04854L537.409 1.83531ZM455.101 4.04853C457.585 1.77565 461.393 1.77565 463.877 4.04853L465.902 1.8353C462.272 -1.48661 456.706 -1.48661 453.075 1.8353L455.101 4.04853ZM417.299 26.7412C420.92 30.1399 426.549 30.1752 430.213 26.8224L428.188 24.6091C425.681 26.9032 421.83 26.879 419.352 24.5536L417.299 26.7412ZM384.416 4.23158C386.917 1.88445 390.811 1.88435 393.312 4.23138L395.365 2.04377C391.71 -1.38648 386.018 -1.38635 382.363 2.04407L384.416 4.23158ZM347.518 26.8221C351.182 30.1751 356.811 30.1396 360.432 26.7407L358.379 24.5532C355.901 26.8788 352.05 26.9031 349.543 24.6089L347.518 26.8221ZM313.854 4.04808C316.338 1.77539 320.146 1.77549 322.63 4.04829L324.655 1.83506C321.025 -1.48673 315.459 -1.48686 311.829 1.83474L313.854 4.04808ZM217.137 24.5494C214.659 26.875 210.808 26.8993 208.301 24.6051L206.276 26.8184C209.94 30.1714 215.568 30.1358 219.19 26.7369L217.137 24.5494ZM276.049 26.7409C279.67 30.1397 285.299 30.1754 288.963 26.8227L286.938 24.6093C284.431 26.9033 280.58 26.8789 278.102 24.5534L276.049 26.7409ZM254.119 2.0444C250.463 -1.38618 244.771 -1.38619 241.116 2.0444L243.169 4.23189C245.67 1.88465 249.565 1.88465 252.066 4.23189L254.119 2.0444ZM172.616 4.04806C175.1 1.77539 178.908 1.77548 181.392 4.04829L183.417 1.83505C179.787 -1.48673 174.221 -1.48688 170.591 1.83473L172.616 4.04806ZM134.811 26.7408C138.432 30.1397 144.061 30.1754 147.725 26.8227L145.7 24.6093C143.193 26.9033 139.342 26.8789 136.864 24.5534L134.811 26.7408ZM101.931 4.23184C104.432 1.88462 108.326 1.88464 110.827 4.23187L112.88 2.04438C109.225 -1.38619 103.533 -1.38622 99.8781 2.04434L101.931 4.23184ZM65.0332 26.8221C68.6974 30.1751 74.326 30.1396 77.9476 26.7407L75.8946 24.5532C73.4166 26.8788 69.5655 26.9031 67.0584 24.6089L65.0332 26.8221ZM3.61197 409.552C2.26636 408.32 1.5 406.58 1.5 404.756H-1.5C-1.5 407.422 -0.379942 409.965 1.58674 411.765L3.61197 409.552ZM1.58674 27.2352C-0.37994 29.0348 -1.5 31.578 -1.5 34.2438H1.5C1.5 32.4198 2.26635 30.6798 3.61198 29.4484L1.58674 27.2352ZM29.3443 437.165C32.9746 440.487 38.5406 440.487 42.1709 437.165L40.1456 434.951C37.6618 437.224 33.8535 437.224 31.3696 434.951L29.3443 437.165ZM31.3696 4.04854C33.8535 1.77565 37.6618 1.77565 40.1456 4.04854L42.1709 1.8353C38.5406 -1.48661 32.9746 -1.48661 29.3443 1.8353L31.3696 4.04854Z" fill="#F8981D" mask="url(#path-1-inside-1_357_236)"/>
</svg>
