<svg width="76" height="172" viewBox="0 0 76 172" fill="none" xmlns="http://www.w3.org/2000/svg">
<path fill-rule="evenodd" clip-rule="evenodd" d="M74 4C75.1046 4 76 3.10457 76 2C76 0.895431 75.1046 0 74 0C72.8954 0 72 0.895431 72 2C72 3.10457 72.8954 4 74 4ZM74 28C75.1046 28 76 27.1046 76 26C76 24.8954 75.1046 24 74 24C72.8954 24 72 24.8954 72 26C72 27.1046 72.8954 28 74 28ZM76 50C76 51.1046 75.1046 52 74 52C72.8954 52 72 51.1046 72 50C72 48.8954 72.8954 48 74 48C75.1046 48 76 48.8954 76 50ZM74 100C75.1046 100 76 99.1046 76 98C76 96.8954 75.1046 96 74 96C72.8954 96 72 96.8954 72 98C72 99.1046 72.8954 100 74 100ZM76 146C76 147.105 75.1046 148 74 148C72.8954 148 72 147.105 72 146C72 144.895 72.8954 144 74 144C75.1046 144 76 144.895 76 146ZM74 76C75.1046 76 76 75.1046 76 74C76 72.8954 75.1046 72 74 72C72.8954 72 72 72.8954 72 74C72 75.1046 72.8954 76 74 76ZM76 122C76 123.105 75.1046 124 74 124C72.8954 124 72 123.105 72 122C72 120.895 72.8954 120 74 120C75.1046 120 76 120.895 76 122ZM74 172C75.1046 172 76 171.105 76 170C76 168.895 75.1046 168 74 168C72.8954 168 72 168.895 72 170C72 171.105 72.8954 172 74 172Z" fill="#FA7B49"/>
<path fill-rule="evenodd" clip-rule="evenodd" d="M50 4C51.1046 4 52 3.10457 52 2C52 0.895431 51.1046 0 50 0C48.8954 0 48 0.895431 48 2C48 3.10457 48.8954 4 50 4ZM50 28C51.1046 28 52 27.1046 52 26C52 24.8954 51.1046 24 50 24C48.8954 24 48 24.8954 48 26C48 27.1046 48.8954 28 50 28ZM52 50C52 51.1046 51.1046 52 50 52C48.8954 52 48 51.1046 48 50C48 48.8954 48.8954 48 50 48C51.1046 48 52 48.8954 52 50ZM50 100C51.1046 100 52 99.1046 52 98C52 96.8954 51.1046 96 50 96C48.8954 96 48 96.8954 48 98C48 99.1046 48.8954 100 50 100ZM52 146C52 147.105 51.1046 148 50 148C48.8954 148 48 147.105 48 146C48 144.895 48.8954 144 50 144C51.1046 144 52 144.895 52 146ZM50 76C51.1046 76 52 75.1046 52 74C52 72.8954 51.1046 72 50 72C48.8954 72 48 72.8954 48 74C48 75.1046 48.8954 76 50 76ZM52 122C52 123.105 51.1046 124 50 124C48.8954 124 48 123.105 48 122C48 120.895 48.8954 120 50 120C51.1046 120 52 120.895 52 122ZM50 172C51.1046 172 52 171.105 52 170C52 168.895 51.1046 168 50 168C48.8954 168 48 168.895 48 170C48 171.105 48.8954 172 50 172Z" fill="#FA7B49"/>
<path fill-rule="evenodd" clip-rule="evenodd" d="M26 4C27.1046 4 28 3.10457 28 2C28 0.895431 27.1046 0 26 0C24.8954 0 24 0.895431 24 2C24 3.10457 24.8954 4 26 4ZM26 28C27.1046 28 28 27.1046 28 26C28 24.8954 27.1046 24 26 24C24.8954 24 24 24.8954 24 26C24 27.1046 24.8954 28 26 28ZM28 50C28 51.1046 27.1046 52 26 52C24.8954 52 24 51.1046 24 50C24 48.8954 24.8954 48 26 48C27.1046 48 28 48.8954 28 50ZM26 100C27.1046 100 28 99.1046 28 98C28 96.8954 27.1046 96 26 96C24.8954 96 24 96.8954 24 98C24 99.1046 24.8954 100 26 100ZM28 146C28 147.105 27.1046 148 26 148C24.8954 148 24 147.105 24 146C24 144.895 24.8954 144 26 144C27.1046 144 28 144.895 28 146ZM26 76C27.1046 76 28 75.1046 28 74C28 72.8954 27.1046 72 26 72C24.8954 72 24 72.8954 24 74C24 75.1046 24.8954 76 26 76ZM28 122C28 123.105 27.1046 124 26 124C24.8954 124 24 123.105 24 122C24 120.895 24.8954 120 26 120C27.1046 120 28 120.895 28 122ZM26 172C27.1046 172 28 171.105 28 170C28 168.895 27.1046 168 26 168C24.8954 168 24 168.895 24 170C24 171.105 24.8954 172 26 172Z" fill="#FA7B49"/>
<path fill-rule="evenodd" clip-rule="evenodd" d="M2 4C3.10457 4 4 3.10457 4 2C4 0.895431 3.10457 0 2 0C0.895431 0 0 0.895431 0 2C0 3.10457 0.895431 4 2 4ZM2 28C3.10457 28 4 27.1046 4 26C4 24.8954 3.10457 24 2 24C0.895431 24 0 24.8954 0 26C0 27.1046 0.895431 28 2 28ZM4 50C4 51.1046 3.10457 52 2 52C0.895431 52 0 51.1046 0 50C0 48.8954 0.895431 48 2 48C3.10457 48 4 48.8954 4 50ZM2 100C3.10457 100 4 99.1046 4 98C4 96.8954 3.10457 96 2 96C0.895431 96 0 96.8954 0 98C0 99.1046 0.895431 100 2 100ZM4 146C4 147.105 3.10457 148 2 148C0.895431 148 0 147.105 0 146C0 144.895 0.895431 144 2 144C3.10457 144 4 144.895 4 146ZM2 76C3.10457 76 4 75.1046 4 74C4 72.8954 3.10457 72 2 72C0.895431 72 0 72.8954 0 74C0 75.1046 0.895431 76 2 76ZM4 122C4 123.105 3.10457 124 2 124C0.895431 124 0 123.105 0 122C0 120.895 0.895431 120 2 120C3.10457 120 4 120.895 4 122ZM2 172C3.10457 172 4 171.105 4 170C4 168.895 3.10457 168 2 168C0.895431 168 0 168.895 0 170C0 171.105 0.895431 172 2 172Z" fill="#FA7B49"/>
</svg>
