<svg width="246" height="16" viewBox="0 0 246 16" fill="none" xmlns="http://www.w3.org/2000/svg">
<path d="M5.32953 6.54062C7.27915 6.5545 9.22877 6.47123 11.1784 6.42498C11.9718 6.40648 12.7651 6.3741 13.5585 6.34172C17.0518 6.2122 20.5452 6.08268 24.0385 5.94854C28.2145 5.79127 32.3905 5.62475 36.5665 5.44897C42.5322 5.19919 48.4979 4.94941 54.4636 4.69962C55.829 4.64412 57.2005 4.60249 58.5658 4.55623C62.0407 4.43134 65.5156 4.31107 68.9905 4.18618C72.4653 4.06591 75.9402 3.94102 79.4151 3.81613C80.7743 3.76988 82.1396 3.70512 83.4988 3.67274C89.0463 3.53859 94.5938 3.40908 100.135 3.27956C103.542 3.20092 106.956 3.11766 110.363 3.03903C111.698 3.00665 113.032 2.96039 114.373 2.94651C119.736 2.88638 125.093 2.82625 130.456 2.76612C135.745 2.70598 141.034 2.64585 146.323 2.58572C147.719 2.57184 149.116 2.57647 150.512 2.57184C153.968 2.56259 157.418 2.55334 160.875 2.53946C166.244 2.52558 171.613 2.51171 176.988 2.49321C178.747 2.48858 180.5 2.50246 182.259 2.50708C185.937 2.51633 189.615 2.52558 193.293 2.53483C193.594 2.53483 193.901 2.53946 194.203 2.53946C185.925 2.62272 177.646 2.70598 169.368 2.79849C165.912 2.8355 162.455 2.87713 158.999 2.91414C157.511 2.93264 156.016 2.93264 154.522 2.96502C149.521 3.06216 144.521 3.16855 139.521 3.27031C133.74 3.38595 127.959 3.50622 122.184 3.62186C121.212 3.64036 120.24 3.68199 119.269 3.71899C116.193 3.82538 113.112 3.93177 110.037 4.03816C103.795 4.25556 97.5521 4.47297 91.3096 4.68575C90.3871 4.71813 89.4646 4.76901 88.542 4.81526C85.4915 4.97253 82.441 5.1298 79.3966 5.2917C73.9352 5.57386 68.4739 5.85603 63.0125 6.14282C61.5056 6.22145 60.005 6.33247 58.4982 6.42961C54.9987 6.65163 51.5054 6.87366 48.0059 7.09569C43.5593 7.37785 39.1127 7.65077 34.6661 7.94218C28.479 8.34923 22.2918 8.75166 16.1109 9.15872C14.6287 9.25585 13.1403 9.35299 11.6581 9.45013C9.00121 9.62591 6.35047 9.87569 3.69357 10.0977C3.41066 10.1208 3.17695 10.2596 3.17695 10.4863C3.17695 10.7083 3.41066 10.8656 3.69357 10.8748C4.66531 10.9072 5.63089 10.9396 6.60262 10.9673C6.48577 11.157 6.41197 11.3651 6.41197 11.5779C6.41197 12.3226 7.27915 13.0581 8.31239 13.0119C15.8956 12.6557 23.4788 12.2718 31.0682 11.9988C37.6551 11.7629 44.2481 11.527 50.8412 11.2911C58.1292 11.0321 65.411 10.7684 72.6991 10.5094C74.9931 10.4261 77.2871 10.3429 79.5812 10.2642C80.2454 10.2411 80.9035 10.2087 81.5677 10.1949C93.3023 9.95895 105.043 9.73229 116.778 9.50101C123.051 9.37612 129.324 9.25585 135.597 9.13096C137.867 9.08471 140.13 9.0477 142.393 9.01995C154.399 8.87655 166.404 8.73779 178.409 8.59439C183.551 8.53426 188.698 8.4695 193.84 8.40937C198.231 8.35849 202.622 8.33536 207.014 8.21047C210.642 8.1087 214.265 8.00231 217.893 7.90055C219.702 7.84967 221.516 7.81729 223.324 7.7294C227.439 7.53513 231.559 7.33622 235.674 7.12807C235.668 7.1327 235.668 7.13732 235.661 7.14195C235.428 7.43799 235.366 7.80341 235.489 8.13645C235.606 8.46025 235.895 8.73779 236.276 8.90431C236.639 9.06158 237.193 9.15409 237.599 9.03382C238.497 8.76554 239.389 8.49263 240.28 8.21047C240.262 8.21509 240.243 8.22434 240.225 8.22897C240.293 8.20584 240.354 8.18734 240.422 8.16421C240.496 8.14108 240.575 8.11795 240.649 8.0902C240.619 8.09945 240.594 8.1087 240.563 8.11795C241.037 7.96531 241.51 7.81729 241.99 7.66464C242.488 7.50737 242.986 7.3501 243.478 7.18821C244.02 7.01243 244.53 6.79503 245.053 6.58687C245.637 6.35097 246 5.83752 246 5.34721C246 5.08818 245.914 4.84764 245.742 4.62099C245.514 4.32495 245.065 4.01966 244.598 3.95953C244.136 3.89939 243.681 3.85314 243.214 3.80688C243.116 3.79763 243.011 3.793 242.906 3.793C242.593 3.793 242.267 3.82538 241.972 3.83926C241.27 3.87626 240.575 3.9549 239.881 3.9919C239.309 4.02428 238.743 4.05204 238.171 4.08442C236.633 4.16768 235.102 4.25094 233.564 4.3342C233.171 4.35733 232.771 4.37121 232.371 4.39433C232.513 4.26944 232.617 4.13067 232.679 3.96878C232.752 3.84389 232.789 3.70974 232.802 3.57098C232.82 3.47384 232.839 3.3767 232.857 3.27494C232.857 3.14542 232.826 3.02515 232.771 2.90951C232.808 2.89564 232.851 2.88176 232.888 2.86788C233.177 2.73836 233.404 2.56722 233.577 2.34519C233.755 2.11853 233.841 1.87337 233.841 1.61434C233.841 1.35068 233.755 1.11015 233.577 0.883491C233.478 0.786353 233.374 0.689215 233.275 0.587452C233.035 0.407053 232.752 0.282162 232.426 0.212778C231.836 0.0416301 231.215 0 230.588 0C230.077 0 229.56 0.0277535 229.05 0.0323792C228.312 0.0370048 227.574 0.0416308 226.836 0.050882C225.79 0.0601333 224.745 0.0693824 223.705 0.074008C220.944 0.0832592 218.189 0.0925103 215.427 0.106387C212.832 0.115638 210.236 0.11564 207.641 0.11564C205.279 0.11564 202.924 0.111016 200.562 0.120267C191.158 0.152646 181.755 0.161898 172.351 0.235907C165.297 0.286789 158.249 0.342296 151.194 0.397803C148.039 0.420931 144.89 0.457935 141.735 0.508817C134.669 0.619832 127.602 0.735474 120.535 0.846488C118.518 0.878868 116.507 0.911247 114.49 0.943626C113.321 0.962128 112.153 1.00838 110.984 1.04076C104.004 1.23966 97.017 1.43857 90.0304 1.63747C87.8962 1.6976 85.7683 1.75773 83.6341 1.82249C82.441 1.85487 81.2417 1.915 80.0486 1.96589C73.1111 2.24805 66.1737 2.52559 59.2362 2.80775C55.6568 2.95114 52.0774 3.11304 48.4979 3.28419C42.3723 3.5756 36.2405 3.86701 30.1149 4.15843C24.8073 4.40821 19.4935 4.62562 14.1858 4.86152C13.3433 4.89853 12.5007 4.93553 11.6643 4.97254C10.3051 5.03267 8.93971 5.0743 7.58051 5.12056C6.37507 5.16219 5.15732 5.18531 3.95188 5.16218C3.82888 4.92628 3.52136 4.732 3.17695 4.75513C2.39587 4.80139 1.6148 4.86615 0.839867 4.9309C0.458554 4.96328 0.132592 5.10205 0.0280383 5.39809C-0.0888159 5.72188 0.169493 6.09656 0.618459 6.17982C0.956722 6.23995 1.29498 6.30471 1.63325 6.36485C1.96536 6.42035 2.31592 6.43886 2.65418 6.46198C3.53981 6.52212 4.43775 6.53599 5.32953 6.54062ZM219.911 4.32958C221.049 4.32958 222.192 4.32958 223.33 4.32958C223.435 4.51923 223.589 4.695 223.792 4.83377C223.349 4.85689 222.912 4.88002 222.469 4.88927C221.639 4.9124 220.809 4.93553 219.978 4.95866C216.35 5.06042 212.721 5.16218 209.099 5.26395C207.438 5.3102 205.778 5.37959 204.117 5.39809C201.522 5.43047 198.926 5.45822 196.331 5.4906C190.402 5.55999 184.473 5.62937 178.544 5.70338C167.031 5.84215 155.524 5.97629 144.011 6.11506C135.77 6.2122 127.528 6.40648 119.287 6.56837C106.87 6.81815 94.4524 7.06331 82.0351 7.3131C79.5443 7.36398 77.0534 7.48424 74.5687 7.57213C67.5206 7.82654 60.4724 8.08095 53.4243 8.33536C46.5053 8.58514 39.5863 8.83492 32.6673 9.08471C32.0276 9.10784 31.388 9.13096 30.7484 9.15409C32.6119 9.04308 34.4754 8.92744 36.3451 8.82105C42.8582 8.44637 49.3713 8.0717 55.8843 7.69702C58.1599 7.56751 60.4294 7.43336 62.7049 7.30385C63.8796 7.23446 65.0543 7.19283 66.229 7.14195C73.0004 6.83203 79.7718 6.52674 86.5432 6.21682C87.8655 6.15669 89.194 6.07343 90.5163 6.03643C92.4228 5.98092 94.3294 5.92541 96.2421 5.8699C103.223 5.66638 110.209 5.46285 117.19 5.25932C118.727 5.21307 120.265 5.17144 121.796 5.12518C122.202 5.11593 122.608 5.1113 123.008 5.10668C124.084 5.0928 125.167 5.0743 126.243 5.0558C133.242 4.94941 140.235 4.83839 147.234 4.732C150.456 4.68112 153.679 4.62561 156.908 4.60711C167.314 4.54235 177.714 4.46372 188.12 4.42671C198.705 4.38971 209.308 4.3342 219.911 4.32958Z" fill="#FA7B49"/>
<path d="M19.1185 16C19.4073 16 19.6413 15.8239 19.6413 15.6068C19.6413 15.3897 19.4073 15.2136 19.1185 15.2136C18.8298 15.2136 18.5958 15.3897 18.5958 15.6068C18.5958 15.8239 18.8298 16 19.1185 16Z" fill="#FA7B49"/>
</svg>
