<svg width="200" height="16" viewBox="0 0 200 16" fill="none" xmlns="http://www.w3.org/2000/svg">
<path d="M4.33295 6.54034C5.91801 6.55422 7.50306 6.47096 9.08812 6.42471C9.73314 6.40621 10.3782 6.37383 11.0232 6.34145C13.8633 6.21194 16.7034 6.08243 19.5435 5.94829C22.9386 5.79103 26.3337 5.62451 29.7289 5.44874C34.579 5.19897 39.4292 4.9492 44.2794 4.69942C45.3894 4.64392 46.5045 4.60229 47.6145 4.55604C50.4396 4.43115 53.2647 4.31089 56.0898 4.186C58.9149 4.06574 61.74 3.94086 64.5651 3.81597C65.6702 3.76972 66.7802 3.70496 67.8852 3.67258C72.3954 3.53844 76.9056 3.40893 81.4107 3.27942C84.1808 3.20079 86.9559 3.11753 89.726 3.0389C90.8111 3.00652 91.8961 2.96027 92.9861 2.94639C97.3463 2.88626 101.701 2.82613 106.062 2.766C110.362 2.70587 114.662 2.64574 118.962 2.58561C120.097 2.57173 121.232 2.57636 122.367 2.57173C125.177 2.56248 127.982 2.55323 130.793 2.53935C135.158 2.52548 139.523 2.5116 143.893 2.4931C145.323 2.48848 146.748 2.50235 148.178 2.50698C151.168 2.51623 154.158 2.52548 157.148 2.53473C157.393 2.53473 157.643 2.53935 157.888 2.53935C151.158 2.62261 144.428 2.70587 137.698 2.79838C134.888 2.83538 132.078 2.87701 129.267 2.91401C128.057 2.93251 126.842 2.93251 125.627 2.96489C121.562 3.06203 117.497 3.16841 113.432 3.27017C108.732 3.38581 104.032 3.50607 99.3364 3.6217C98.5463 3.64021 97.7563 3.68183 96.9663 3.71884C94.4662 3.82522 91.9611 3.9316 89.461 4.03799C84.3858 4.25538 79.3107 4.47278 74.2355 4.68555C73.4854 4.71793 72.7354 4.76881 71.9854 4.81506C69.5053 4.97232 67.0252 5.12959 64.5501 5.29148C60.11 5.57363 55.6698 5.85578 51.2296 6.14256C50.0046 6.22119 48.7845 6.3322 47.5595 6.42933C44.7144 6.65135 41.8743 6.87337 39.0292 7.09539C35.4141 7.37754 31.7989 7.65044 28.1838 7.94184C23.1536 8.34888 18.1234 8.75129 13.0983 9.15833C11.8932 9.25546 10.6832 9.3526 9.47814 9.44973C7.31806 9.6255 5.16298 9.87527 3.0029 10.0973C2.77289 10.1204 2.58289 10.2592 2.58289 10.4858C2.58289 10.7078 2.77289 10.8651 3.0029 10.8744C3.79293 10.9067 4.57796 10.9391 5.36799 10.9669C5.27298 11.1565 5.21298 11.3647 5.21298 11.5774C5.21298 12.3221 5.91801 13.0576 6.75804 13.0113C12.9233 12.6551 19.0885 12.2712 25.2587 11.9983C30.6139 11.7624 35.9741 11.5265 41.3343 11.2906C47.2595 11.0316 53.1797 10.768 59.1049 10.509C60.97 10.4257 62.8351 10.3424 64.7001 10.2638C65.2402 10.2407 65.7752 10.2083 66.3152 10.1944C75.8555 9.95853 85.4009 9.73188 94.9412 9.50061C100.041 9.37573 105.142 9.25546 110.242 9.13058C112.087 9.08432 113.927 9.04732 115.767 9.01957C125.527 8.87618 135.288 8.73742 145.048 8.59403C149.228 8.5339 153.413 8.46914 157.593 8.40901C161.164 8.35813 164.734 8.33501 168.304 8.21012C171.254 8.10836 174.199 8.00198 177.149 7.90022C178.619 7.84934 180.094 7.81696 181.564 7.72908C184.909 7.53481 188.26 7.33591 191.605 7.12777C191.6 7.1324 191.6 7.13702 191.595 7.14165C191.405 7.43767 191.355 7.80308 191.455 8.13611C191.55 8.45989 191.785 8.73742 192.095 8.90393C192.39 9.0612 192.84 9.1537 193.17 9.03344C193.9 8.76517 194.625 8.49227 195.35 8.21012C195.335 8.21475 195.32 8.224 195.305 8.22862C195.36 8.20549 195.41 8.18699 195.465 8.16387C195.525 8.14074 195.59 8.11761 195.65 8.08986C195.625 8.09911 195.605 8.10836 195.58 8.11761C195.965 7.96497 196.35 7.81696 196.74 7.66432C197.145 7.50706 197.55 7.34979 197.95 7.1879C198.39 7.01214 198.805 6.79474 199.23 6.5866C199.705 6.3507 200 5.83728 200 5.34698C200 5.08796 199.93 4.84744 199.79 4.62079C199.605 4.32477 199.24 4.01949 198.86 3.95936C198.485 3.89923 198.115 3.85297 197.735 3.80672C197.655 3.79747 197.57 3.79284 197.485 3.79284C197.23 3.79284 196.965 3.82522 196.725 3.8391C196.155 3.8761 195.59 3.95473 195.025 3.99174C194.56 4.02411 194.1 4.05187 193.635 4.08425C192.385 4.1675 191.14 4.25076 189.89 4.33402C189.57 4.35714 189.245 4.37102 188.92 4.39415C189.035 4.26926 189.12 4.1305 189.17 3.96861C189.23 3.84372 189.26 3.70959 189.27 3.57082C189.285 3.47369 189.3 3.37656 189.315 3.2748C189.315 3.14529 189.29 3.02502 189.245 2.90939C189.275 2.89551 189.31 2.88163 189.34 2.86776C189.575 2.73825 189.76 2.56711 189.9 2.34509C190.045 2.11844 190.115 1.87329 190.115 1.61427C190.115 1.35062 190.045 1.1101 189.9 0.883453C189.82 0.786319 189.735 0.689186 189.655 0.587427C189.46 0.407035 189.23 0.28215 188.965 0.212769C188.485 0.0416283 187.98 0 187.47 0C187.055 0 186.635 0.0277524 186.219 0.0323778C185.619 0.0370032 185.019 0.0416291 184.419 0.0508799C183.569 0.0601307 182.719 0.0693795 181.874 0.0740049C179.629 0.0832557 177.389 0.0925064 175.144 0.106383C173.034 0.115634 170.924 0.115635 168.814 0.115635C166.894 0.115635 164.979 0.111011 163.059 0.120262C155.413 0.15264 147.768 0.161891 140.123 0.235897C134.388 0.286777 128.657 0.342281 122.922 0.397786C120.357 0.420913 117.797 0.457916 115.232 0.508795C109.487 0.619806 103.742 0.735443 97.9963 0.846453C96.3563 0.878831 94.7212 0.911208 93.0811 0.943586C92.1311 0.962088 91.1811 1.00834 90.231 1.04072C84.5558 1.23961 78.8756 1.43851 73.1954 1.6374C71.4604 1.69753 69.7303 1.75766 67.9952 1.82241C67.0252 1.85479 66.0502 1.91492 65.0801 1.9658C59.4399 2.24795 53.7997 2.52548 48.1595 2.80763C45.2494 2.95102 42.3393 3.11291 39.4292 3.28405C34.449 3.57545 29.4639 3.86685 24.4837 4.15825C20.1685 4.40802 15.8484 4.62542 11.5332 4.86132C10.8482 4.89832 10.1632 4.93532 9.48314 4.97233C8.3781 5.03246 7.26806 5.07409 6.16302 5.12034C5.18298 5.16197 4.19295 5.18509 3.21291 5.16197C3.11291 4.92607 2.8629 4.7318 2.58289 4.75493C1.94786 4.80119 1.31284 4.86594 0.682819 4.9307C0.372808 4.96307 0.107798 5.10184 0.0227953 5.39786C-0.0722081 5.72164 0.137799 6.0963 0.502813 6.17956C0.777822 6.23969 1.05283 6.30445 1.32784 6.36458C1.59785 6.42008 1.88286 6.43858 2.15787 6.46171C2.8779 6.52184 3.60792 6.53572 4.33295 6.54034ZM178.789 4.32939C179.714 4.32939 180.644 4.32939 181.569 4.32939C181.654 4.51904 181.779 4.6948 181.944 4.83356C181.584 4.85669 181.229 4.87982 180.869 4.88907C180.194 4.9122 179.519 4.93532 178.844 4.95845C175.894 5.06021 172.944 5.16197 169.999 5.26373C168.649 5.30998 167.299 5.37936 165.949 5.39786C163.839 5.43024 161.729 5.45799 159.619 5.49037C154.798 5.55975 149.978 5.62914 145.158 5.70314C135.798 5.84191 126.442 5.97604 117.082 6.11481C110.382 6.21194 103.682 6.4062 96.9813 6.56809C86.8859 6.81787 76.7906 7.06301 66.6952 7.31279C64.6701 7.36367 62.6451 7.48393 60.625 7.57181C54.8948 7.82621 49.1646 8.08061 43.4344 8.335C37.8092 8.58478 32.184 8.83455 26.5588 9.08432C26.0387 9.10745 25.5187 9.13058 24.9987 9.15371C26.5137 9.0427 28.0288 8.92706 29.5489 8.82067C34.844 8.44602 40.1392 8.07136 45.4344 7.6967C47.2845 7.56719 49.1296 7.43305 50.9796 7.30354C51.9347 7.23416 52.8897 7.19253 53.8447 7.14165C59.3499 6.83174 64.8551 6.52646 70.3603 6.21656C71.4354 6.15643 72.5154 6.07317 73.5904 6.03617C75.1405 5.98067 76.6906 5.92516 78.2456 5.86966C83.9208 5.66614 89.601 5.46262 95.2762 5.2591C96.5263 5.21285 97.7763 5.17122 99.0214 5.12497C99.3514 5.11572 99.6814 5.11109 100.006 5.10646C100.881 5.09259 101.761 5.07409 102.636 5.05558C108.327 4.9492 114.012 4.83819 119.702 4.7318C122.322 4.68092 124.942 4.62542 127.567 4.60692C136.028 4.54216 144.483 4.46353 152.943 4.42653C161.549 4.38952 170.169 4.33402 178.789 4.32939Z" fill="#FA7B49"/>
<path d="M15.5432 15.9999C15.7779 15.9999 15.9682 15.8239 15.9682 15.6068C15.9682 15.3896 15.7779 15.2136 15.5432 15.2136C15.3085 15.2136 15.1182 15.3896 15.1182 15.6068C15.1182 15.8239 15.3085 15.9999 15.5432 15.9999Z" fill="#FA7B49"/>
</svg>
