<svg width="334" height="16" viewBox="0 0 334 16" fill="none" xmlns="http://www.w3.org/2000/svg">
<path d="M7.23603 6.54062C9.88307 6.5545 12.5301 6.47123 15.1772 6.42498C16.2544 6.40648 17.3315 6.3741 18.4087 6.34172C23.1517 6.2122 27.8947 6.08268 32.6376 5.94854C38.3075 5.79127 43.9774 5.62475 49.6472 5.44897C57.747 5.19919 65.8468 4.94941 73.9466 4.69962C75.8003 4.64412 77.6625 4.60249 79.5162 4.55623C84.2341 4.43134 88.9521 4.31107 93.67 4.18618C98.3879 4.06591 103.106 3.94102 107.824 3.81613C109.669 3.76988 111.523 3.70512 113.368 3.67274C120.9 3.53859 128.432 3.40908 135.956 3.27956C140.582 3.20092 145.216 3.11766 149.842 3.03903C151.654 3.00665 153.466 2.96039 155.287 2.94651C162.568 2.88638 169.841 2.82625 177.123 2.76612C184.304 2.70598 191.485 2.64585 198.667 2.58572C200.562 2.57184 202.458 2.57647 204.353 2.57184C209.046 2.56259 213.731 2.55334 218.423 2.53946C225.713 2.52558 233.003 2.51171 240.301 2.49321C242.689 2.48858 245.069 2.50246 247.457 2.50708C252.451 2.51633 257.444 2.52558 262.438 2.53483C262.847 2.53483 263.265 2.53946 263.674 2.53946C252.434 2.62272 241.195 2.70598 229.955 2.79849C225.262 2.8355 220.57 2.87713 215.877 2.91414C213.856 2.93264 211.827 2.93264 209.798 2.96502C203.009 3.06216 196.22 3.16855 189.431 3.27031C181.582 3.38595 173.733 3.50622 165.892 3.62186C164.572 3.64036 163.253 3.68199 161.934 3.71899C157.759 3.82538 153.575 3.93177 149.4 4.03816C140.924 4.25556 132.449 4.47297 123.973 4.68575C122.721 4.71813 121.468 4.76901 120.216 4.81526C116.074 4.97253 111.932 5.1298 107.799 5.2917C100.384 5.57386 92.9686 5.85603 85.5535 6.14282C83.5077 6.22145 81.4702 6.33247 79.4244 6.42961C74.6731 6.65163 69.9301 6.87366 65.1788 7.09569C59.1415 7.37785 53.1042 7.65077 47.067 7.94218C38.6666 8.34923 30.2662 8.75166 21.8741 9.15872C19.8617 9.25585 17.8409 9.35299 15.8285 9.45013C12.2212 9.6259 8.62218 9.87569 5.01485 10.0977C4.63073 10.1208 4.31342 10.2596 4.31342 10.4863C4.31342 10.7083 4.63073 10.8656 5.01485 10.8748C6.33419 10.9072 7.64519 10.9396 8.96454 10.9673C8.80588 11.157 8.70568 11.3651 8.70568 11.5779C8.70568 12.3226 9.88307 13.0581 11.2859 13.0119C21.5818 12.6557 31.8778 12.2718 42.182 11.9988C51.1252 11.7629 60.0767 11.527 69.0283 11.2911C78.9234 11.0321 88.8101 10.7684 98.7052 10.5094C101.82 10.4261 104.935 10.3429 108.049 10.2642C108.951 10.2411 109.845 10.2087 110.746 10.1949C126.679 9.95895 142.619 9.73229 158.552 9.50101C167.069 9.37612 175.586 9.25585 184.104 9.13096C187.185 9.08471 190.258 9.0477 193.331 9.01995C209.631 8.87655 225.93 8.73779 242.23 8.59439C249.211 8.53426 256.2 8.4695 263.181 8.40937C269.143 8.35849 275.105 8.33536 281.067 8.21047C285.994 8.1087 290.912 8.00231 295.839 7.90055C298.294 7.84967 300.757 7.81729 303.212 7.7294C308.799 7.53513 314.393 7.33622 319.98 7.12807C319.971 7.1327 319.971 7.13732 319.963 7.14195C319.646 7.43799 319.562 7.80341 319.729 8.13645C319.888 8.46025 320.28 8.73779 320.798 8.90431C321.291 9.06158 322.042 9.15409 322.593 9.03382C323.813 8.76554 325.023 8.49263 326.234 8.21047C326.209 8.21509 326.184 8.22434 326.159 8.22897C326.251 8.20584 326.334 8.18734 326.426 8.16421C326.526 8.14108 326.635 8.11795 326.735 8.0902C326.693 8.09945 326.66 8.1087 326.618 8.11795C327.261 7.96531 327.904 7.81729 328.556 7.66464C329.232 7.50737 329.908 7.3501 330.576 7.18821C331.311 7.01243 332.004 6.79503 332.714 6.58687C333.507 6.35097 334 5.83752 334 5.34721C334 5.08818 333.883 4.84764 333.649 4.62099C333.34 4.32495 332.731 4.01966 332.096 3.95953C331.47 3.89939 330.852 3.85314 330.217 3.80688C330.084 3.79763 329.942 3.793 329.8 3.793C329.374 3.793 328.931 3.82538 328.531 3.83926C327.579 3.87626 326.635 3.9549 325.691 3.9919C324.915 4.02428 324.147 4.05204 323.37 4.08442C321.282 4.16768 319.203 4.25094 317.116 4.3342C316.581 4.35733 316.038 4.37121 315.496 4.39433C315.688 4.26944 315.83 4.13067 315.913 3.96878C316.013 3.84389 316.064 3.70974 316.08 3.57098C316.105 3.47384 316.13 3.3767 316.155 3.27494C316.155 3.14542 316.114 3.02515 316.039 2.90951C316.089 2.89564 316.147 2.88176 316.197 2.86788C316.59 2.73836 316.899 2.56722 317.132 2.34519C317.375 2.11853 317.491 1.87337 317.491 1.61434C317.491 1.35068 317.375 1.11015 317.132 0.883491C316.999 0.786353 316.857 0.689215 316.723 0.587452C316.398 0.407053 316.013 0.282162 315.571 0.212778C314.769 0.0416301 313.926 0 313.074 0C312.381 0 311.68 0.0277535 310.987 0.0323792C309.985 0.0370048 308.983 0.0416308 307.98 0.050882C306.561 0.0601333 305.141 0.0693824 303.73 0.074008C299.981 0.0832592 296.24 0.0925103 292.491 0.106387C288.967 0.115638 285.443 0.11564 281.919 0.11564C278.713 0.11564 275.514 0.111016 272.308 0.120267C259.54 0.152646 246.773 0.161898 234.005 0.235907C224.427 0.286789 214.858 0.342296 205.28 0.397803C200.996 0.420931 196.721 0.457935 192.437 0.508817C182.843 0.619832 173.248 0.735474 163.654 0.846488C160.915 0.878868 158.184 0.911247 155.446 0.943626C153.859 0.962128 152.272 1.00838 150.686 1.04076C141.208 1.23966 131.722 1.43857 122.236 1.63747C119.339 1.6976 116.45 1.75773 113.552 1.82249C111.932 1.85487 110.304 1.915 108.684 1.96589C99.2647 2.24805 89.8456 2.52559 80.4264 2.80775C75.5665 2.95114 70.7067 3.11304 65.8468 3.28419C57.5299 3.5756 49.2046 3.86701 40.8877 4.15843C33.6814 4.40821 26.4668 4.62562 19.2605 4.86152C18.1165 4.89853 16.9725 4.93553 15.8368 4.97254C13.9914 5.03267 12.1377 5.0743 10.2922 5.12056C8.65558 5.16219 7.00222 5.18531 5.36556 5.16218C5.19855 4.92628 4.78104 4.732 4.31342 4.75513C3.25293 4.80139 2.19245 4.86614 1.14031 4.9309C0.622589 4.96328 0.180023 5.10205 0.0380682 5.39809C-0.120588 5.72188 0.230125 6.09656 0.839697 6.17982C1.29896 6.23995 1.75823 6.30471 2.2175 6.36485C2.66841 6.42035 3.14438 6.43886 3.60365 6.46198C4.80609 6.52212 6.02523 6.53599 7.23603 6.54062ZM298.578 4.32958C300.123 4.32958 301.676 4.32958 303.221 4.32958C303.363 4.51923 303.572 4.695 303.847 4.83377C303.246 4.85689 302.653 4.88002 302.052 4.88927C300.924 4.9124 299.797 4.93553 298.67 4.95866C293.743 5.06042 288.817 5.16218 283.898 5.26395C281.644 5.3102 279.389 5.37959 277.134 5.39809C273.611 5.43047 270.087 5.45822 266.563 5.4906C258.513 5.55999 250.464 5.62937 242.414 5.70338C226.782 5.84215 211.159 5.9763 195.527 6.11506C184.338 6.2122 173.148 6.40648 161.959 6.56837C145.099 6.81815 128.24 7.06331 111.381 7.3131C107.999 7.36398 104.617 7.48424 101.244 7.57213C91.6743 7.82654 82.1048 8.08095 72.5354 8.33536C63.1413 8.58514 53.7472 8.83492 44.3531 9.08471C43.4847 9.10784 42.6162 9.13096 41.7478 9.15409C44.278 9.04308 46.8081 8.92744 49.3466 8.82105C58.1896 8.44637 67.0325 8.0717 75.8755 7.69702C78.9651 7.56751 82.0464 7.43336 85.136 7.30385C86.7309 7.23446 88.3258 7.19283 89.9207 7.14195C99.1144 6.83203 108.308 6.52674 117.502 6.21682C119.297 6.15669 121.101 6.07343 122.896 6.03643C125.485 5.98092 128.073 5.92541 130.67 5.8699C140.148 5.66638 149.634 5.46285 159.111 5.25932C161.199 5.21307 163.286 5.17144 165.366 5.12518C165.917 5.11593 166.468 5.11131 167.011 5.10668C168.472 5.0928 169.942 5.0743 171.403 5.0558C180.906 4.94941 190.4 4.83839 199.903 4.732C204.278 4.68112 208.654 4.62561 213.038 4.60711C227.166 4.54235 241.287 4.46372 255.415 4.42671C269.786 4.38971 284.182 4.3342 298.578 4.32958Z" fill="#FA7B49"/>
<path d="M25.9576 16C26.3496 16 26.6674 15.8239 26.6674 15.6068C26.6674 15.3897 26.3496 15.2136 25.9576 15.2136C25.5656 15.2136 25.2479 15.3897 25.2479 15.6068C25.2479 15.8239 25.5656 16 25.9576 16Z" fill="#FA7B49"/>
</svg>
