<svg width="auto" height="16" viewBox="0 0 164 16" fill="none" xmlns="http://www.w3.org/2000/svg" preserveAspectRatio="none">
<path d="M3.55302 6.54062C4.85277 6.5545 6.15251 6.47123 7.45226 6.42498C7.98118 6.40648 8.5101 6.3741 9.03902 6.34172C11.3679 6.2122 13.6968 6.08268 16.0257 5.94854C18.8097 5.79127 21.5937 5.62475 24.3777 5.44897C28.3548 5.19919 32.332 4.94941 36.3091 4.69962C37.2193 4.64412 38.1337 4.60249 39.0439 4.55623C41.3605 4.43134 43.6771 4.31107 45.9936 4.18618C48.3102 4.06591 50.6268 3.94102 52.9434 3.81613C53.8495 3.76988 54.7598 3.70512 55.6659 3.67274C59.3642 3.53859 63.0626 3.40908 66.7568 3.27956C69.0283 3.20092 71.3039 3.11766 73.5753 3.03903C74.4651 3.00665 75.3548 2.96039 76.2486 2.94651C79.824 2.88638 83.3952 2.82625 86.9705 2.76612C90.4967 2.70598 94.0228 2.64585 97.5489 2.58572C98.4796 2.57184 99.4104 2.57647 100.341 2.57184C102.645 2.56259 104.946 2.55334 107.25 2.53946C110.829 2.52558 114.409 2.51171 117.992 2.49321C119.165 2.48858 120.333 2.50246 121.506 2.50708C123.958 2.51633 126.41 2.52558 128.862 2.53483C129.063 2.53483 129.268 2.53946 129.469 2.53946C123.95 2.62272 118.431 2.70598 112.912 2.79849C110.608 2.8355 108.304 2.87713 105.999 2.91414C105.007 2.93264 104.011 2.93264 103.014 2.96502C99.681 3.06216 96.3476 3.16855 93.0141 3.27031C89.16 3.38595 85.3059 3.50622 81.4558 3.62186C80.808 3.64036 80.1602 3.68199 79.5124 3.71899C77.4623 3.82538 75.4081 3.93177 73.358 4.03816C69.1964 4.25556 65.0347 4.47297 60.8731 4.68575C60.2581 4.71813 59.643 4.76901 59.028 4.81526C56.9943 4.97253 54.9607 5.1298 52.9311 5.2917C49.2902 5.57386 45.6492 5.85603 42.0083 6.14282C41.0038 6.22145 40.0033 6.33247 38.9988 6.42961C36.6658 6.65163 34.3369 6.87366 32.0039 7.09569C29.0395 7.37785 26.0751 7.65077 23.1107 7.94218C18.986 8.34923 14.8612 8.75166 10.7406 9.15872C9.75244 9.25585 8.76021 9.35299 7.77207 9.45013C6.00081 9.62591 4.23364 9.87569 2.46238 10.0977C2.27377 10.1208 2.11797 10.2596 2.11797 10.4863C2.11797 10.7083 2.27377 10.8656 2.46238 10.8748C3.1102 10.9072 3.75393 10.9396 4.40175 10.9673C4.32385 11.157 4.27465 11.3651 4.27465 11.5779C4.27465 12.3226 4.85277 13.0581 5.54159 13.0119C10.5971 12.6557 15.6526 12.2718 20.7121 11.9988C25.1034 11.7629 29.4988 11.527 33.8941 11.2911C38.7528 11.0321 43.6074 10.7684 48.466 10.5094C49.9954 10.4261 51.5248 10.3429 53.0541 10.2642C53.4969 10.2411 53.9356 10.2087 54.3785 10.1949C62.2015 9.95895 70.0287 9.73229 77.8518 9.50101C82.034 9.37612 86.2161 9.25585 90.3983 9.13096C91.9112 9.08471 93.4201 9.0477 94.9289 9.01995C102.932 8.87655 110.936 8.73779 118.939 8.59439C122.367 8.53426 125.799 8.4695 129.227 8.40937C132.154 8.35849 135.082 8.33536 138.009 8.21047C140.428 8.1087 142.843 8.00231 145.262 7.90055C146.468 7.84967 147.677 7.81729 148.883 7.7294C151.626 7.53513 154.373 7.33622 157.116 7.12807C157.112 7.1327 157.112 7.13732 157.108 7.14195C156.952 7.43799 156.911 7.80341 156.993 8.13645C157.071 8.46025 157.263 8.73779 157.518 8.90431C157.76 9.06158 158.129 9.15409 158.399 9.03382C158.998 8.76554 159.592 8.49263 160.187 8.21047C160.175 8.21509 160.162 8.22434 160.15 8.22897C160.195 8.20584 160.236 8.18734 160.281 8.16421C160.33 8.14108 160.384 8.11795 160.433 8.0902C160.412 8.09945 160.396 8.1087 160.375 8.11795C160.691 7.96531 161.007 7.81729 161.327 7.66464C161.659 7.50737 161.991 7.3501 162.319 7.18821C162.68 7.01243 163.02 6.79503 163.369 6.58687C163.758 6.35097 164 5.83752 164 5.34721C164 5.08818 163.943 4.84764 163.828 4.62099C163.676 4.32495 163.377 4.01966 163.065 3.95953C162.758 3.89939 162.454 3.85314 162.143 3.80688C162.077 3.79763 162.007 3.793 161.938 3.793C161.729 3.793 161.511 3.82538 161.314 3.83926C160.847 3.87626 160.384 3.9549 159.92 3.9919C159.539 4.02428 159.162 4.05204 158.781 4.08442C157.755 4.16768 156.735 4.25094 155.71 4.3342C155.447 4.35733 155.181 4.37121 154.914 4.39433C155.008 4.26944 155.078 4.13067 155.119 3.96878C155.168 3.84389 155.193 3.70974 155.201 3.57098C155.213 3.47384 155.226 3.3767 155.238 3.27494C155.238 3.14542 155.217 3.02515 155.181 2.90951C155.205 2.89564 155.234 2.88176 155.258 2.86788C155.451 2.73836 155.603 2.56722 155.718 2.34519C155.837 2.11853 155.894 1.87337 155.894 1.61434C155.894 1.35068 155.837 1.11015 155.718 0.883491C155.652 0.786353 155.582 0.689215 155.517 0.587452C155.357 0.407053 155.168 0.282162 154.951 0.212778C154.557 0.0416301 154.143 0 153.725 0C153.385 0 153.04 0.0277535 152.7 0.0323792C152.208 0.0370048 151.716 0.0416308 151.224 0.050882C150.527 0.0601333 149.83 0.0693824 149.137 0.074008C147.296 0.0832592 145.459 0.0925103 143.618 0.106387C141.888 0.115638 140.158 0.11564 138.427 0.11564C136.853 0.11564 135.283 0.111016 133.708 0.120267C127.439 0.152646 121.17 0.161898 114.901 0.235907C110.198 0.286789 105.499 0.342296 100.796 0.397803C98.6929 0.420931 96.5936 0.457935 94.4902 0.508817C89.7791 0.619832 85.0681 0.735474 80.357 0.846488C79.0121 0.878868 77.6714 0.911247 76.3265 0.943626C75.5475 0.962128 74.7685 1.00838 73.9895 1.04076C69.3358 1.23966 64.678 1.43857 60.0203 1.63747C58.5975 1.6976 57.1789 1.75773 55.7561 1.82249C54.9607 1.85487 54.1611 1.915 53.3657 1.96589C48.7407 2.24805 44.1158 2.52559 39.4908 2.80775C37.1045 2.95114 34.7182 3.11304 32.332 3.28419C28.2482 3.5756 24.1604 3.86701 20.0766 4.15843C16.5382 4.40821 12.9957 4.62562 9.45723 4.86152C8.89551 4.89853 8.33379 4.93553 7.77617 4.97254C6.87004 5.03267 5.95981 5.0743 5.05367 5.12056C4.25004 5.16219 3.43822 5.18531 2.63459 5.16218C2.55258 4.92628 2.34758 4.732 2.11797 4.75513C1.59725 4.80139 1.07653 4.86615 0.559912 4.9309C0.305703 4.96328 0.0883947 5.10205 0.0186922 5.39809C-0.0592106 5.72188 0.112996 6.09656 0.412306 6.17982C0.637814 6.23995 0.863323 6.30471 1.08883 6.36485C1.31024 6.42035 1.54395 6.43886 1.76946 6.46198C2.35988 6.52212 2.9585 6.53599 3.55302 6.54062ZM146.607 4.32958C147.366 4.32958 148.128 4.32958 148.887 4.32958C148.957 4.51923 149.059 4.695 149.194 4.83377C148.899 4.85689 148.608 4.88002 148.313 4.88927C147.759 4.9124 147.206 4.93553 146.652 4.95866C144.233 5.06042 141.814 5.16218 139.399 5.26395C138.292 5.3102 137.185 5.37959 136.078 5.39809C134.348 5.43047 132.617 5.45822 130.887 5.4906C126.935 5.55999 122.982 5.62937 119.03 5.70338C111.354 5.84215 103.683 5.97629 96.0073 6.11506C90.5131 6.2122 85.0189 6.40648 79.5247 6.56837C71.2465 6.81815 62.9683 7.06331 54.6901 7.3131C53.0295 7.36398 51.3689 7.48424 49.7125 7.57213C45.0137 7.82654 40.3149 8.08095 35.6162 8.33536C31.0035 8.58514 26.3908 8.83492 21.7782 9.08471C21.3518 9.10784 20.9253 9.13096 20.4989 9.15409C21.7413 9.04308 22.9836 8.92744 24.2301 8.82105C28.5721 8.44637 32.9142 8.0717 37.2562 7.69702C38.7733 7.56751 40.2862 7.43336 41.8033 7.30385C42.5864 7.23446 43.3696 7.19283 44.1527 7.14195C48.6669 6.83203 53.1812 6.52674 57.6955 6.21682C58.577 6.15669 59.4626 6.07343 60.3442 6.03643C61.6152 5.98092 62.8863 5.92541 64.1614 5.8699C68.8151 5.66638 73.4728 5.46285 78.1265 5.25932C79.1515 5.21307 80.1766 5.17144 81.1975 5.12518C81.4681 5.11593 81.7387 5.1113 82.0052 5.10668C82.7228 5.0928 83.4444 5.0743 84.1619 5.0558C88.8279 4.94941 93.4898 4.83839 98.1557 4.732C100.304 4.68112 102.453 4.62561 104.605 4.60711C111.543 4.54235 118.476 4.46372 125.414 4.42671C132.47 4.38971 139.539 4.3342 146.607 4.32958Z" fill="#FA7B49"/>
<path d="M12.7455 16C12.938 16 13.0941 15.8239 13.0941 15.6068C13.0941 15.3897 12.938 15.2136 12.7455 15.2136C12.5531 15.2136 12.397 15.3897 12.397 15.6068C12.397 15.8239 12.5531 16 12.7455 16Z" fill="#FA7B49"/>
</svg>
